{
.appVersion = "919";
DisplayStrings = (
"ABCDEFGHIJKLMNOPQRSTUVWXYZ\012ABCDEFGHIJKLMNOPQRSTUVWXYZ\012ABCDEFGHIJKLMNOPQRSTUVWXYZ\012ABCDEFGHIJKLMNOPQRSTUVWXYZ\012ABCDEFGHIJKLMNOPQRSTUVWXYZ\012ABCDEFGHIJKLMNOPQRSTUVWXYZ\012ABCDEFGHIJKLMNOPQRSTUVWXYZ"
);
copyright = "Copyright (c) 2010, Kimberly Geswein (kimberlygeswein.com)";
customParameters = (
{
name = licenseURL;
value = " http://scripts.sil.org/OFL";
},
{
name = description;
value = .;
},
{
name = license;

glyphs = (
{
glyphname = exclam;
lastChange = "2016-09-01 06:34:15 +0000";
layers = (
{
layerId = UUID0;
paths = (
{
closed = 1;
nodes = (
"16 49 LINE",
"16 79 LINE",
"61 106 LINE",
"91 106 LINE",
"102 106 LINE",
"118 94 LINE",
"130 77 LINE",
"135 58 LINE",
"135 49 LINE",
"135 37 LINE",
"119 19 LINE",
"97 6 LINE",
"71 -1 LINE",
"62 -1 LINE",
"37 -1 LINE",
"16 25 LINE"
);
},
{
closed = 1;
nodes = (
"47 274 LINE",
"43 300 LINE",
"40 389 LINE",
"39 496 LINE",
"40 613 LINE",
"40 720 LINE",
"40 809 LINE",
"38 835 LINE",
"87 844 LINE",
"87 844 LINE",
"88 808 LINE",
"89 750 LINE",
"90 674 LINE",
"91 592 LINE",
"92 509 LINE",
"94 437 LINE",
"95 382 LINE",
"96 370 LINE",
"96 368 LINE",
"96 357 LINE",
"97 342 LINE",
"97 328 LINE",
"97 324 LINE",
"97 316 LINE",
"98 295 LINE",
"95 275 LINE",
"85 262 LINE",
"73 262 LINE",
"66 262 LINE",
"50 263 LINE"
);
}
);
width = 154;
}
);
unicode = 0021;
},
{
glyphname = quotedbl;
lastChange = "2016-09-01 06:34:15 +0000";
layers = (
{
layerId = UUID0;
paths = (
{
closed = 1;
nodes = (
"154 547 LINE",
"152 582 LINE",
"148 638 LINE",
"146 689 LINE",
"145 739 LINE",
"145 768 LINE",
"145 806 LINE",
"145 808 LINE",
"153 815 LINE",
"154 817 LINE",
"157 817 LINE",
"157 817 LINE",
"158 817 LINE",
"159 817 LINE",
"172 817 LINE",
"190 780 LINE",
"202 724 LINE",
"208 657 LINE",
"211 598 LINE",
"212 556 LINE",
"212 552 LINE",
"212 518 LINE",
"211 515 LINE",
"196 501 LINE",
"193 499 LINE",
"191 499 LINE",
"190 499 LINE",
"187 499 LINE",
"181 499 LINE",
"169 513 LINE",
"160 531 LINE",
"154 546 LINE"
);
},
{
closed = 1;
nodes = (
"10 778 LINE",
"13 786 LINE",
"24 788 LINE",
"30 788 LINE",
"40 788 LINE",
"56 759 LINE",
"70 712 LINE",
"83 655 LINE",
"96 600 LINE",
"109 552 LINE",
"116 538 LINE",
"110 526 LINE",
"97 517 LINE",
"87 517 LINE",
"73 517 LINE",
"51 550 LINE",
"34 600 LINE",
"22 661 LINE",
"14 719 LINE",
"10 766 LINE"
);
}
);
width = 241;
}
);
unicode = 0022;
},
{
glyphname = numbersign;
lastChange = "2016-09-01 06:34:15 +0000";
layers = (
{
layerId = UUID0;
paths = (
{
closed = 1;
nodes = (
"394 154 LINE",
"394 67 LINE",
"394 66 LINE",
"386 59 LINE",
"385 58 LINE",
"382 55 LINE",
"367 49 LINE",
"365 49 LINE",
"353 49 LINE",
"343 63 LINE",
"338 85 LINE",
"338 109 LINE",
"335 131 LINE",
"328 145 LINE",
"318 145 LINE",
"316 145 LINE",
"309 145 LINE",
"308 145 LINE",
"304 144 LINE",
"274 139 LINE",
"234 133 LINE",
"190 127 LINE",
"150 121 LINE",
"121 116 LINE",
"116 115 LINE",
"109 115 LINE",
"99 115 LINE",
"86 134 LINE",
"86 145 LINE",
"86 146 LINE",
"87 153 LINE",
"87 154 LINE",
"136 165 LINE",
"230 184 LINE",
"279 192 LINE",
"283 193 LINE",
"296 196 LINE",
"308 199 LINE",
"317 201 LINE",
"317 202 LINE",
"317 268 LINE",
"308 279 LINE",
"307 279 LINE",
"300 280 LINE",
"291 280 LINE",
"282 280 LINE",
"280 280 LINE",
"247 280 LINE",
"181 262 LINE",
"118 238 LINE",
"59 220 LINE",
"34 220 LINE",
"22 220 LINE",
"9 228 LINE",
"9 241 LINE",
"9 260 LINE",
"53 287 LINE",
"120 307 LINE",
"197 321 LINE",
"264 331 LINE",
"308 340 LINE",
"308 346 LINE",
"308 480 LINE",
"308 484 LINE",
"316 493 LINE",
"327 499 LINE",
"340 504 LINE",
"344 504 LINE",
"344 488 LINE",
"348 452 LINE",
"354 415 LINE",
"361 379 LINE",
"365 364 LINE",
"382 358 LINE",
"403 354 LINE",
"419 354 LINE",
"424 354 LINE",
"439 358 LINE",
"452 367 LINE",
"462 377 LINE",
"462 383 LINE",
"462 393 LINE",
"456 412 LINE",
"448 432 LINE",
"442 451 LINE",
"442 460 LINE",
"442 474 LINE",
"456 500 LINE",
"471 500 LINE",
"472 500 LINE",
"479 499 LINE",
"481 499 LINE",
"481 492 LINE",
"490 451 LINE",
"502 408 LINE",
"514 375 LINE",
"519 375 LINE",
"682 375 LINE",
"682 375 LINE",
"692 366 LINE",
"704 354 LINE",
"717 341 LINE",
"721 337 LINE",
"721 334 LINE",
"721 333 LINE",
"721 331 LINE",
"721 331 LINE",
"721 327 LINE",
"715 319 LINE",
"705 312 LINE",
"695 307 LINE",
"692 307 LINE",
"691 307 LINE",
"685 310 LINE",
"679 313 LINE",
"673 316 LINE",
"673 317 LINE",
"671 317 LINE",
"659 320 LINE",
"643 323 LINE",
"628 325 LINE",
"625 326 LINE",
"619 326 LINE",
"615 326 LINE",
"604 325 LINE",
"575 322 LINE",
"562 320 LINE",
"546 318 LINE",
"529 317 LINE",
"529 250 LINE",
"538 241 LINE",
"559 244 LINE",
"589 247 LINE",
"617 250 LINE",
"646 250 LINE",
"664 250 LINE",
"680 250 LINE",
"715 251 LINE",
"742 243 LINE",
"760 222 LINE",
"760 200 LINE",
"760 183 LINE",
"740 183 LINE",
"730 183 LINE",
"727 183 LINE",
"701 186 LINE",
"672 189 LINE",
"646 192 LINE",
"643 192 LINE",
"639 192 LINE",
"631 192 LINE",
"600 186 LINE",
"567 178 LINE",
"541 172 LINE",
"538 172 LINE",
"538 171 LINE",
"538 161 LINE",
"538 151 LINE",
"537 141 LINE",
"537 139 LINE",
"537 115 LINE",
"548 70 LINE",
"548 46 LINE",
"548 45 LINE",
"547 43 LINE",
"547 41 LINE",
"547 38 LINE",
"546 37 LINE",
"536 26 LINE",
"524 13 LINE",
"512 2 LINE",
"509 0 LINE",
"508 -1 LINE",
"507 -1 LINE",
"505 -1 LINE",
"499 -1 LINE",
"492 22 LINE",
"486 57 LINE",
"481 97 LINE",
"478 134 LINE",
"474 160 LINE",
"471 163 LINE",
"461 172 LINE"
);
},
{
closed = 1;
nodes = (
"375 268 LINE",
"375 265 LINE",
"377 249 LINE",
"380 231 LINE",
"383 214 LINE",
"385 211 LINE",
"471 230 LINE",
"471 234 LINE",
"472 238 LINE",
"472 241 LINE",
"473 247 LINE",
"473 250 LINE",
"473 252 LINE",
"472 262 LINE",
"472 271 LINE",
"471 278 LINE",
"471 279 LINE",
"470 283 LINE",
"463 298 LINE",
"461 298 LINE",
"394 298 LINE",
"393 298 LINE",
"386 290 LINE",
"385 288 LINE",
"382 285 LINE",
"375 270 LINE"
);
}
);
width = 787;
}
);
unicode = 0023;
},
{
glyphname = dollar;
lastChange = "2016-09-01 06:34:15 +0000";
layers = (
{
layerId = UUID0;
paths = (
{
closed = 1;
nodes = (
"292 109 LINE",
"291 105 LINE",
"286 72 LINE",
"278 37 LINE",
"267 8 LINE",
"260 8 LINE",
"239 8 LINE",
"225 39 LINE",
"223 79 LINE",
"225 118 LINE",
"221 125 LINE",
"215 136 LINE",
"178 162 LINE",
"128 191 LINE",
"75 222 LINE",
"31 253 LINE",
"6 284 LINE",
"10 298 LINE",
"13 310 LINE",
"29 318 LINE",
"39 318 LINE",
"60 318 LINE",
"98 282 LINE",
"138 238 LINE",
"178 202 LINE",
"202 202 LINE",
"215 202 LINE",
"234 237 LINE",
"247 291 LINE",
"255 358 LINE",
"259 420 LINE",
"260 472 LINE",
"260 484 LINE",
"260 487 LINE",
"260 496 LINE",
"259 507 LINE",
"259 517 LINE",
"259 518 LINE",
"245 536 LINE",
"208 565 LINE",
"175 595 LINE",
"153 631 LINE",
"153 658 LINE",
"153 661 LINE",
"154 679 LINE",
"154 682 LINE",
"178 717 LINE",
"248 765 LINE",
"289 778 LINE",
"290 797 LINE",
"292 850 LINE",
"301 900 LINE",
"324 942 LINE",
"346 951 LINE",
"346 935 LINE",
"353 909 LINE",
"355 893 LINE",
"355 892 LINE",
"352 886 LINE",
"349 880 LINE",
"346 874 LINE",
"346 874 LINE",
"346 873 LINE",
"346 865 LINE",
"346 854 LINE",
"345 843 LINE",
"345 840 LINE",
"345 838 LINE",
"346 829 LINE",
"346 817 LINE",
"346 808 LINE",
"346 806 LINE",
"359 799 LINE",
"376 796 LINE",
"389 796 LINE",
"391 796 LINE",
"403 797 LINE",
"404 797 LINE",
"404 811 LINE",
"403 853 LINE",
"409 891 LINE",
"429 919 LINE",
"451 919 LINE",
"451 768 LINE",
"454 761 LINE",
"470 753 LINE",
"486 745 LINE",
"499 736 LINE",
"499 730 LINE",
"499 726 LINE",
"487 715 LINE",
"469 706 LINE",
"450 700 LINE",
"442 701 LINE",
"438 661 LINE",
"421 591 LINE",
"421 552 LINE",
"421 550 LINE",
"422 537 LINE",
"422 523 LINE",
"423 511 LINE",
"423 509 LINE",
"444 484 LINE",
"497 439 LINE",
"544 390 LINE",
"577 331 LINE",
"577 292 LINE",
"577 187 LINE",
"466 74 LINE",
"365 67 LINE",
"367 57 LINE",
"367 34 LINE",
"360 13 LINE",
"344 -1 LINE",
"331 -1 LINE",
"330 -1 LINE",
"319 0 LINE",
"317 0 LINE",
"314 28 LINE",
"311 52 LINE",
"307 71 LINE",
"298 106 LINE"
);
},
{
closed = 1;
nodes = (
"375 134 LINE",
"377 133 LINE",
"391 126 LINE",
"394 125 LINE",
"398 125 LINE",
"430 125 LINE",
"476 154 LINE",
"505 199 LINE",
"520 254 LINE",
"520 280 LINE",
"520 336 LINE",
"468 410 LINE",
"423 442 LINE",
"410 435 LINE",
"393 400 LINE",
"382 352 LINE",
"376 298 LINE",
"374 246 LINE",
"374 201 LINE",
"374 187 LINE",
"374 184 LINE",
"374 169 LINE",
"375 152 LINE",
"375 137 LINE"
);
},
{
closed = 1;
nodes = (
"350 477 LINE",
"352 480 LINE",
"345 484 LINE",
"335 484 LINE",
"326 482 LINE",
"327 480 LINE",
"323 457 LINE",
"307 391 LINE",
"290 321 LINE",
"277 253 LINE",
"276 200 LINE",
"289 171 LINE",
"308 175 LINE",
"308 176 LINE",
"315 220 LINE",
"324 284 LINE",
"334 358 LINE",
"344 422 LINE",
"350 466 LINE",
"350 468 LINE"
);
},
{
closed = 1;
nodes = (
"325 583 LINE",
"325 576 LINE",
"325 554 LINE",
"328 532 LINE",
"337 514 LINE",
"346 509 LINE",
"361 519 LINE",
"379 553 LINE",
"390 594 LINE",
"394 640 LINE",
"395 683 LINE",
"394 721 LINE",
"394 733 LINE",
"392 733 LINE",
"379 733 LINE",
"363 731 LINE",
"349 730 LINE",
"346 730 LINE",
"344 730 LINE",
"337 722 LINE",
"337 721 LINE",
"333 699 LINE",
"329 665 LINE",
"326 634 LINE",
"325 602 LINE"
);
},
{
closed = 1;
nodes = (
"211 641 LINE",
"211 633 LINE",
"212 619 LINE",
"218 609 LINE",
"230 600 LINE",
"241 595 LINE",
"241 595 LINE",
"246 591 LINE",
"253 586 LINE",
"259 583 LINE",
"261 585 LINE",
"268 590 LINE",
"276 610 LINE",
"279 635 LINE",
"279 659 LINE",
"279 667 LINE",
"279 671 LINE",
"275 683 LINE",
"268 694 LINE",
"259 701 LINE",
"255 701 LINE",
"243 701 LINE",
"226 690 LINE",
"216 672 LINE",
"211 651 LINE"
);
}
);
width = 595;
}
);
unicode = 0024;
},
{
glyphname = percent;
lastChange = "2016-09-01 06:34:15 +0000";
layers = (
{
layerId = UUID0;
paths = (
{
closed = 1;
nodes = (
"145 29 LINE",
"145 48 LINE",
"175 120 LINE",
"226 211 LINE",
"293 314 LINE",
"363 416 LINE",
"433 510 LINE",
"490 582 LINE",
"532 625 LINE",
"538 625 LINE",
"543 625 LINE",
"547 616 LINE",
"549 607 LINE",
"548 597 LINE",
"548 595 LINE",
"524 556 LINE",
"470 491 LINE",
"416 426 LINE",
"366 354 LINE",
"346 307 LINE",
"340 298 LINE",
"313 244 LINE",
"277 175 LINE",
"238 101 LINE",
"201 39 LINE",
"171 -1 LINE",
"163 -1 LINE",
"151 -1 LINE",
"145 19 LINE"
);
},
{
closed = 1;
nodes = (
"364 100 LINE",
"364 118 LINE",
"375 163 LINE",
"396 209 LINE",
"424 253 LINE",
"459 287 LINE",
"498 308 LINE",
"519 308 LINE",
"541 308 LINE",
"580 284 LINE",
"609 247 LINE",
"625 202 LINE",
"625 181 LINE",
"625 152 LINE",
"598 91 LINE",
"553 40 LINE",
"496 8 LINE",
"466 8 LINE",
"445 8 LINE",
"407 19 LINE",
"379 42 LINE",
"364 76 LINE"
);
},
{
closed = 1;
nodes = (
"413 76 LINE",
"421 68 LINE",
"440 66 LINE",
"451 66 LINE",
"473 66 LINE",
"515 83 LINE",
"547 113 LINE",
"568 153 LINE",
"568 175 LINE",
"568 185 LINE",
"562 211 LINE",
"550 234 LINE",
"532 250 LINE",
"519 250 LINE",
"496 250 LINE",
"457 217 LINE",
"428 169 LINE",
"412 118 LINE",
"412 100 LINE",
"412 97 LINE",
"412 80 LINE"
);
},
{
closed = 1;
nodes = (
"9 413 LINE",
"9 438 LINE",
"28 490 LINE",
"61 531 LINE",
"107 557 LINE",
"133 557 LINE",
"157 557 LINE",
"205 538 LINE",
"245 505 LINE",
"270 460 LINE",
"270 433 LINE",
"270 406 LINE",
"247 357 LINE",
"210 319 LINE",
"161 296 LINE",
"135 296 LINE",
"113 296 LINE",
"68 315 LINE",
"32 347 LINE",
"9 389 LINE"
);
},
{
closed = 1;
nodes = (
"67 418 LINE",
"67 409 LINE",
"70 386 LINE",
"79 365 LINE",
"94 349 LINE",
"106 346 LINE",
"120 342 LINE",
"160 352 LINE",
"196 374 LINE",
"221 405 LINE",
"221 422 LINE",
"221 437 LINE",
"207 465 LINE",
"183 487 LINE",
"154 499 LINE",
"139 499 LINE",
"123 499 LINE",
"96 484 LINE",
"77 460 LINE",
"67 432 LINE"
);
}
);
width = 652;
}
);
unicode = 0025;
},
{
glyphname = ampersand;
lastChange = "2016-09-01 06:34:15 +0000";
layers = (
{
layerId = UUID0;
paths = (
{
closed = 1;
nodes = (
"10 76 LINE",
"10 127 LINE",
"46 214 LINE",
"92 295 LINE",
"136 376 LINE",
"145 422 LINE",
"145 424 LINE",
"145 442 LINE",
"145 461 LINE",
"145 478 LINE",
"145 480 LINE",
"145 490 LINE",
"148 542 LINE",
"151 601 LINE",
"154 652 LINE",
"154 663 LINE",
"154 667 LINE",
"159 682 LINE",
"166 697 LINE",
"177 709 LINE",
"183 710 LINE",
"207 715 LINE",
"241 694 LINE",
"261 660 LINE",
"270 619 LINE",
"270 601 LINE",
"270 570 LINE",
"262 519 LINE",
"244 472 LINE",
"219 423 LINE",
"202 394 LINE",
"202 392 LINE",
"201 385 LINE",
"201 384 LINE",
"201 368 LINE",
"210 333 LINE",
"224 298 LINE",
"241 264 LINE",
"250 250 LINE",
"269 250 LINE",
"280 255 LINE",
"293 278 LINE",
"301 308 LINE",
"306 342 LINE",
"307 373 LINE",
"307 397 LINE",
"308 403 LINE",
"313 409 LINE",
"331 414 LINE",
"350 415 LINE",
"368 414 LINE",
"373 414 LINE",
"385 414 LINE",
"412 419 LINE",
"434 418 LINE",
"448 403 LINE",
"448 385 LINE",
"448 375 LINE",
"441 366 LINE",
"428 365 LINE",
"423 364 LINE",
"407 362 LINE",
"391 361 LINE",
"376 359 LINE",
"371 360 LINE",
"358 331 LINE",
"346 284 LINE",
"337 243 LINE",
"324 204 LINE",
"308 183 LINE",
"307 181 LINE",
"307 178 LINE",
"307 176 LINE",
"307 172 LINE",
"307 159 LINE",
"329 117 LINE",
"358 73 LINE",
"388 36 LINE",
"394 26 LINE",
"390 16 LINE",
"373 15 LINE",
"364 16 LINE",
"279 115 LINE",
"277 115 LINE",
"275 115 LINE",
"274 115 LINE",
"274 116 LINE",
"263 116 LINE",
"243 99 LINE",
"223 72 LINE",
"199 42 LINE",
"170 15 LINE",
"134 -2 LINE",
"110 -2 LINE",
"108 -2 LINE",
"96 -2 LINE",
"82 -1 LINE",
"70 0 LINE",
"67 0 LINE",
"60 6 LINE",
"40 24 LINE",
"22 44 LINE",
"10 66 LINE"
);
},
{
closed = 1;
nodes = (
"67 96 LINE",
"67 91 LINE",
"73 73 LINE",
"84 58 LINE",
"98 47 LINE",
"106 49 LINE",
"120 51 LINE",
"163 79 LINE",
"203 117 LINE",
"232 157 LINE",
"232 172 LINE",
"232 187 LINE",
"217 221 LINE",
"198 256 LINE",
"178 292 LINE",
"173 307 LINE",
"161 305 LINE",
"136 275 LINE",
"112 232 LINE",
"91 181 LINE",
"76 135 LINE",
"67 100 LINE"
);
}
);
width = 468;
}
);
unicode = 0026;
},
{
glyphname = quotesingle;
lastChange = "2016-09-01 06:34:15 +0000";
layers = (
{
layerId = UUID0;
paths = (
{
closed = 1;
nodes = (
"19 712 LINE",
"19 718 LINE",
"20 727 LINE",
"24 734 LINE",
"31 742 LINE",
"38 748 LINE",
"49 742 LINE",
"66 712 LINE",
"77 673 LINE",
"83 625 LINE",
"87 581 LINE",
"88 543 LINE",
"88 531 LINE",
"88 517 LINE",
"83 499 LINE",
"67 499 LINE",
"55 499 LINE",
"37 529 LINE",
"27 574 LINE",
"22 628 LINE",
"19 676 LINE",
"19 709 LINE"
);
}
);
width = 106;
}
);
unicode = 0027;
},
{
glyphname = parenleft;
lastChange = "2016-09-01 06:34:15 +0000";
layers = (
{
layerId = UUID0;
paths = (
{
closed = 1;
nodes = (
"19 196 LINE",
"19 229 LINE",
"50 313 LINE",
"102 403 LINE",
"169 488 LINE",
"244 555 LINE",
"321 596 LINE",
"355 596 LINE",
"364 596 LINE",
"385 588 LINE",
"402 574 LINE",
"414 557 LINE",
"414 548 LINE",
"414 541 LINE",
"408 517 LINE",
"398 517 LINE",
"391 517 LINE",
"381 524 LINE",
"370 532 LINE",
"359 538 LINE",
"352 538 LINE",
"317 538 LINE",
"250 502 LINE",
"188 442 LINE",
"136 365 LINE",
"97 284 LINE",
"76 207 LINE",
"76 177 LINE",
"76 129 LINE",
"109 68 LINE",
"165 32 LINE",
"238 15 LINE",
"279 10 LINE",
"286 7 LINE",
"289 -3 LINE",
"289 -9 LINE",
"289 -23 LINE",
"268 -36 LINE",
"241 -41 LINE",
"214 -39 LINE",
"207 -39 LINE",
"160 -39 LINE",
"89 3 LINE",
"43 70 LINE",
"19 154 LINE"
);
}
);
width = 433;
}
);
unicode = 0028;
},
{
glyphname = parenright;
lastChange = "2016-09-01 06:34:15 +0000";
layers = (
{
layerId = UUID0;
paths = (
{
closed = 1;
nodes = (
"9 -20 LINE",
"9 -12 LINE",
"40 20 LINE",
"88 67 LINE",
"143 125 LINE",
"190 193 LINE",
"222 268 LINE",
"222 307 LINE",
"222 345 LINE",
"200 414 LINE",
"163 477 LINE",
"114 532 LINE",
"87 556 LINE",
"80 553 LINE",
"66 556 LINE",
"55 565 LINE",
"47 579 LINE",
"47 586 LINE",
"47 601 LINE",
"65 606 LINE",
"78 606 LINE",
"108 606 LINE",
"161 577 LINE",
"206 529 LINE",
"242 467 LINE",
"267 403 LINE",
"280 341 LINE",
"280 317 LINE",
"280 293 LINE",
"258 219 LINE",
"220 136 LINE",
"171 51 LINE",
"116 -17 LINE",
"59 -59 LINE",
"34 -59 LINE",
"28 -59 LINE",
"19 -50 LINE",
"12 -38 LINE",
"9 -24 LINE"
);
}
);
width = 298;
}
);
unicode = 0029;
},
{
glyphname = asterisk;
lastChange = "2016-09-01 06:34:15 +0000";
layers = (
{
layerId = UUID0;
paths = (
{
closed = 1;
nodes = (
"183 403 LINE",
"182 403 LINE",
"177 399 LINE",
"171 393 LINE",
"165 386 LINE",
"163 384 LINE",
"160 379 LINE",
"143 355 LINE",
"125 328 LINE",
"109 303 LINE",
"106 298 LINE",
"104 296 LINE",
"96 293 LINE",
"87 290 LINE",
"79 288 LINE",
"76 288 LINE",
"72 288 LINE",
"67 294 LINE",
"66 302 LINE",
"66 310 LINE",
"66 312 LINE",
"66 325 LINE",
"74 349 LINE",
"83 372 LINE",
"91 396 LINE",
"91 409 LINE",
"82 409 LINE",
"70 407 LINE",
"61 405 LINE",
"51 403 LINE",
"42 403 LINE",
"38 403 LINE",
"28 403 LINE",
"21 407 LINE",
"17 415 LINE",
"19 422 LINE",
"22 431 LINE",
"39 445 LINE",
"61 456 LINE",
"84 461 LINE",
"92 461 LINE",
"100 461 LINE",
"106 455 LINE",
"110 447 LINE",
"114 441 LINE",
"120 441 LINE",
"123 441 LINE",
"124 441 LINE",
"125 442 LINE",
"127 443 LINE",
"134 450 LINE",
"134 451 LINE",
"134 469 LINE",
"105 501 LINE",
"71 529 LINE",
"45 554 LINE",
"49 567 LINE",
"49 568 LINE",
"64 583 LINE",
"67 586 LINE",
"70 586 LINE",
"70 586 LINE",
"71 586 LINE",
"72 586 LINE",
"72 586 LINE",
"73 586 LINE",
"74 586 LINE",
"76 586 LINE",
"172 529 LINE",
"171 534 LINE",
"171 551 LINE",
"175 567 LINE",
"184 578 LINE",
"193 578 LINE",
"194 578 LINE",
"202 577 LINE",
"202 576 LINE",
"230 529 LINE",
"244 538 LINE",
"280 568 LINE",
"319 598 LINE",
"362 622 LINE",
"384 625 LINE",
"390 616 LINE",
"394 604 LINE",
"394 595 LINE",
"394 586 LINE",
"364 559 LINE",
"324 532 LINE",
"286 508 LINE",
"279 499 LINE",
"286 500 LINE",
"315 502 LINE",
"343 498 LINE",
"364 489 LINE",
"364 480 LINE",
"364 466 LINE",
"346 455 LINE",
"325 447 LINE",
"307 436 LINE",
"307 423 LINE",
"307 408 LINE",
"321 379 LINE",
"340 349 LINE",
"359 322 LINE",
"364 307 LINE",
"363 295 LINE",
"343 279 LINE",
"331 279 LINE",
"326 279 LINE",
"324 280 LINE",
"313 288 LINE",
"301 297 LINE",
"290 305 LINE",
"288 307 LINE",
"289 285 LINE",
"271 241 LINE",
"250 230 LINE",
"244 237 LINE",
"236 268 LINE",
"229 309 LINE",
"220 352 LINE",
"208 386 LINE",
"193 406 LINE"
);
}
);
width = 422;
}
);
unicode = 002A;
},
{
glyphname = plus;
lastChange = "2016-09-01 06:34:15 +0000";
layers = (
{
layerId = UUID0;
paths = (
{
closed = 1;
nodes = (
"183 192 LINE",
"163 192 LINE",
"124 186 LINE",
"86 178 LINE",
"48 172 LINE",
"29 172 LINE",
"14 172 LINE",
"7 187 LINE",
"7 196 LINE",
"7 209 LINE",
"14 217 LINE",
"29 221 LINE",
"37 223 LINE",
"78 231 LINE",
"124 240 LINE",
"165 248 LINE",
"173 250 LINE",
"178 250 LINE",
"183 259 LINE",
"184 271 LINE",
"184 280 LINE",
"184 283 LINE",
"184 298 LINE",
"178 330 LINE",
"169 361 LINE",
"163 393 LINE",
"163 409 LINE",
"163 413 LINE",
"165 416 LINE",
"180 430 LINE",
"183 433 LINE",
"185 433 LINE",
"186 433 LINE",
"187 433 LINE",
"187 433 LINE",
"188 433 LINE",
"189 433 LINE",
"190 433 LINE",
"193 433 LINE",
"212 413 LINE",
"250 279 LINE",
"259 268 LINE",
"259 268 LINE",
"293 263 LINE",
"339 257 LINE",
"388 251 LINE",
"404 250 LINE",
"407 250 LINE",
"423 248 LINE",
"439 245 LINE",
"451 237 LINE",
"451 230 LINE",
"451 227 LINE",
"444 214 LINE",
"435 202 LINE",
"425 192 LINE",
"423 192 LINE",
"269 192 LINE",
"269 19 LINE",
"269 19 LINE",
"262 14 LINE",
"253 8 LINE",
"244 1 LINE",
"241 0 LINE",
"240 -1 LINE",
"238 -1 LINE",
"235 -1 LINE",
"224 -1 LINE",
"214 19 LINE",
"211 46 LINE",
"213 71 LINE",
"212 76 LINE",
"211 83 LINE",
"206 116 LINE",
"200 153 LINE",
"194 185 LINE",
"193 192 LINE"
);
}
);
width = 471;
}
);
unicode = 002B;
},
{
glyphname = comma;
lastChange = "2016-09-01 06:34:15 +0000";
layers = (
{
layerId = UUID0;
paths = (
{
closed = 1;
nodes = (
"9 -158 LINE",
"9 -134 LINE",
"19 -86 LINE",
"30 -36 LINE",
"40 13 LINE",
"40 38 LINE",
"40 40 LINE",
"40 52 LINE",
"39 64 LINE",
"39 74 LINE",
"39 76 LINE",
"25 76 LINE",
"19 87 LINE",
"19 95 LINE",
"19 115 LINE",
"33 145 LINE",
"55 145 LINE",
"74 145 LINE",
"92 118 LINE",
"99 80 LINE",
"97 41 LINE",
"97 29 LINE",
"97 21 LINE",
"93 -18 LINE",
"85 -68 LINE",
"73 -122 LINE",
"58 -166 LINE",
"40 -194 LINE",
"29 -194 LINE",
"22 -194 LINE",
"14 -187 LINE",
"10 -176 LINE",
"9 -164 LINE"
);
}
);
width = 134;
}
);
unicode = 002C;
},
{
glyphname = hyphen;
lastChange = "2016-09-01 06:34:15 +0000";
layers = (
{
layerId = UUID0;
paths = (
{
closed = 1;
nodes = (
"253 327 LINE",
"268 327 LINE",
"300 325 LINE",
"328 316 LINE",
"346 297 LINE",
"346 279 LINE",
"346 258 LINE",
"327 258 LINE",
"305 258 LINE",
"268 269 LINE",
"245 269 LINE",
"216 269 LINE",
"159 262 LINE",
"101 253 LINE",
"44 247 LINE",
"15 247 LINE",
"15 271 LINE",
"37 299 LINE",
"73 316 LINE",
"118 322 LINE",
"166 323 LINE",
"212 324 LINE",
"230 326 LINE",
"230 326 LINE",
"236 326 LINE",
"244 327 LINE",
"251 327 LINE"
);
}
);
width = 384;
}
);
unicode = 002D;
},
{
glyphname = period;
lastChange = "2016-09-01 06:34:15 +0000";
layers = (
{
layerId = UUID0;
paths = (
{
closed = 1;
nodes = (
"45 96 LINE",
"45 104 LINE",
"58 136 LINE",
"76 169 LINE",
"95 193 LINE",
"102 193 LINE",
"122 193 LINE",
"152 172 LINE",
"171 140 LINE",
"181 102 LINE",
"181 85 LINE",
"181 73 LINE",
"167 44 LINE",
"146 18 LINE",
"120 0 LINE",
"107 0 LINE",
"92 0 LINE",
"70 21 LINE",
"53 52 LINE",
"45 85 LINE"
);
}
);
width = 209;
}
);
unicode = 002E;
},
{
glyphname = slash;
lastChange = "2016-09-01 06:34:15 +0000";
layers = (
{
layerId = UUID0;
paths = (
{
closed = 1;
nodes = (
"10 34 LINE",
"10 47 LINE",
"23 89 LINE",
"42 133 LINE",
"61 172 LINE",
"67 183 LINE",
"231 634 LINE",
"234 648 LINE",
"240 690 LINE",
"250 730 LINE",
"266 763 LINE",
"279 768 LINE",
"288 766 LINE",
"296 756 LINE",
"299 742 LINE",
"298 728 LINE",
"298 722 LINE",
"298 707 LINE",
"280 628 LINE",
"249 521 LINE",
"208 394 LINE",
"163 266 LINE",
"118 147 LINE",
"79 55 LINE",
"47 0 LINE",
"39 0 LINE",
"26 0 LINE",
"10 23 LINE"
);
}
);
width = 317;
}
);
unicode = 002F;
},
{
glyphname = zero;
lastChange = "2016-09-01 06:34:15 +0000";
layers = (
{
layerId = UUID0;
paths = (
{
closed = 1;
nodes = (
"19 223 LINE",
"19 257 LINE",
"55 334 LINE",
"115 399 LINE",
"189 442 LINE",
"226 442 LINE",
"249 442 LINE",
"294 421 LINE",
"336 386 LINE",
"372 341 LINE",
"399 292 LINE",
"414 243 LINE",
"414 222 LINE",
"414 184 LINE",
"392 106 LINE",
"348 41 LINE",
"282 -1 LINE",
"238 -1 LINE",
"191 -1 LINE",
"112 34 LINE",
"52 95 LINE",
"19 176 LINE"
);
},
{
closed = 1;
nodes = (
"67 230 LINE",
"63 195 LINE",
"84 133 LINE",
"127 85 LINE",
"187 57 LINE",
"222 57 LINE",
"235 57 LINE",
"254 60 LINE",
"273 67 LINE",
"294 79 LINE",
"307 87 LINE",
"309 100 LINE",
"325 121 LINE",
"342 146 LINE",
"356 178 LINE",
"356 203 LINE",
"356 236 LINE",
"335 298 LINE",
"295 346 LINE",
"237 375 LINE",
"200 375 LINE",
"174 375 LINE",
"127 348 LINE",
"93 305 LINE",
"70 254 LINE"
);
}
);
width = 442;
}
);
unicode = 0030;
},
{
glyphname = one;
lastChange = "2016-09-01 06:34:15 +0000";
layers = (
{
layerId = UUID0;
paths = (
{
closed = 1;
nodes = (
"183 19 LINE",
"183 21 LINE",
"183 31 LINE",
"182 42 LINE",
"182 52 LINE",
"182 53 LINE",
"182 63 LINE",
"184 101 LINE",
"188 148 LINE",
"192 199 LINE",
"196 247 LINE",
"198 284 LINE",
"198 295 LINE",
"198 301 LINE",
"198 313 LINE",
"195 323 LINE",
"187 332 LINE",
"178 334 LINE",
"174 331 LINE",
"154 307 LINE",
"130 277 LINE",
"100 244 LINE",
"73 217 LINE",
"47 199 LINE",
"38 199 LINE",
"14 199 LINE",
"14 224 LINE",
"14 229 LINE",
"16 232 LINE",
"21 240 LINE",
"27 249 LINE",
"32 256 LINE",
"34 258 LINE",
"217 450 LINE",
"225 458 LINE",
"235 488 LINE",
"241 523 LINE",
"248 558 LINE",
"257 586 LINE",
"271 604 LINE",
"283 604 LINE",
"289 604 LINE",
"299 602 LINE",
"302 595 LINE",
"302 592 LINE",
"302 583 LINE",
"303 572 LINE",
"303 562 LINE",
"303 561 LINE",
"303 556 LINE",
"298 504 LINE",
"289 424 LINE",
"277 323 LINE",
"262 220 LINE",
"247 122 LINE",
"232 46 LINE",
"218 -1 LINE",
"212 -1 LINE",
"202 -1 LINE",
"189 7 LINE"
);
}
);
width = 326;
}
);
unicode = 0031;
},
{
glyphname = two;
lastChange = "2016-09-01 06:34:15 +0000";
layers = (
{
layerId = UUID0;
paths = (
{
closed = 1;
nodes = (
"280 30 LINE",
"244 30 LINE",
"177 19 LINE",
"140 19 LINE",
"121 19 LINE",
"77 28 LINE",
"40 49 LINE",
"13 82 LINE",
"10 106 LINE",
"7 121 LINE",
"21 140 LINE",
"42 151 LINE",
"67 154 LINE",
"77 154 LINE",
"100 154 LINE",
"145 139 LINE",
"188 121 LINE",
"232 106 LINE",
"256 106 LINE",
"277 106 LINE",
"313 134 LINE",
"342 179 LINE",
"364 235 LINE",
"378 289 LINE",
"385 337 LINE",
"385 350 LINE",
"385 364 LINE",
"378 418 LINE",
"360 470 LINE",
"331 509 LINE",
"308 509 LINE",
"287 509 LINE",
"266 479 LINE",
"254 442 LINE",
"243 408 LINE",
"231 403 LINE",
"216 414 LINE",
"211 445 LINE",
"211 460 LINE",
"211 480 LINE",
"226 515 LINE",
"254 541 LINE",
"292 556 LINE",
"313 556 LINE",
"348 556 LINE",
"397 514 LINE",
"429 452 LINE",
"444 382 LINE",
"444 355 LINE",
"444 330 LINE",
"441 290 LINE",
"432 252 LINE",
"416 211 LINE",
"404 183 LINE",
"397 178 LINE",
"377 155 LINE",
"359 129 LINE",
"346 103 LINE",
"346 96 LINE",
"346 85 LINE",
"367 75 LINE",
"397 69 LINE",
"431 65 LINE",
"461 58 LINE",
"481 43 LINE",
"481 29 LINE",
"481 19 LINE",
"463 0 LINE",
"451 0 LINE",
"429 0 LINE",
"387 9 LINE",
"344 20 LINE",
"302 30 LINE"
);
}
);
width = 509;
}
);
unicode = 0032;
},
{
glyphname = three;
lastChange = "2016-09-01 06:34:15 +0000";
layers = (
{
layerId = UUID0;
paths = (
{
closed = 1;
nodes = (
"19 125 LINE",
"19 127 LINE",
"19 128 LINE",
"19 133 LINE",
"19 151 LINE",
"37 173 LINE",
"55 173 LINE",
"61 173 LINE",
"91 137 LINE",
"139 93 LINE",
"209 57 LINE",
"256 57 LINE",
"274 57 LINE",
"310 62 LINE",
"338 76 LINE",
"356 100 LINE",
"356 119 LINE",
"356 161 LINE",
"313 215 LINE",
"249 250 LINE",
"173 268 LINE",
"109 283 LINE",
"66 298 LINE",
"66 312 LINE",
"66 313 LINE",
"67 315 LINE",
"67 316 LINE",
"67 317 LINE",
"69 320 LINE",
"84 334 LINE",
"87 337 LINE",
"97 339 LINE",
"137 346 LINE",
"184 357 LINE",
"232 373 LINE",
"272 394 LINE",
"298 423 LINE",
"298 442 LINE",
"298 457 LINE",
"274 476 LINE",
"243 487 LINE",
"210 490 LINE",
"200 490 LINE",
"190 490 LINE",
"152 489 LINE",
"115 484 LINE",
"87 477 LINE",
"87 471 LINE",
"87 449 LINE",
"64 449 LINE",
"37 471 LINE",
"37 494 LINE",
"37 504 LINE",
"49 520 LINE",
"67 532 LINE",
"87 538 LINE",
"96 538 LINE",
"241 538 LINE",
"264 538 LINE",
"303 517 LINE",
"331 484 LINE",
"346 442 LINE",
"346 421 LINE",
"346 400 LINE",
"319 372 LINE",
"286 349 LINE",
"258 328 LINE",
"258 312 LINE",
"258 311 LINE",
"259 308 LINE",
"259 307 LINE",
"290 296 LINE",
"346 259 LINE",
"389 209 LINE",
"414 149 LINE",
"414 115 LINE",
"414 85 LINE",
"387 40 LINE",
"344 13 LINE",
"291 -1 LINE",
"265 -1 LINE",
"240 1 LINE",
"195 6 LINE",
"141 29 LINE",
"70 79 LINE"
);
}
);
width = 442;
}
);
unicode = 0033;
},
{
glyphname = four;
lastChange = "2016-09-01 06:34:15 +0000";
layers = (
{
layerId = UUID0;
paths = (
{
closed = 1;
nodes = (
"303 222 LINE",
"289 214 LINE",
"254 191 LINE",
"216 171 LINE",
"177 160 LINE",
"158 163 LINE",
"119 163 LINE",
"66 207 LINE",
"33 271 LINE",
"19 344 LINE",
"19 373 LINE",
"19 406 LINE",
"25 459 LINE",
"37 509 LINE",
"55 562 LINE",
"67 595 LINE",
"69 606 LINE",
"88 616 LINE",
"110 617 LINE",
"127 609 LINE",
"126 600 LINE",
"126 574 LINE",
"107 520 LINE",
"85 465 LINE",
"66 408 LINE",
"66 379 LINE",
"66 358 LINE",
"77 308 LINE",
"100 266 LINE",
"136 238 LINE",
"161 238 LINE",
"195 238 LINE",
"250 271 LINE",
"295 320 LINE",
"328 378 LINE",
"351 427 LINE",
"363 460 LINE",
"364 460 LINE",
"388 460 LINE",
"403 445 LINE",
"403 430 LINE",
"403 410 LINE",
"394 360 LINE",
"382 307 LINE",
"373 257 LINE",
"373 236 LINE",
"373 212 LINE",
"380 164 LINE",
"388 116 LINE",
"394 69 LINE",
"394 46 LINE",
"394 26 LINE",
"370 -2 LINE",
"349 -2 LINE",
"337 -2 LINE",
"325 31 LINE",
"321 81 LINE",
"321 139 LINE",
"319 189 LINE",
"312 222 LINE"
);
}
);
width = 422;
}
);
unicode = 0034;
},
{
glyphname = five;
lastChange = "2016-09-01 06:34:15 +0000";
layers = (
{
layerId = UUID0;
paths = (
{
closed = 1;
nodes = (
"19 145 LINE",
"17 172 LINE",
"33 210 LINE",
"52 213 LINE",
"65 173 LINE",
"62 125 LINE",
"62 115 LINE",
"88 98 LINE",
"128 85 LINE",
"175 76 LINE",
"218 69 LINE",
"250 66 LINE",
"254 66 LINE",
"287 66 LINE",
"355 78 LINE",
"409 109 LINE",
"444 160 LINE",
"444 198 LINE",
"444 240 LINE",
"414 298 LINE",
"364 336 LINE",
"300 358 LINE",
"231 371 LINE",
"163 379 LINE",
"134 384 LINE",
"128 392 LINE",
"124 405 LINE",
"124 413 LINE",
"124 415 LINE",
"125 421 LINE",
"125 422 LINE",
"130 430 LINE",
"151 471 LINE",
"176 517 LINE",
"198 559 LINE",
"202 567 LINE",
"202 568 LINE",
"205 575 LINE",
"208 584 LINE",
"211 593 LINE",
"211 595 LINE",
"211 597 LINE",
"211 604 LINE",
"211 605 LINE",
"188 605 LINE",
"188 625 LINE",
"210 650 LINE",
"244 665 LINE",
"288 672 LINE",
"331 673 LINE",
"370 673 LINE",
"384 673 LINE",
"404 673 LINE",
"452 675 LINE",
"500 670 LINE",
"542 652 LINE",
"556 634 LINE",
"556 633 LINE",
"557 630 LINE",
"557 629 LINE",
"557 625 LINE",
"550 616 LINE",
"541 610 LINE",
"532 605 LINE",
"529 605 LINE",
"526 605 LINE",
"509 608 LINE",
"490 611 LINE",
"473 614 LINE",
"471 614 LINE",
"469 614 LINE",
"442 615 LINE",
"410 616 LINE",
"378 616 LINE",
"369 616 LINE",
"362 616 LINE",
"340 616 LINE",
"317 615 LINE",
"299 614 LINE",
"298 614 LINE",
"268 605 LINE",
"265 588 LINE",
"247 547 LINE",
"226 505 LINE",
"211 466 LINE",
"211 451 LINE",
"211 450 LINE",
"211 442 LINE",
"211 442 LINE",
"266 433 LINE",
"370 395 LINE",
"451 333 LINE",
"500 241 LINE",
"500 178 LINE",
"505 140 LINE",
"469 77 LINE",
"409 30 LINE",
"336 2 LINE",
"303 0 LINE",
"280 0 LINE",
"219 2 LINE",
"156 12 LINE",
"95 31 LINE",
"48 63 LINE",
"19 110 LINE"
);
}
);
width = 586;
}
);
unicode = 0035;
},
{
glyphname = six;
lastChange = "2016-09-01 06:34:15 +0000";
layers = (
{
layerId = UUID0;
paths = (
{
closed = 1;
nodes = (
"19 212 LINE",
"19 251 LINE",
"43 340 LINE",
"88 426 LINE",
"150 506 LINE",
"223 569 LINE",
"304 610 LINE",
"346 614 LINE",
"355 615 LINE",
"382 610 LINE",
"406 598 LINE",
"423 580 LINE",
"423 567 LINE",
"423 561 LINE",
"420 547 LINE",
"414 535 LINE",
"405 526 LINE",
"398 526 LINE",
"396 526 LINE",
"382 535 LINE",
"365 546 LINE",
"350 555 LINE",
"346 556 LINE",
"341 556 LINE",
"322 556 LINE",
"271 535 LINE",
"219 498 LINE",
"169 451 LINE",
"130 400 LINE",
"106 351 LINE",
"106 331 LINE",
"106 326 LINE",
"127 334 LINE",
"159 342 LINE",
"190 346 LINE",
"221 346 LINE",
"241 346 LINE",
"280 346 LINE",
"347 320 LINE",
"395 273 LINE",
"423 208 LINE",
"423 168 LINE",
"423 121 LINE",
"381 57 LINE",
"314 17 LINE",
"232 -1 LINE",
"191 -1 LINE",
"145 -1 LINE",
"79 36 LINE",
"38 96 LINE",
"19 172 LINE"
);
},
{
closed = 1;
nodes = (
"67 192 LINE",
"80 130 LINE",
"151 70 LINE",
"206 66 LINE",
"234 66 LINE",
"290 76 LINE",
"336 102 LINE",
"365 146 LINE",
"365 180 LINE",
"365 198 LINE",
"342 240 LINE",
"307 276 LINE",
"267 299 LINE",
"249 299 LINE",
"213 299 LINE",
"145 286 LINE",
"93 259 LINE",
"64 219 LINE"
);
}
);
width = 451;
}
);
unicode = 0036;
},
{
glyphname = seven;
lastChange = "2016-09-01 06:34:15 +0000";
layers = (
{
layerId = UUID0;
paths = (
{
closed = 1;
nodes = (
"183 29 LINE",
"197 84 LINE",
"219 181 LINE",
"219 237 LINE",
"186 237 LINE",
"114 243 LINE",
"84 243 LINE",
"73 262 LINE",
"79 284 LINE",
"103 294 LINE",
"140 295 LINE",
"181 294 LINE",
"217 294 LINE",
"230 298 LINE",
"230 298 LINE",
"233 304 LINE",
"236 313 LINE",
"239 323 LINE",
"241 326 LINE",
"246 346 LINE",
"252 382 LINE",
"253 421 LINE",
"251 463 LINE",
"250 490 LINE",
"231 491 LINE",
"178 490 LINE",
"122 488 LINE",
"70 490 LINE",
"35 502 LINE",
"24 526 LINE",
"37 547 LINE",
"56 545 LINE",
"122 540 LINE",
"198 537 LINE",
"276 535 LINE",
"307 538 LINE",
"307 533 LINE",
"307 513 LINE",
"308 490 LINE",
"308 469 LINE",
"308 466 LINE",
"308 422 LINE",
"298 338 LINE",
"298 295 LINE",
"310 295 LINE",
"346 296 LINE",
"380 289 LINE",
"404 270 LINE",
"404 250 LINE",
"404 240 LINE",
"397 220 LINE",
"385 220 LINE",
"374 220 LINE",
"354 226 LINE",
"334 235 LINE",
"314 242 LINE",
"303 242 LINE",
"299 242 LINE",
"288 241 LINE",
"288 241 LINE",
"241 19 LINE",
"237 7 LINE",
"220 -1 LINE",
"211 -1 LINE",
"199 -1 LINE",
"187 18 LINE"
);
}
);
width = 422;
}
);
unicode = 0037;
},
{
glyphname = eight;
lastChange = "2016-09-01 06:34:15 +0000";
layers = (
{
layerId = UUID0;
paths = (
{
closed = 1;
nodes = (
"49 221 LINE",
"59 242 LINE",
"94 283 LINE",
"115 307 LINE",
"115 310 LINE",
"115 310 LINE",
"116 311 LINE",
"116 312 LINE",
"116 313 LINE",
"115 316 LINE",
"115 317 LINE",
"102 329 LINE",
"67 353 LINE",
"37 381 LINE",
"17 413 LINE",
"19 433 LINE",
"13 445 LINE",
"22 478 LINE",
"46 514 LINE",
"80 548 LINE",
"118 574 LINE",
"156 589 LINE",
"172 586 LINE",
"190 586 LINE",
"235 573 LINE",
"273 548 LINE",
"298 513 LINE",
"298 490 LINE",
"298 464 LINE",
"271 421 LINE",
"238 382 LINE",
"211 343 LINE",
"211 322 LINE",
"211 310 LINE",
"233 286 LINE",
"265 259 LINE",
"303 227 LINE",
"334 189 LINE",
"356 143 LINE",
"356 115 LINE",
"356 61 LINE",
"295 -1 LINE",
"241 -1 LINE",
"202 -1 LINE",
"121 35 LINE",
"63 96 LINE",
"36 176 LINE"
);
},
{
closed = 1;
nodes = (
"104 177 LINE",
"104 151 LINE",
"125 103 LINE",
"161 67 LINE",
"208 46 LINE",
"235 46 LINE",
"245 46 LINE",
"271 54 LINE",
"292 67 LINE",
"307 88 LINE",
"307 100 LINE",
"307 130 LINE",
"283 184 LINE",
"244 229 LINE",
"196 266 LINE",
"172 279 LINE",
"172 279 LINE",
"165 280 LINE",
"163 280 LINE",
"153 280 LINE",
"131 255 LINE",
"115 220 LINE",
"104 186 LINE"
);
},
{
closed = 1;
nodes = (
"67 442 LINE",
"64 427 LINE",
"85 400 LINE",
"115 376 LINE",
"147 359 LINE",
"154 355 LINE",
"158 359 LINE",
"180 380 LINE",
"204 405 LINE",
"222 430 LINE",
"222 437 LINE",
"232 446 LINE",
"241 475 LINE",
"232 502 LINE",
"201 523 LINE",
"172 524 LINE",
"152 524 LINE",
"119 508 LINE",
"93 483 LINE",
"73 454 LINE"
);
}
);
width = 384;
}
);
unicode = 0038;
},
{
glyphname = nine;
lastChange = "2016-09-01 06:34:15 +0000";
layers = (
{
layerId = UUID0;
paths = (
{
closed = 1;
nodes = (
"10 451 LINE",
"10 484 LINE",
"30 544 LINE",
"68 589 LINE",
"122 615 LINE",
"156 615 LINE",
"184 615 LINE",
"235 594 LINE",
"274 558 LINE",
"298 508 LINE",
"298 480 LINE",
"289 439 LINE",
"277 343 LINE",
"269 248 LINE",
"265 157 LINE",
"265 84 LINE",
"268 34 LINE",
"271 26 LINE",
"271 14 LINE",
"250 7 LINE",
"232 7 LINE",
"221 7 LINE",
"213 49 LINE",
"211 113 LINE",
"214 188 LINE",
"214 253 LINE",
"209 296 LINE",
"202 298 LINE",
"166 304 LINE",
"97 316 LINE",
"43 346 LINE",
"10 402 LINE"
);
},
{
closed = 1;
nodes = (
"67 459 LINE",
"67 441 LINE",
"78 403 LINE",
"100 373 LINE",
"132 354 LINE",
"153 354 LINE",
"163 354 LINE",
"184 356 LINE",
"193 364 LINE",
"193 376 LINE",
"206 423 LINE",
"220 473 LINE",
"232 514 LINE",
"232 518 LINE",
"232 528 LINE",
"217 546 LINE",
"196 559 LINE",
"172 568 LINE",
"164 568 LINE",
"115 568 LINE",
"67 507 LINE"
);
}
);
width = 308;
}
);
unicode = 0039;
},
{
glyphname = colon;
lastChange = "2016-09-01 06:34:15 +0000";
layers = (
{
layerId = UUID0;
paths = (
{
closed = 1;
nodes = (
"19 100 LINE",
"19 112 LINE",
"38 126 LINE",
"49 126 LINE",
"61 126 LINE",
"68 112 LINE",
"68 100 LINE",
"68 86 LINE",
"57 76 LINE",
"42 76 LINE",
"19 76 LINE"
);
},
{
closed = 1;
nodes = (
"19 322 LINE",
"19 330 LINE",
"23 346 LINE",
"34 346 LINE",
"43 346 LINE",
"60 334 LINE",
"72 317 LINE",
"79 297 LINE",
"76 288 LINE",
"76 286 LINE",
"62 272 LINE",
"58 268 LINE",
"56 268 LINE",
"55 268 LINE",
"53 268 LINE",
"45 268 LINE",
"32 280 LINE",
"23 297 LINE",
"19 315 LINE"
);
}
);
width = 87;
}
);
unicode = 003A;
},
{
glyphname = semicolon;
lastChange = "2016-09-01 06:34:15 +0000";
layers = (
{
layerId = UUID0;
paths = (
{
closed = 1;
nodes = (
"-15 -158 LINE",
"-15 -125 LINE",
"1 -82 LINE",
"22 -44 LINE",
"43 -2 LINE",
"49 29 LINE",
"50 39 LINE",
"50 70 LINE",
"54 104 LINE",
"64 136 LINE",
"76 145 LINE",
"97 132 LINE",
"106 89 LINE",
"106 68 LINE",
"106 52 LINE",
"100 0 LINE",
"88 -57 LINE",
"69 -114 LINE",
"46 -160 LINE",
"16 -188 LINE",
"0 -188 LINE",
"-7 -188 LINE",
"-14 -182 LINE",
"-16 -173 LINE",
"-15 -162 LINE"
);
},
{
closed = 1;
nodes = (
"19 384 LINE",
"19 396 LINE",
"40 401 LINE",
"63 396 LINE",
"80 386 LINE",
"76 384 LINE",
"85 364 LINE",
"87 337 LINE",
"80 320 LINE",
"68 310 LINE",
"62 307 LINE",
"49 307 LINE",
"30 322 LINE",
"20 343 LINE",
"17 370 LINE"
);
}
);
width = 133;
}
);
unicode = 003B;
},
{
glyphname = less;
lastChange = "2016-09-01 06:34:15 +0000";
layers = (
{
layerId = UUID0;
paths = (
{
closed = 1;
nodes = (
"77 183 LINE",
"79 184 LINE",
"107 205 LINE",
"153 236 LINE",
"209 276 LINE",
"266 316 LINE",
"318 352 LINE",
"337 364 LINE",
"347 372 LINE",
"374 388 LINE",
"402 403 LINE",
"430 417 LINE",
"442 422 LINE",
"445 421 LINE",
"453 413 LINE",
"462 404 LINE",
"469 396 LINE",
"471 394 LINE",
"471 393 LINE",
"447 375 LINE",
"409 349 LINE",
"364 319 LINE",
"323 292 LINE",
"292 271 LINE",
"289 268 LINE",
"267 253 LINE",
"218 224 LINE",
"169 191 LINE",
"124 155 LINE",
"106 134 LINE",
"108 130 LINE",
"133 121 LINE",
"169 113 LINE",
"211 106 LINE",
"248 100 LINE",
"275 96 LINE",
"279 96 LINE",
"292 94 LINE",
"343 86 LINE",
"396 70 LINE",
"435 44 LINE",
"435 24 LINE",
"435 0 LINE",
"409 0 LINE",
"398 0 LINE",
"378 7 LINE",
"357 17 LINE",
"337 27 LINE",
"327 29 LINE",
"319 31 LINE",
"279 35 LINE",
"225 41 LINE",
"162 49 LINE",
"100 58 LINE",
"46 71 LINE",
"11 86 LINE",
"-2 104 LINE",
"10 115 LINE"
);
}
);
width = 499;
}
);
unicode = 003C;
},
{
glyphname = equal;
lastChange = "2016-09-01 06:34:15 +0000";
layers = (
{
layerId = UUID0;
paths = (
{
closed = 1;
nodes = (
"19 172 LINE",
"19 175 LINE",
"27 183 LINE",
"29 183 LINE",
"72 186 LINE",
"137 190 LINE",
"197 192 LINE",
"258 193 LINE",
"295 193 LINE",
"312 193 LINE",
"368 197 LINE",
"425 193 LINE",
"472 175 LINE",
"480 154 LINE",
"442 134 LINE",
"76 134 LINE",
"64 134 LINE",
"43 136 LINE",
"28 143 LINE",
"19 158 LINE"
);
},
{
closed = 1;
nodes = (
"406 346 LINE",
"383 346 LINE",
"334 340 LINE",
"259 333 LINE",
"144 330 LINE",
"55 334 LINE",
"43 334 LINE",
"19 344 LINE",
"19 360 LINE",
"26 373 LINE",
"68 387 LINE",
"129 394 LINE",
"202 396 LINE",
"280 395 LINE",
"358 394 LINE",
"394 394 LINE",
"409 394 LINE",
"448 394 LINE",
"484 383 LINE",
"509 359 LINE",
"509 337 LINE",
"509 334 LINE",
"493 320 LINE",
"490 317 LINE",
"488 316 LINE",
"487 316 LINE",
"486 316 LINE",
"484 316 LINE",
"474 316 LINE",
"455 325 LINE",
"436 337 LINE",
"417 346 LINE"
);
}
);
width = 538;
}
);
unicode = 003D;
},
{
glyphname = greater;
lastChange = "2016-09-01 06:34:15 +0000";
layers = (
{
layerId = UUID0;
paths = (
{
closed = 1;
nodes = (
"28 34 LINE",
"31 43 LINE",
"65 73 LINE",
"116 111 LINE",
"179 154 LINE",
"239 196 LINE",
"292 238 LINE",
"322 274 LINE",
"326 301 LINE",
"308 307 LINE",
"290 308 LINE",
"237 320 LINE",
"178 341 LINE",
"118 367 LINE",
"68 397 LINE",
"34 427 LINE",
"29 442 LINE",
"29 442 LINE",
"28 450 LINE",
"28 451 LINE",
"28 464 LINE",
"47 472 LINE",
"58 472 LINE",
"74 472 LINE",
"97 457 LINE",
"117 439 LINE",
"139 418 LINE",
"154 413 LINE",
"207 394 LINE",
"327 354 LINE",
"385 346 LINE",
"400 340 LINE",
"405 322 LINE",
"405 310 LINE",
"409 292 LINE",
"397 262 LINE",
"375 237 LINE",
"348 214 LINE",
"337 202 LINE",
"331 197 LINE",
"286 163 LINE",
"225 118 LINE",
"156 69 LINE",
"97 27 LINE",
"55 -1 LINE",
"52 -1 LINE",
"35 -1 LINE",
"28 21 LINE"
);
}
);
width = 413;
}
);
unicode = 003E;
},
{
glyphname = question;
lastChange = "2016-09-01 06:34:15 +0000";
layers = (
{
layerId = UUID0;
paths = (
{
closed = 1;
nodes = (
"182 38 LINE",
"182 56 LINE",
"204 77 LINE",
"221 77 LINE",
"238 77 LINE",
"251 48 LINE",
"251 34 LINE",
"251 22 LINE",
"236 0 LINE",
"221 0 LINE",
"202 0 LINE",
"182 21 LINE"
);
},
{
closed = 1;
nodes = (
"77 384 LINE",
"77 414 LINE",
"96 470 LINE",
"124 524 LINE",
"156 577 LINE",
"184 633 LINE",
"202 691 LINE",
"202 723 LINE",
"202 775 LINE",
"145 826 LINE",
"95 826 LINE",
"76 826 LINE",
"31 805 LINE",
"20 787 LINE",
"14 788 LINE",
"9 799 LINE",
"7 811 LINE",
"9 821 LINE",
"9 823 LINE",
"9 838 LINE",
"29 862 LINE",
"59 876 LINE",
"92 883 LINE",
"106 883 LINE",
"143 883 LINE",
"201 853 LINE",
"240 802 LINE",
"260 739 LINE",
"260 706 LINE",
"260 667 LINE",
"235 586 LINE",
"196 507 LINE",
"153 433 LINE",
"135 403 LINE",
"136 399 LINE",
"143 390 LINE",
"163 382 LINE",
"199 373 LINE",
"231 370 LINE",
"236 370 LINE",
"244 362 LINE",
"249 351 LINE",
"251 339 LINE",
"251 334 LINE",
"251 325 LINE",
"238 318 LINE",
"218 315 LINE",
"199 316 LINE",
"193 316 LINE",
"178 316 LINE",
"138 321 LINE",
"102 336 LINE",
"77 362 LINE"
);
}
);
width = 279;
}
);
unicode = 003F;
},
{
glyphname = at;
lastChange = "2016-09-01 06:34:15 +0000";
layers = (
{
layerId = UUID0;
paths = (
{
closed = 1;
nodes = (
"384 0 LINE",
"301 34 LINE",
"168 135 LINE",
"73 265 LINE",
"20 424 LINE",
"19 517 LINE",
"19 564 LINE",
"46 660 LINE",
"95 748 LINE",
"163 825 LINE",
"246 881 LINE",
"340 913 LINE",
"391 913 LINE",
"424 913 LINE",
"496 895 LINE",
"571 862 LINE",
"643 818 LINE",
"707 769 LINE",
"760 716 LINE",
"778 691 LINE",
"787 677 LINE",
"799 634 LINE",
"805 589 LINE",
"807 544 LINE",
"807 529 LINE",
"807 505 LINE",
"800 447 LINE",
"785 387 LINE",
"760 330 LINE",
"724 286 LINE",
"675 259 LINE",
"643 259 LINE",
"629 259 LINE",
"602 269 LINE",
"577 286 LINE",
"556 307 LINE",
"547 317 LINE",
"533 299 LINE",
"494 262 LINE",
"449 231 LINE",
"400 211 LINE",
"375 211 LINE",
"339 211 LINE",
"282 239 LINE",
"241 286 LINE",
"220 346 LINE",
"220 379 LINE",
"220 430 LINE",
"256 526 LINE",
"321 600 LINE",
"412 644 LINE",
"466 644 LINE",
"482 644 LINE",
"541 629 LINE",
"600 601 LINE",
"643 562 LINE",
"643 538 LINE",
"643 523 LINE",
"626 497 LINE",
"614 490 LINE",
"600 514 LINE",
"568 553 LINE",
"529 581 LINE",
"482 596 LINE",
"452 596 LINE",
"407 596 LINE",
"338 558 LINE",
"292 496 LINE",
"268 418 LINE",
"268 379 LINE",
"268 355 LINE",
"280 314 LINE",
"304 285 LINE",
"343 268 LINE",
"370 268 LINE",
"389 268 LINE",
"431 286 LINE",
"469 315 LINE",
"500 349 LINE",
"509 364 LINE",
"508 367 LINE",
"506 391 LINE",
"505 424 LINE",
"508 460 LINE",
"517 490 LINE",
"533 510 LINE",
"547 510 LINE",
"561 510 LINE",
"578 490 LINE",
"586 460 LINE",
"589 424 LINE",
"589 391 LINE",
"586 367 LINE",
"586 364 LINE",
"587 362 LINE",
"602 345 LINE",
"622 327 LINE",
"644 315 LINE",
"652 317 LINE",
"680 325 LINE",
"720 377 LINE",
"746 442 LINE",
"759 506 LINE",
"759 526 LINE",
"761 582 LINE",
"725 672 LINE",
"664 744 LINE",
"583 797 LINE",
"499 835 LINE",
"416 859 LINE",
"384 864 LINE",
"322 859 LINE",
"204 797 LINE",
"112 702 LINE",
"57 583 LINE",
"57 521 LINE",
"57 468 LINE",
"89 355 LINE",
"146 250 LINE",
"225 157 LINE",
"319 86 LINE",
"424 46 LINE",
"480 46 LINE",
"517 46 LINE",
"588 61 LINE",
"658 81 LINE",
"728 97 LINE",
"763 97 LINE",
"773 79 LINE",
"750 49 LINE",
"696 25 LINE",
"617 8 LINE",
"526 -2 LINE",
"429 -3 LINE"
);
}
);
width = 835;
}
);
unicode = 0040;
},
{
glyphname = A;
lastChange = "2016-09-01 06:34:15 +0000";
layers = (
{
layerId = UUID0;
paths = (
{
closed = 1;
nodes = (
"469 23 LINE",
"469 40 LINE",
"476 75 LINE",
"484 110 LINE",
"490 145 LINE",
"490 163 LINE",
"490 191 LINE",
"486 256 LINE",
"478 285 LINE",
"449 279 LINE",
"391 282 LINE",
"331 290 LINE",
"271 298 LINE",
"241 298 LINE",
"232 298 LINE",
"194 298 LINE",
"153 295 LINE",
"119 292 LINE",
"115 288 LINE",
"106 279 LINE",
"106 278 LINE",
"105 271 LINE",
"105 261 LINE",
"104 251 LINE",
"104 248 LINE",
"104 219 LINE",
"113 160 LINE",
"124 103 LINE",
"134 47 LINE",
"134 19 LINE",
"134 10 LINE",
"119 -4 LINE",
"95 5 LINE",
"76 40 LINE",
"63 95 LINE",
"55 160 LINE",
"55 228 LINE",
"58 259 LINE",
"55 262 LINE",
"44 275 LINE",
"31 290 LINE",
"21 304 LINE",
"19 307 LINE",
"19 309 LINE",
"19 310 LINE",
"19 312 LINE",
"19 319 LINE",
"26 325 LINE",
"36 328 LINE",
"46 332 LINE",
"49 337 LINE",
"49 337 LINE",
"49 346 LINE",
"49 355 LINE",
"49 363 LINE",
"49 364 LINE",
"52 406 LINE",
"58 501 LINE",
"71 592 LINE",
"97 676 LINE",
"145 740 LINE",
"220 778 LINE",
"276 778 LINE",
"320 778 LINE",
"391 736 LINE",
"446 665 LINE",
"487 571 LINE",
"515 468 LINE",
"534 361 LINE",
"544 265 LINE",
"548 186 LINE",
"548 160 LINE",
"548 142 LINE",
"547 111 LINE",
"545 82 LINE",
"541 49 LINE",
"538 29 LINE",
"529 18 LINE",
"505 -1 LINE",
"490 -1 LINE",
"477 -1 LINE",
"469 12 LINE"
);
},
{
closed = 1;
nodes = (
"446 325 LINE",
"449 325 LINE",
"457 327 LINE",
"464 336 LINE",
"470 355 LINE",
"472 373 LINE",
"472 403 LINE",
"461 478 LINE",
"439 558 LINE",
"404 634 LINE",
"355 694 LINE",
"293 730 LINE",
"254 730 LINE",
"213 730 LINE",
"157 687 LINE",
"121 618 LINE",
"103 532 LINE",
"95 446 LINE",
"94 370 LINE",
"94 346 LINE"
);
}
);
width = 576;
}
);
unicode = 0041;
},
{
glyphname = B;
lastChange = "2016-09-01 06:34:15 +0000";
layers = (
{
layerId = UUID0;
paths = (
{
closed = 1;
nodes = (
"307 29 LINE",
"305 30 LINE",
"279 43 LINE",
"250 64 LINE",
"228 86 LINE",
"230 96 LINE",
"234 107 LINE",
"251 116 LINE",
"268 124 LINE",
"280 138 LINE",
"279 154 LINE",
"262 273 LINE",
"234 456 LINE",
"203 580 LINE",
"166 644 LINE",
"139 644 LINE",
"138 644 LINE",
"137 643 LINE",
"136 643 LINE",
"134 643 LINE",
"127 638 LINE",
"99 628 LINE",
"68 617 LINE",
"38 608 LINE",
"29 605 LINE",
"28 605 LINE",
"21 604 LINE",
"19 604 LINE",
"19 634 LINE",
"19 643 LINE",
"55 662 LINE",
"111 679 LINE",
"177 694 LINE",
"238 704 LINE",
"286 710 LINE",
"294 710 LINE",
"312 710 LINE",
"362 702 LINE",
"417 685 LINE",
"470 661 LINE",
"512 629 LINE",
"538 589 LINE",
"538 565 LINE",
"538 539 LINE",
"517 496 LINE",
"490 461 LINE",
"469 433 LINE",
"469 422 LINE",
"469 421 LINE",
"508 401 LINE",
"569 367 LINE",
"639 317 LINE",
"700 256 LINE",
"739 185 LINE",
"739 145 LINE",
"739 103 LINE",
"703 47 LINE",
"645 13 LINE",
"574 -1 LINE",
"541 -1 LINE",
"508 -1 LINE",
"457 2 LINE",
"406 9 LINE",
"348 20 LINE"
);
},
{
closed = 1;
nodes = (
"337 148 LINE",
"324 128 LINE",
"334 98 LINE",
"367 76 LINE",
"415 63 LINE",
"463 56 LINE",
"505 55 LINE",
"514 57 LINE",
"544 57 LINE",
"601 62 LINE",
"646 83 LINE",
"672 123 LINE",
"672 158 LINE",
"672 207 LINE",
"621 272 LINE",
"544 318 LINE",
"454 349 LINE",
"376 376 LINE",
"325 406 LINE",
"325 427 LINE",
"325 438 LINE",
"349 451 LINE",
"384 461 LINE",
"424 472 LINE",
"460 493 LINE",
"483 525 LINE",
"483 552 LINE",
"483 574 LINE",
"459 608 LINE",
"422 631 LINE",
"379 644 LINE",
"360 644 LINE",
"331 644 LINE",
"272 631 LINE",
"250 614 LINE",
"262 563 LINE",
"292 441 LINE",
"319 316 LINE",
"337 196 LINE"
);
}
);
width = 759;
}
);
unicode = 0042;
},
{
glyphname = C;
lastChange = "2016-09-01 06:34:15 +0000";
layers = (
{
layerId = UUID0;
paths = (
{
closed = 1;
nodes = (
"19 277 LINE",
"19 316 LINE",
"45 404 LINE",
"91 490 LINE",
"154 568 LINE",
"229 628 LINE",
"313 663 LINE",
"355 663 LINE",
"379 663 LINE",
"404 627 LINE",
"404 605 LINE",
"404 592 LINE",
"394 558 LINE",
"374 525 LINE",
"349 502 LINE",
"334 502 LINE",
"334 512 LINE",
"340 531 LINE",
"349 548 LINE",
"356 566 LINE",
"356 577 LINE",
"356 591 LINE",
"333 596 LINE",
"322 596 LINE",
"320 596 LINE",
"309 595 LINE",
"307 595 LINE",
"261 577 LINE",
"174 519 LINE",
"106 442 LINE",
"66 349 LINE",
"66 296 LINE",
"66 262 LINE",
"79 181 LINE",
"111 112 LINE",
"166 66 LINE",
"207 66 LINE",
"241 66 LINE",
"308 79 LINE",
"375 94 LINE",
"442 106 LINE",
"476 106 LINE",
"484 106 LINE",
"500 102 LINE",
"500 91 LINE",
"500 86 LINE",
"487 72 LINE",
"470 58 LINE",
"454 49 LINE",
"451 49 LINE",
"221 0 LINE",
"220 0 LINE",
"205 -1 LINE",
"202 -1 LINE",
"169 -1 LINE",
"115 25 LINE",
"75 69 LINE",
"46 126 LINE",
"27 188 LINE",
"19 250 LINE"
);
}
);
width = 529;
}
);
unicode = 0043;
},
{
glyphname = D;
lastChange = "2016-09-01 06:34:15 +0000";
layers = (
{
layerId = UUID0;
paths = (
{
closed = 1;
nodes = (
"249 61 LINE",
"249 70 LINE",
"253 87 LINE",
"264 87 LINE",
"269 87 LINE",
"310 76 LINE",
"358 62 LINE",
"403 50 LINE",
"413 49 LINE",
"418 49 LINE",
"461 49 LINE",
"552 82 LINE",
"626 142 LINE",
"673 221 LINE",
"673 267 LINE",
"673 303 LINE",
"645 372 LINE",
"598 436 LINE",
"535 490 LINE",
"465 533 LINE",
"393 563 LINE",
"360 569 LINE",
"361 505 LINE",
"379 391 LINE",
"399 286 LINE",
"410 187 LINE",
"404 136 LINE",
"404 130 LINE",
"403 117 LINE",
"399 104 LINE",
"388 96 LINE",
"379 96 LINE",
"364 88 LINE",
"349 116 LINE",
"341 173 LINE",
"339 251 LINE",
"334 336 LINE",
"326 418 LINE",
"317 451 LINE",
"316 463 LINE",
"309 502 LINE",
"299 543 LINE",
"286 577 LINE",
"279 586 LINE",
"207 586 LINE",
"121 577 LINE",
"70 565 LINE",
"47 552 LINE",
"38 547 LINE",
"37 547 LINE",
"36 547 LINE",
"34 546 LINE",
"33 546 LINE",
"31 546 LINE",
"31 547 LINE",
"30 547 LINE",
"29 547 LINE",
"28 548 LINE",
"26 555 LINE",
"23 564 LINE",
"20 574 LINE",
"19 576 LINE",
"19 580 LINE",
"19 594 LINE",
"49 613 LINE",
"92 628 LINE",
"144 637 LINE",
"189 641 LINE",
"220 643 LINE",
"221 643 LINE",
"272 643 LINE",
"388 621 LINE",
"501 577 LINE",
"604 512 LINE",
"683 427 LINE",
"730 324 LINE",
"730 264 LINE",
"730 209 LINE",
"696 121 LINE",
"636 55 LINE",
"556 10 LINE",
"466 -11 LINE",
"371 -11 LINE",
"326 0 LINE",
"317 3 LINE",
"291 13 LINE",
"266 28 LINE",
"249 49 LINE"
);
}
);
width = 759;
}
);
unicode = 0044;
},
{
glyphname = E;
lastChange = "2016-09-01 06:34:15 +0000";
layers = (
{
layerId = UUID0;
paths = (
{
closed = 1;
nodes = (
"94 569 LINE",
"89 569 LINE",
"87 570 LINE",
"91 561 LINE",
"91 556 LINE",
"91 375 LINE",
"97 367 LINE",
"145 367 LINE",
"211 374 LINE",
"285 387 LINE",
"349 398 LINE",
"391 405 LINE",
"394 403 LINE",
"397 403 LINE",
"414 405 LINE",
"433 406 LINE",
"450 407 LINE",
"453 407 LINE",
"453 383 LINE",
"400 353 LINE",
"320 337 LINE",
"227 328 LINE",
"145 322 LINE",
"89 315 LINE",
"87 307 LINE",
"81 291 LINE",
"76 252 LINE",
"75 211 LINE",
"76 170 LINE",
"76 154 LINE",
"76 149 LINE",
"76 130 LINE",
"76 109 LINE",
"76 90 LINE",
"76 87 LINE",
"81 76 LINE",
"108 67 LINE",
"139 64 LINE",
"169 66 LINE",
"175 66 LINE",
"209 66 LINE",
"277 73 LINE",
"345 80 LINE",
"412 87 LINE",
"446 87 LINE",
"451 87 LINE",
"454 86 LINE",
"462 84 LINE",
"471 80 LINE",
"478 77 LINE",
"480 76 LINE",
"482 76 LINE",
"490 69 LINE",
"490 67 LINE",
"490 49 LINE",
"448 24 LINE",
"384 9 LINE",
"307 1 LINE",
"238 -1 LINE",
"187 -1 LINE",
"181 -1 LINE",
"140 -1 LINE",
"79 13 LINE",
"39 46 LINE",
"19 103 LINE",
"19 145 LINE",
"19 184 LINE",
"30 259 LINE",
"30 299 LINE",
"30 316 LINE",
"19 337 LINE",
"19 350 LINE",
"19 355 LINE",
"21 357 LINE",
"31 373 LINE",
"34 375 LINE",
"34 595 LINE",
"34 612 LINE",
"41 628 LINE",
"67 634 LINE",
"117 632 LINE",
"202 628 LINE",
"327 625 LINE",
"415 627 LINE",
"425 622 LINE",
"446 613 LINE",
"463 600 LINE",
"473 582 LINE",
"473 569 LINE",
"473 566 LINE",
"466 558 LINE",
"463 559 LINE",
"415 578 LINE"
);
}
);
width = 538;
}
);
unicode = 0045;
},
{
glyphname = F;
lastChange = "2016-09-01 06:34:15 +0000";
layers = (
{
layerId = UUID0;
paths = (
{
closed = 1;
nodes = (
"193 19 LINE",
"187 46 LINE",
"181 82 LINE",
"179 111 LINE",
"179 135 LINE",
"178 163 LINE",
"174 200 LINE",
"169 227 LINE",
"166 247 LINE",
"145 262 LINE",
"116 263 LINE",
"85 258 LINE",
"58 258 LINE",
"41 271 LINE",
"41 289 LINE",
"41 292 LINE",
"49 299 LINE",
"52 299 LINE",
"70 301 LINE",
"104 302 LINE",
"131 312 LINE",
"148 337 LINE",
"148 361 LINE",
"140 410 LINE",
"142 482 LINE",
"135 528 LINE",
"107 545 LINE",
"70 540 LINE",
"67 540 LINE",
"47 540 LINE",
"25 539 LINE",
"7 539 LINE",
"3 539 LINE",
"1 538 LINE",
"-14 531 LINE",
"-17 530 LINE",
"-18 529 LINE",
"-19 529 LINE",
"-20 529 LINE",
"-22 529 LINE",
"-23 529 LINE",
"-24 529 LINE",
"-25 529 LINE",
"-26 530 LINE",
"-27 532 LINE",
"-34 546 LINE",
"-35 549 LINE",
"-35 553 LINE",
"-22 567 LINE",
"49 590 LINE",
"145 606 LINE",
"259 614 LINE",
"374 613 LINE",
"484 598 LINE",
"570 571 LINE",
"625 527 LINE",
"629 496 LINE",
"598 496 LINE",
"536 512 LINE",
"474 532 LINE",
"411 547 LINE",
"377 547 LINE",
"370 547 LINE",
"337 549 LINE",
"298 550 LINE",
"256 547 LINE",
"220 538 LINE",
"198 521 LINE",
"198 507 LINE",
"198 492 LINE",
"194 439 LINE",
"196 385 LINE",
"208 337 LINE",
"223 326 LINE",
"226 326 LINE",
"236 326 LINE",
"248 325 LINE",
"259 325 LINE",
"262 325 LINE",
"337 331 LINE",
"430 325 LINE",
"469 308 LINE",
"459 285 LINE",
"402 265 LINE",
"300 252 LINE",
"229 253 LINE",
"230 208 LINE",
"235 158 LINE",
"240 129 LINE",
"244 112 LINE",
"250 89 LINE",
"253 49 LINE",
"256 12 LINE",
"241 14 LINE",
"217 15 LINE",
"201 15 LINE",
"192 16 LINE"
);
}
);
width = 527;
}
);
unicode = 0046;
},
{
glyphname = G;
lastChange = "2016-09-01 06:34:15 +0000";
layers = (
{
layerId = UUID0;
paths = (
{
closed = 1;
nodes = (
"475 45 LINE",
"472 45 LINE",
"454 46 LINE",
"451 46 LINE",
"423 46 LINE",
"365 33 LINE",
"307 19 LINE",
"247 6 LINE",
"217 6 LINE",
"175 6 LINE",
"107 35 LINE",
"59 87 LINE",
"33 157 LINE",
"33 199 LINE",
"33 244 LINE",
"71 326 LINE",
"135 399 LINE",
"217 460 LINE",
"307 505 LINE",
"398 532 LINE",
"437 535 LINE",
"457 537 LINE",
"493 527 LINE",
"520 507 LINE",
"536 476 LINE",
"536 456 LINE",
"522 456 LINE",
"496 463 LINE",
"470 472 LINE",
"442 478 LINE",
"427 478 LINE",
"391 478 LINE",
"312 457 LINE",
"235 417 LINE",
"166 361 LINE",
"113 295 LINE",
"82 220 LINE",
"82 180 LINE",
"82 151 LINE",
"109 108 LINE",
"151 79 LINE",
"202 64 LINE",
"226 64 LINE",
"270 64 LINE",
"363 69 LINE",
"439 94 LINE",
"487 148 LINE",
"487 197 LINE",
"487 203 LINE",
"483 229 LINE",
"475 237 LINE",
"293 237 LINE",
"286 237 LINE",
"271 245 LINE",
"260 258 LINE",
"253 273 LINE",
"253 280 LINE",
"253 288 LINE",
"258 305 LINE",
"268 305 LINE",
"278 305 LINE",
"298 298 LINE",
"318 291 LINE",
"338 284 LINE",
"349 284 LINE",
"384 284 LINE",
"452 295 LINE",
"487 295 LINE",
"496 295 LINE",
"514 287 LINE",
"528 274 LINE",
"538 256 LINE",
"538 247 LINE",
"538 -2 LINE",
"540 -4 LINE",
"550 -12 LINE",
"560 -21 LINE",
"570 -30 LINE",
"571 -32 LINE",
"574 -38 LINE",
"567 -52 LINE",
"555 -63 LINE",
"540 -71 LINE",
"534 -71 LINE",
"513 -71 LINE",
"490 -44 LINE",
"478 -8 LINE",
"475 31 LINE"
);
}
);
width = 586;
}
);
unicode = 0047;
},
{
glyphname = H;
lastChange = "2016-09-01 06:34:15 +0000";
layers = (
{
layerId = UUID0;
paths = (
{
closed = 1;
nodes = (
"364 337 LINE",
"355 332 LINE",
"319 316 LINE",
"274 295 LINE",
"224 271 LINE",
"179 250 LINE",
"142 234 LINE",
"134 230 LINE",
"136 30 LINE",
"136 27 LINE",
"122 12 LINE",
"118 10 LINE",
"102 7 LINE",
"89 39 LINE",
"84 91 LINE",
"81 152 LINE",
"70 202 LINE",
"44 229 LINE",
"19 221 LINE",
"19 223 LINE",
"16 233 LINE",
"16 235 LINE",
"16 247 LINE",
"29 256 LINE",
"45 263 LINE",
"58 274 LINE",
"58 289 LINE",
"58 328 LINE",
"52 407 LINE",
"44 487 LINE",
"37 565 LINE",
"37 605 LINE",
"37 608 LINE",
"37 622 LINE",
"38 637 LINE",
"38 650 LINE",
"38 652 LINE",
"41 661 LINE",
"52 664 LINE",
"58 664 LINE",
"63 664 LINE",
"76 661 LINE",
"76 652 LINE",
"115 317 LINE",
"115 315 LINE",
"123 299 LINE",
"125 298 LINE",
"129 298 LINE",
"134 298 LINE",
"139 298 LINE",
"162 305 LINE",
"222 330 LINE",
"328 381 LINE",
"418 425 LINE",
"422 652 LINE",
"422 658 LINE",
"430 673 LINE",
"442 685 LINE",
"454 692 LINE",
"460 692 LINE",
"469 692 LINE",
"480 685 LINE",
"480 672 LINE",
"480 669 LINE",
"472 654 LINE",
"471 652 LINE",
"471 649 LINE",
"470 628 LINE",
"470 605 LINE",
"469 584 LINE",
"469 580 LINE",
"469 496 LINE",
"474 325 LINE",
"480 241 LINE",
"481 231 LINE",
"486 180 LINE",
"492 121 LINE",
"498 69 LINE",
"499 58 LINE",
"499 56 LINE",
"502 48 LINE",
"505 38 LINE",
"508 30 LINE",
"509 29 LINE",
"509 23 LINE",
"509 19 LINE",
"507 17 LINE",
"499 11 LINE",
"490 5 LINE",
"481 0 LINE",
"480 0 LINE",
"466 -3 LINE",
"448 27 LINE",
"438 67 LINE",
"433 107 LINE",
"433 115 LINE",
"433 116 LINE",
"432 145 LINE",
"430 188 LINE",
"427 242 LINE",
"423 295 LINE",
"418 343 LINE",
"415 360 LINE"
);
}
);
width = 538;
}
);
unicode = 0048;
},
{
glyphname = I;
lastChange = "2016-09-01 06:34:15 +0000";
layers = (
{
layerId = UUID0;
paths = (
{
closed = 1;
nodes = (
"96 38 LINE",
"91 75 LINE",
"82 156 LINE",
"73 238 LINE",
"64 319 LINE",
"58 355 LINE",
"55 370 LINE",
"40 421 LINE",
"26 478 LINE",
"15 535 LINE",
"15 559 LINE",
"27 576 LINE",
"51 556 LINE",
"75 501 LINE",
"97 416 LINE",
"117 319 LINE",
"134 218 LINE",
"146 128 LINE",
"154 58 LINE",
"154 40 LINE",
"154 34 LINE",
"154 22 LINE",
"151 11 LINE",
"143 2 LINE",
"134 0 LINE",
"128 -2 LINE",
"115 9 LINE",
"104 23 LINE",
"97 37 LINE"
);
}
);
width = 172;
}
);
unicode = 0049;
},
{
glyphname = J;
lastChange = "2016-09-01 06:34:15 +0000";
layers = (
{
layerId = UUID0;
paths = (
{
closed = 1;
nodes = (
"325 -1 LINE",
"283 7 LINE",
"213 52 LINE",
"151 111 LINE",
"94 178 LINE",
"67 211 LINE",
"58 221 LINE",
"43 241 LINE",
"30 265 LINE",
"22 295 LINE",
"22 315 LINE",
"22 333 LINE",
"49 362 LINE",
"70 363 LINE",
"82 357 LINE",
"75 344 LINE",
"70 334 LINE",
"70 329 LINE",
"70 303 LINE",
"97 242 LINE",
"140 181 LINE",
"196 125 LINE",
"253 82 LINE",
"309 57 LINE",
"331 57 LINE",
"343 57 LINE",
"358 84 LINE",
"368 125 LINE",
"373 174 LINE",
"375 218 LINE",
"375 251 LINE",
"375 256 LINE",
"375 262 LINE",
"375 282 LINE",
"374 301 LINE",
"374 316 LINE",
"374 317 LINE",
"321 692 LINE",
"333 723 LINE",
"355 717 LINE",
"376 666 LINE",
"395 581 LINE",
"411 484 LINE",
"423 385 LINE",
"430 306 LINE",
"433 257 LINE",
"431 259 LINE",
"432 244 LINE",
"431 193 LINE",
"425 135 LINE",
"412 76 LINE",
"388 29 LINE",
"351 -1 LINE"
);
}
);
width = 451;
}
);
unicode = 004A;
},
{
glyphname = K;
lastChange = "2016-09-01 06:34:15 +0000";
layers = (
{
layerId = UUID0;
paths = (
{
closed = 1;
nodes = (
"394 10 LINE",
"378 22 LINE",
"328 56 LINE",
"271 94 LINE",
"211 134 LINE",
"158 174 LINE",
"115 212 LINE",
"104 229 LINE",
"100 212 LINE",
"103 163 LINE",
"110 112 LINE",
"118 62 LINE",
"118 22 LINE",
"108 -2 LINE",
"94 -2 LINE",
"79 -2 LINE",
"61 38 LINE",
"52 100 LINE",
"48 174 LINE",
"48 240 LINE",
"49 290 LINE",
"49 298 LINE",
"47 330 LINE",
"37 400 LINE",
"27 472 LINE",
"19 541 LINE",
"19 572 LINE",
"19 574 LINE",
"22 583 LINE",
"28 592 LINE",
"37 598 LINE",
"41 598 LINE",
"50 598 LINE",
"59 586 LINE",
"64 569 LINE",
"66 552 LINE",
"67 547 LINE",
"72 532 LINE",
"76 487 LINE",
"81 437 LINE",
"85 385 LINE",
"89 360 LINE",
"102 373 LINE",
"137 420 LINE",
"179 474 LINE",
"226 529 LINE",
"274 574 LINE",
"322 601 LINE",
"346 600 LINE",
"352 593 LINE",
"346 574 LINE",
"328 550 LINE",
"301 523 LINE",
"288 509 LINE",
"267 484 LINE",
"217 432 LINE",
"169 379 LINE",
"127 329 LINE",
"115 307 LINE",
"143 268 LINE",
"214 202 LINE",
"292 142 LINE",
"375 89 LINE",
"415 63 LINE",
"427 59 LINE",
"445 43 LINE",
"455 24 LINE",
"454 7 LINE",
"441 -3 LINE",
"415 -1 LINE"
);
}
);
width = 480;
}
);
unicode = 004B;
},
{
glyphname = L;
lastChange = "2016-09-01 06:34:15 +0000";
layers = (
{
layerId = UUID0;
paths = (
{
closed = 1;
nodes = (
"19 162 LINE",
"21 197 LINE",
"26 286 LINE",
"34 375 LINE",
"44 458 LINE",
"58 520 LINE",
"75 553 LINE",
"85 548 LINE",
"100 547 LINE",
"108 506 LINE",
"105 440 LINE",
"93 356 LINE",
"82 268 LINE",
"74 181 LINE",
"76 145 LINE",
"76 135 LINE",
"83 112 LINE",
"95 92 LINE",
"114 77 LINE",
"125 76 LINE",
"326 58 LINE",
"335 57 LINE",
"337 39 LINE",
"337 34 LINE",
"337 16 LINE",
"316 4 LINE",
"298 0 LINE",
"294 0 LINE",
"273 -1 LINE",
"250 -2 LINE",
"229 -2 LINE",
"226 -2 LINE",
"179 -2 LINE",
"103 12 LINE",
"49 49 LINE",
"19 112 LINE"
);
}
);
width = 355;
}
);
unicode = 004C;
},
{
glyphname = M;
lastChange = "2016-09-01 06:34:15 +0000";
layers = (
{
layerId = UUID0;
paths = (
{
closed = 1;
nodes = (
"451 19 LINE",
"450 30 LINE",
"445 73 LINE",
"439 128 LINE",
"433 189 LINE",
"427 244 LINE",
"423 287 LINE",
"422 298 LINE",
"421 307 LINE",
"421 338 LINE",
"416 370 LINE",
"405 397 LINE",
"394 403 LINE",
"358 384 LINE",
"286 364 LINE",
"246 364 LINE",
"187 364 LINE",
"128 436 LINE",
"124 436 LINE",
"121 424 LINE",
"119 408 LINE",
"120 390 LINE",
"120 384 LINE",
"119 49 LINE",
"119 43 LINE",
"112 35 LINE",
"102 31 LINE",
"91 28 LINE",
"86 28 LINE",
"70 28 LINE",
"59 55 LINE",
"57 68 LINE",
"57 211 LINE",
"57 277 LINE",
"68 406 LINE",
"68 472 LINE",
"68 492 LINE",
"52 524 LINE",
"34 555 LINE",
"19 586 LINE",
"19 605 LINE",
"19 625 LINE",
"39 625 LINE",
"64 625 LINE",
"97 596 LINE",
"124 553 LINE",
"148 502 LINE",
"181 460 LINE",
"223 430 LINE",
"256 430 LINE",
"296 428 LINE",
"349 457 LINE",
"382 502 LINE",
"403 555 LINE",
"419 600 LINE",
"437 628 LINE",
"451 625 LINE",
"463 626 LINE",
"474 613 LINE",
"480 592 LINE",
"481 572 LINE",
"481 568 LINE",
"481 530 LINE",
"469 461 LINE",
"469 422 LINE",
"469 371 LINE",
"484 271 LINE",
"503 170 LINE",
"518 70 LINE",
"518 19 LINE",
"518 11 LINE",
"514 2 LINE",
"506 -2 LINE",
"496 -2 LINE",
"490 -2 LINE",
"477 -2 LINE",
"456 3 LINE"
);
}
);
width = 547;
}
);
unicode = 004D;
},
{
glyphname = N;
lastChange = "2016-09-01 06:34:15 +0000";
layers = (
{
layerId = UUID0;
paths = (
{
closed = 1;
nodes = (
"29 61 LINE",
"29 108 LINE",
"35 202 LINE",
"43 295 LINE",
"49 387 LINE",
"49 433 LINE",
"49 460 LINE",
"39 508 LINE",
"39 533 LINE",
"39 538 LINE",
"41 538 LINE",
"52 541 LINE",
"64 544 LINE",
"75 547 LINE",
"77 547 LINE",
"87 547 LINE",
"95 511 LINE",
"122 412 LINE",
"160 307 LINE",
"212 205 LINE",
"280 124 LINE",
"364 75 LINE",
"416 76 LINE",
"447 76 LINE",
"493 97 LINE",
"524 133 LINE",
"539 184 LINE",
"539 214 LINE",
"539 253 LINE",
"508 319 LINE",
"472 382 LINE",
"441 444 LINE",
"441 480 LINE",
"441 493 LINE",
"447 510 LINE",
"461 510 LINE",
"477 510 LINE",
"510 474 LINE",
"540 418 LINE",
"566 349 LINE",
"586 281 LINE",
"597 223 LINE",
"597 206 LINE",
"597 163 LINE",
"569 91 LINE",
"518 39 LINE",
"447 10 LINE",
"404 10 LINE",
"357 10 LINE",
"282 46 LINE",
"223 103 LINE",
"178 167 LINE",
"145 223 LINE",
"123 260 LINE",
"116 260 LINE",
"103 260 LINE",
"91 242 LINE",
"86 217 LINE",
"86 191 LINE",
"86 184 LINE",
"86 152 LINE",
"97 97 LINE",
"97 66 LINE",
"97 59 LINE",
"95 37 LINE",
"88 15 LINE",
"74 -1 LINE",
"63 -1 LINE",
"53 -1 LINE",
"40 13 LINE",
"32 33 LINE",
"29 54 LINE"
);
}
);
width = 625;
}
);
unicode = 004E;
},
{
glyphname = O;
lastChange = "2016-09-01 06:34:15 +0000";
layers = (
{
layerId = UUID0;
paths = (
{
closed = 1;
nodes = (
"19 279 LINE",
"16 322 LINE",
"43 399 LINE",
"94 457 LINE",
"166 493 LINE",
"209 496 LINE",
"284 485 LINE",
"421 431 LINE",
"526 347 LINE",
"592 235 LINE",
"596 165 LINE",
"586 113 LINE",
"523 53 LINE",
"439 19 LINE",
"345 5 LINE",
"304 -1 LINE",
"242 -1 LINE",
"137 40 LINE",
"61 112 LINE",
"19 216 LINE"
);
},
{
closed = 1;
nodes = (
"66 283 LINE",
"65 238 LINE",
"106 158 LINE",
"172 97 LINE",
"254 58 LINE",
"295 52 LINE",
"308 52 LINE",
"355 57 LINE",
"409 68 LINE",
"464 87 LINE",
"509 114 LINE",
"538 151 LINE",
"538 175 LINE",
"531 224 LINE",
"484 303 LINE",
"416 363 LINE",
"336 405 LINE",
"258 430 LINE",
"190 437 LINE",
"168 433 LINE",
"137 422 LINE",
"97 387 LINE",
"75 346 LINE",
"66 304 LINE"
);
}
);
width = 625;
}
);
unicode = 004F;
},
{
glyphname = P;
lastChange = "2016-09-01 06:34:15 +0000";
layers = (
{
layerId = UUID0;
paths = (
{
closed = 1;
nodes = (
"307 0 LINE",
"293 25 LINE",
"275 104 LINE",
"262 190 LINE",
"254 266 LINE",
"250 288 LINE",
"250 460 LINE",
"250 472 LINE",
"268 490 LINE",
"279 490 LINE",
"280 490 LINE",
"287 490 LINE",
"288 490 LINE",
"292 463 LINE",
"295 406 LINE",
"299 350 LINE",
"307 295 LINE",
"317 268 LINE",
"334 265 LINE",
"370 261 LINE",
"394 259 LINE",
"420 259 LINE",
"481 277 LINE",
"533 309 LINE",
"568 355 LINE",
"568 385 LINE",
"568 416 LINE",
"526 466 LINE",
"460 504 LINE",
"380 532 LINE",
"303 549 LINE",
"237 557 LINE",
"219 557 LINE",
"213 557 LINE",
"181 559 LINE",
"142 558 LINE",
"106 553 LINE",
"96 547 LINE",
"87 542 LINE",
"72 517 LINE",
"58 490 LINE",
"43 469 LINE",
"34 469 LINE",
"32 469 LINE",
"31 470 LINE",
"31 470 LINE",
"29 471 LINE",
"28 472 LINE",
"25 476 LINE",
"22 492 LINE",
"19 522 LINE",
"19 547 LINE",
"19 559 LINE",
"41 577 LINE",
"76 592 LINE",
"116 603 LINE",
"153 610 LINE",
"181 614 LINE",
"187 614 LINE",
"220 614 LINE",
"312 606 LINE",
"409 585 LINE",
"504 550 LINE",
"578 499 LINE",
"625 427 LINE",
"625 379 LINE",
"630 346 LINE",
"596 289 LINE",
"537 244 LINE",
"463 211 LINE",
"393 192 LINE",
"337 187 LINE",
"326 192 LINE",
"326 183 LINE",
"326 148 LINE",
"337 80 LINE",
"337 45 LINE",
"337 41 LINE",
"336 24 LINE",
"329 8 LINE",
"317 -2 LINE"
);
}
);
width = 643;
}
);
unicode = 0050;
},
{
glyphname = Q;
lastChange = "2016-09-01 06:34:15 +0000";
layers = (
{
layerId = UUID0;
paths = (
{
closed = 1;
nodes = (
"430 12 LINE",
"427 12 LINE",
"410 11 LINE",
"409 11 LINE",
"406 10 LINE",
"384 7 LINE",
"358 4 LINE",
"335 1 LINE",
"332 1 LINE",
"328 1 LINE",
"268 -4 LINE",
"157 37 LINE",
"74 115 LINE",
"25 220 LINE",
"25 280 LINE",
"25 294 LINE",
"25 342 LINE",
"61 434 LINE",
"123 506 LINE",
"208 550 LINE",
"258 550 LINE",
"291 550 LINE",
"372 517 LINE",
"455 463 LINE",
"534 391 LINE",
"595 315 LINE",
"631 238 LINE",
"631 204 LINE",
"631 177 LINE",
"614 132 LINE",
"585 95 LINE",
"546 64 LINE",
"524 50 LINE",
"524 40 LINE",
"524 22 LINE",
"545 -7 LINE",
"577 -29 LINE",
"614 -49 LINE",
"646 -67 LINE",
"669 -85 LINE",
"670 -95 LINE",
"648 -116 LINE",
"609 -116 LINE",
"571 -91 LINE",
"535 -50 LINE",
"496 -12 LINE",
"454 13 LINE"
);
},
{
closed = 1;
nodes = (
"82 280 LINE",
"79 233 LINE",
"112 154 LINE",
"175 97 LINE",
"259 66 LINE",
"304 67 LINE",
"313 67 LINE",
"334 67 LINE",
"351 73 LINE",
"361 87 LINE",
"361 102 LINE",
"357 121 LINE",
"332 161 LINE",
"312 197 LINE",
"306 228 LINE",
"320 238 LINE",
"336 238 LINE",
"370 202 LINE",
"403 155 LINE",
"435 109 LINE",
"448 97 LINE",
"449 97 LINE",
"460 97 LINE",
"462 97 LINE",
"475 97 LINE",
"516 114 LINE",
"554 140 LINE",
"582 173 LINE",
"582 189 LINE",
"582 210 LINE",
"568 251 LINE",
"546 289 LINE",
"519 323 LINE",
"505 338 LINE",
"497 346 LINE",
"472 373 LINE",
"445 397 LINE",
"424 415 LINE",
"419 415 LINE",
"418 391 LINE",
"403 347 LINE",
"390 328 LINE",
"389 328 LINE",
"386 327 LINE",
"385 327 LINE",
"383 327 LINE",
"382 327 LINE",
"381 328 LINE",
"380 328 LINE",
"372 332 LINE",
"362 337 LINE",
"354 343 LINE",
"354 343 LINE",
"372 388 LINE",
"362 443 LINE",
"325 475 LINE",
"271 487 LINE",
"223 488 LINE",
"188 483 LINE",
"189 481 LINE",
"155 469 LINE",
"113 427 LINE",
"90 373 LINE",
"82 311 LINE"
);
}
);
width = 658;
}
);
unicode = 0051;
},
{
glyphname = R;
lastChange = "2016-09-01 06:34:15 +0000";
layers = (
{
layerId = UUID0;
paths = (
{
closed = 1;
nodes = (
"198 222 LINE",
"205 177 LINE",
"223 102 LINE",
"234 46 LINE",
"229 12 LINE",
"211 7 LINE",
"209 1 LINE",
"198 28 LINE",
"182 81 LINE",
"164 155 LINE",
"147 238 LINE",
"133 325 LINE",
"124 406 LINE",
"124 472 LINE",
"130 493 LINE",
"142 502 LINE",
"161 494 LINE",
"172 474 LINE",
"175 448 LINE",
"172 437 LINE",
"173 433 LINE",
"178 411 LINE",
"184 386 LINE",
"190 364 LINE",
"192 360 LINE",
"206 361 LINE",
"261 369 LINE",
"325 382 LINE",
"391 400 LINE",
"446 424 LINE",
"481 456 LINE",
"481 475 LINE",
"481 477 LINE",
"480 484 LINE",
"480 484 LINE",
"451 517 LINE",
"394 556 LINE",
"329 575 LINE",
"257 581 LINE",
"216 581 LINE",
"186 581 LINE",
"120 580 LINE",
"65 564 LINE",
"29 522 LINE",
"29 481 LINE",
"20 481 LINE",
"6 493 LINE",
"-5 511 LINE",
"-11 530 LINE",
"-11 537 LINE",
"-11 551 LINE",
"2 576 LINE",
"22 596 LINE",
"46 613 LINE",
"58 619 LINE",
"89 625 LINE",
"139 633 LINE",
"183 637 LINE",
"228 639 LINE",
"256 639 LINE",
"283 639 LINE",
"346 630 LINE",
"409 612 LINE",
"467 583 LINE",
"512 542 LINE",
"538 489 LINE",
"538 456 LINE",
"538 427 LINE",
"502 383 LINE",
"442 351 LINE",
"369 329 LINE",
"296 312 LINE",
"232 299 LINE",
"211 292 LINE",
"262 223 LINE",
"360 127 LINE",
"446 61 LINE",
"516 19 LINE",
"559 -8 LINE",
"571 -25 LINE",
"557 -35 LINE",
"546 -48 LINE",
"496 -34 LINE",
"431 7 LINE",
"357 67 LINE",
"285 133 LINE",
"220 198 LINE"
);
}
);
width = 593;
}
);
unicode = 0052;
},
{
glyphname = S;
lastChange = "2016-09-01 06:34:15 +0000";
layers = (
{
layerId = UUID0;
paths = (
{
closed = 1;
nodes = (
"19 178 LINE",
"19 187 LINE",
"28 211 LINE",
"42 232 LINE",
"61 246 LINE",
"73 246 LINE",
"73 181 LINE",
"119 106 LINE",
"199 66 LINE",
"305 52 LINE",
"364 49 LINE",
"385 49 LINE",
"449 51 LINE",
"509 64 LINE",
"551 94 LINE",
"550 125 LINE",
"550 139 LINE",
"548 161 LINE",
"541 178 LINE",
"524 193 LINE",
"509 202 LINE",
"211 364 LINE",
"195 373 LINE",
"166 400 LINE",
"145 433 LINE",
"133 469 LINE",
"133 487 LINE",
"133 525 LINE",
"175 574 LINE",
"236 603 LINE",
"307 615 LINE",
"337 615 LINE",
"351 615 LINE",
"395 610 LINE",
"445 600 LINE",
"493 583 LINE",
"532 559 LINE",
"557 526 LINE",
"557 504 LINE",
"543 496 LINE",
"514 502 LINE",
"484 517 LINE",
"452 538 LINE",
"418 558 LINE",
"379 570 LINE",
"359 568 LINE",
"340 568 LINE",
"280 564 LINE",
"223 549 LINE",
"181 517 LINE",
"181 490 LINE",
"181 463 LINE",
"220 418 LINE",
"285 377 LINE",
"366 340 LINE",
"449 301 LINE",
"528 259 LINE",
"587 209 LINE",
"619 151 LINE",
"615 115 LINE",
"610 79 LINE",
"558 28 LINE",
"478 -1 LINE",
"379 -10 LINE",
"276 0 LINE",
"174 28 LINE",
"90 75 LINE",
"30 138 LINE"
);
}
);
width = 643;
}
);
unicode = 0053;
},
{
glyphname = T;
lastChange = "2016-09-01 06:34:15 +0000";
layers = (
{
layerId = UUID0;
paths = (
{
closed = 1;
nodes = (
"316 556 LINE",
"245 556 LINE",
"97 575 LINE",
"29 586 LINE",
"20 584 LINE",
"10 593 LINE",
"4 607 LINE",
"3 622 LINE",
"3 626 LINE",
"18 626 LINE",
"91 625 LINE",
"193 624 LINE",
"312 619 LINE",
"432 612 LINE",
"544 601 LINE",
"631 584 LINE",
"682 562 LINE",
"682 548 LINE",
"682 538 LINE",
"676 517 LINE",
"664 517 LINE",
"627 520 LINE",
"555 538 LINE",
"483 555 LINE",
"408 562 LINE",
"369 550 LINE",
"369 504 LINE",
"379 394 LINE",
"395 280 LINE",
"414 166 LINE",
"423 115 LINE",
"425 103 LINE",
"438 78 LINE",
"451 55 LINE",
"462 31 LINE",
"462 19 LINE",
"462 10 LINE",
"452 2 LINE",
"438 -1 LINE",
"422 -1 LINE",
"417 -1 LINE",
"397 -1 LINE",
"374 31 LINE",
"362 74 LINE",
"358 120 LINE",
"355 134 LINE",
"347 189 LINE",
"336 292 LINE",
"327 395 LINE",
"320 500 LINE"
);
}
);
width = 595;
}
);
unicode = 0054;
},
{
glyphname = U;
lastChange = "2016-09-01 06:34:15 +0000";
layers = (
{
layerId = UUID0;
paths = (
{
closed = 1;
nodes = (
"28 390 LINE",
"28 399 LINE",
"29 430 LINE",
"32 467 LINE",
"40 506 LINE",
"55 537 LINE",
"79 557 LINE",
"97 557 LINE",
"108 557 LINE",
"120 545 LINE",
"121 528 LINE",
"109 508 LINE",
"97 499 LINE",
"88 499 LINE",
"79 473 LINE",
"76 441 LINE",
"76 411 LINE",
"76 408 LINE",
"76 382 LINE",
"80 314 LINE",
"92 241 LINE",
"115 169 LINE",
"151 110 LINE",
"204 70 LINE",
"241 67 LINE",
"269 65 LINE",
"343 90 LINE",
"407 135 LINE",
"451 194 LINE",
"451 226 LINE",
"451 230 LINE",
"445 272 LINE",
"430 328 LINE",
"419 374 LINE",
"412 421 LINE",
"412 454 LINE",
"415 501 LINE",
"430 545 LINE",
"446 550 LINE",
"464 522 LINE",
"478 469 LINE",
"484 396 LINE",
"483 355 LINE",
"484 325 LINE",
"505 253 LINE",
"531 181 LINE",
"558 113 LINE",
"572 61 LINE",
"566 29 LINE",
"547 29 LINE",
"528 29 LINE",
"508 53 LINE",
"493 82 LINE",
"479 106 LINE",
"466 106 LINE",
"457 106 LINE",
"428 91 LINE",
"393 67 LINE",
"352 39 LINE",
"308 15 LINE",
"262 -1 LINE",
"238 -1 LINE",
"196 -1 LINE",
"131 40 LINE",
"85 106 LINE",
"54 191 LINE",
"36 277 LINE",
"28 359 LINE"
);
}
);
width = 586;
}
);
unicode = 0055;
},
{
glyphname = V;
lastChange = "2016-09-01 06:34:15 +0000";
layers = (
{
layerId = UUID0;
paths = (
{
closed = 1;
nodes = (
"19 514 LINE",
"19 526 LINE",
"34 530 LINE",
"42 530 LINE",
"61 530 LINE",
"93 486 LINE",
"120 427 LINE",
"141 367 LINE",
"149 352 LINE",
"152 346 LINE",
"169 308 LINE",
"193 256 LINE",
"218 199 LINE",
"241 147 LINE",
"258 108 LINE",
"261 102 LINE",
"267 108 LINE",
"280 152 LINE",
"295 217 LINE",
"309 294 LINE",
"324 373 LINE",
"340 446 LINE",
"355 502 LINE",
"371 533 LINE",
"379 530 LINE",
"394 535 LINE",
"406 497 LINE",
"404 430 LINE",
"390 338 LINE",
"367 241 LINE",
"337 143 LINE",
"304 63 LINE",
"270 7 LINE",
"254 -1 LINE",
"253 -1 LINE",
"242 0 LINE",
"241 0 LINE",
"235 10 LINE",
"210 59 LINE",
"182 114 LINE",
"158 163 LINE",
"154 172 LINE",
"148 185 LINE",
"123 239 LINE",
"93 306 LINE",
"61 379 LINE",
"35 447 LINE",
"19 501 LINE"
);
}
);
width = 433;
}
);
unicode = 0056;
},
{
glyphname = W;
lastChange = "2016-09-01 06:34:15 +0000";
layers = (
{
layerId = UUID0;
paths = (
{
closed = 1;
nodes = (
"331 116 LINE",
"331 116 LINE",
"330 115 LINE",
"329 115 LINE",
"327 115 LINE",
"283 76 LINE",
"229 32 LINE",
"197 11 LINE",
"183 7 LINE",
"180 7 LINE",
"142 7 LINE",
"87 51 LINE",
"49 119 LINE",
"27 205 LINE",
"15 292 LINE",
"10 368 LINE",
"10 394 LINE",
"10 397 LINE",
"10 434 LINE",
"16 476 LINE",
"33 510 LINE",
"49 510 LINE",
"56 510 LINE",
"63 472 LINE",
"68 412 LINE",
"73 334 LINE",
"81 252 LINE",
"94 174 LINE",
"115 113 LINE",
"145 76 LINE",
"168 76 LINE",
"186 76 LINE",
"219 96 LINE",
"247 124 LINE",
"270 154 LINE",
"279 163 LINE",
"285 177 LINE",
"289 214 LINE",
"291 252 LINE",
"289 286 LINE",
"289 298 LINE",
"294 312 LINE",
"307 323 LINE",
"320 319 LINE",
"332 301 LINE",
"337 288 LINE",
"342 256 LINE",
"367 178 LINE",
"411 111 LINE",
"473 66 LINE",
"514 66 LINE",
"536 66 LINE",
"583 84 LINE",
"620 115 LINE",
"644 157 LINE",
"644 181 LINE",
"644 220 LINE",
"619 292 LINE",
"590 363 LINE",
"566 434 LINE",
"566 471 LINE",
"579 499 LINE",
"610 490 LINE",
"641 439 LINE",
"669 361 LINE",
"691 280 LINE",
"702 209 LINE",
"701 192 LINE",
"701 154 LINE",
"669 85 LINE",
"614 32 LINE",
"543 0 LINE",
"505 0 LINE",
"475 0 LINE",
"418 36 LINE",
"373 80 LINE",
"339 116 LINE"
);
}
);
width = 721;
}
);
unicode = 0057;
},
{
glyphname = X;
lastChange = "2016-09-01 06:34:15 +0000";
layers = (
{
layerId = UUID0;
paths = (
{
closed = 1;
nodes = (
"20 -31 LINE",
"20 6 LINE",
"59 88 LINE",
"115 171 LINE",
"178 247 LINE",
"202 277 LINE",
"202 293 LINE",
"185 331 LINE",
"159 373 LINE",
"129 415 LINE",
"103 457 LINE",
"85 496 LINE",
"85 514 LINE",
"85 526 LINE",
"93 538 LINE",
"106 538 LINE",
"111 538 LINE",
"130 513 LINE",
"153 477 LINE",
"178 435 LINE",
"200 396 LINE",
"217 367 LINE",
"222 362 LINE",
"232 344 LINE",
"253 328 LINE",
"292 347 LINE",
"361 407 LINE",
"420 465 LINE",
"427 471 LINE",
"463 493 LINE",
"502 506 LINE",
"535 502 LINE",
"539 482 LINE",
"508 463 LINE",
"436 412 LINE",
"367 355 LINE",
"303 295 LINE",
"280 266 LINE",
"289 241 LINE",
"332 178 LINE",
"381 114 LINE",
"427 55 LINE",
"450 13 LINE",
"442 -6 LINE",
"412 2 LINE",
"386 22 LINE",
"340 76 LINE",
"298 133 LINE",
"254 187 LINE",
"231 209 LINE",
"226 209 LINE",
"220 209 LINE",
"200 190 LINE",
"177 162 LINE",
"151 127 LINE",
"128 92 LINE",
"111 63 LINE",
"106 55 LINE",
"100 49 LINE",
"84 12 LINE",
"66 -28 LINE",
"46 -60 LINE",
"39 -62 LINE",
"27 -62 LINE",
"20 -45 LINE"
);
}
);
width = 547;
}
);
unicode = 0058;
},
{
glyphname = Y;
lastChange = "2016-09-01 06:34:15 +0000";
layers = (
{
layerId = UUID0;
paths = (
{
closed = 1;
nodes = (
"202 4 LINE",
"202 7 LINE",
"202 22 LINE",
"202 39 LINE",
"202 54 LINE",
"202 57 LINE",
"202 100 LINE",
"211 167 LINE",
"226 231 LINE",
"248 298 LINE",
"260 340 LINE",
"260 342 LINE",
"261 353 LINE",
"261 355 LINE",
"262 355 LINE",
"224 373 LINE",
"168 407 LINE",
"102 457 LINE",
"47 523 LINE",
"13 605 LINE",
"18 655 LINE",
"19 655 LINE",
"28 655 LINE",
"39 657 LINE",
"49 658 LINE",
"49 658 LINE",
"56 637 LINE",
"81 588 LINE",
"115 536 LINE",
"157 487 LINE",
"205 448 LINE",
"256 425 LINE",
"283 425 LINE",
"301 465 LINE",
"322 511 LINE",
"334 538 LINE",
"337 551 LINE",
"340 565 LINE",
"342 587 LINE",
"346 609 LINE",
"346 613 LINE",
"361 622 LINE",
"379 624 LINE",
"394 618 LINE",
"394 609 LINE",
"394 554 LINE",
"370 455 LINE",
"334 361 LINE",
"294 268 LINE",
"264 169 LINE",
"251 64 LINE",
"260 4 LINE",
"254 -8 LINE",
"242 -17 LINE",
"232 -17 LINE",
"221 -17 LINE",
"208 -8 LINE"
);
}
);
width = 413;
}
);
unicode = 0059;
},
{
glyphname = Z;
lastChange = "2016-09-01 06:34:15 +0000";
layers = (
{
layerId = UUID0;
paths = (
{
closed = 1;
nodes = (
"172 72 LINE",
"172 97 LINE",
"202 141 LINE",
"238 183 LINE",
"268 224 LINE",
"268 245 LINE",
"268 250 LINE",
"268 252 LINE",
"261 266 LINE",
"259 268 LINE",
"257 268 LINE",
"247 268 LINE",
"237 269 LINE",
"227 269 LINE",
"226 269 LINE",
"196 269 LINE",
"140 257 LINE",
"109 257 LINE",
"109 271 LINE",
"119 301 LINE",
"134 307 LINE",
"167 318 LINE",
"226 326 LINE",
"274 334 LINE",
"313 345 LINE",
"341 371 LINE",
"359 418 LINE",
"363 457 LINE",
"363 493 LINE",
"328 542 LINE",
"274 573 LINE",
"210 586 LINE",
"181 586 LINE",
"157 586 LINE",
"115 574 LINE",
"77 559 LINE",
"43 547 LINE",
"27 547 LINE",
"25 547 LINE",
"19 554 LINE",
"17 556 LINE",
"17 562 LINE",
"17 587 LINE",
"52 616 LINE",
"100 631 LINE",
"149 634 LINE",
"165 634 LINE",
"211 634 LINE",
"301 618 LINE",
"370 576 LINE",
"412 504 LINE",
"412 449 LINE",
"412 433 LINE",
"406 411 LINE",
"399 391 LINE",
"394 370 LINE",
"394 355 LINE",
"394 350 LINE",
"414 345 LINE",
"444 342 LINE",
"479 340 LINE",
"509 334 LINE",
"529 322 LINE",
"529 312 LINE",
"529 311 LINE",
"529 308 LINE",
"529 307 LINE",
"522 304 LINE",
"504 294 LINE",
"484 285 LINE",
"463 279 LINE",
"456 279 LINE",
"452 279 LINE",
"447 282 LINE",
"442 285 LINE",
"438 288 LINE",
"433 288 LINE",
"394 288 LINE",
"337 250 LINE",
"294 192 LINE",
"258 124 LINE",
"241 96 LINE",
"241 94 LINE",
"238 83 LINE",
"238 82 LINE",
"238 65 LINE",
"252 57 LINE",
"267 57 LINE",
"303 57 LINE",
"373 73 LINE",
"443 91 LINE",
"513 106 LINE",
"547 106 LINE",
"560 106 LINE",
"568 92 LINE",
"568 81 LINE",
"568 69 LINE",
"562 55 LINE",
"547 49 LINE",
"484 26 LINE",
"355 -1 LINE",
"288 -1 LINE",
"284 -1 LINE",
"265 -1 LINE",
"243 0 LINE",
"224 0 LINE",
"221 0 LINE",
"196 7 LINE",
"172 47 LINE"
);
}
);
width = 586;
}
);
unicode = 005A;
},
{
glyphname = bracketleft;
lastChange = "2016-09-01 06:34:15 +0000";
layers = (
{
layerId = UUID0;
paths = (
{
closed = 1;
nodes = (
"19 576 LINE",
"19 580 LINE",
"19 591 LINE",
"30 609 LINE",
"38 614 LINE",
"82 631 LINE",
"187 669 LINE",
"298 700 LINE",
"409 721 LINE",
"457 721 LINE",
"460 721 LINE",
"462 719 LINE",
"469 705 LINE",
"471 701 LINE",
"471 696 LINE",
"471 691 LINE",
"469 690 LINE",
"462 682 LINE",
"460 682 LINE",
"418 673 LINE",
"325 650 LINE",
"230 624 LINE",
"137 593 LINE",
"96 576 LINE",
"88 576 LINE",
"88 567 LINE",
"94 529 LINE",
"105 489 LINE",
"118 451 LINE",
"125 442 LINE",
"145 310 LINE",
"166 133 LINE",
"180 26 LINE",
"193 -20 LINE",
"205 -20 LINE",
"264 -20 LINE",
"379 -8 LINE",
"437 -8 LINE",
"442 -8 LINE",
"468 -8 LINE",
"497 -9 LINE",
"523 -9 LINE",
"529 -9 LINE",
"538 -17 LINE",
"557 -41 LINE",
"557 -54 LINE",
"557 -55 LINE",
"556 -56 LINE",
"556 -56 LINE",
"556 -58 LINE",
"555 -59 LINE",
"541 -66 LINE",
"538 -67 LINE",
"508 -66 LINE",
"424 -65 LINE",
"334 -66 LINE",
"250 -71 LINE",
"221 -77 LINE",
"219 -77 LINE",
"208 -80 LINE",
"196 -83 LINE",
"185 -86 LINE",
"183 -86 LINE",
"181 -87 LINE",
"173 -90 LINE",
"163 -94 LINE",
"154 -96 LINE",
"154 -96 LINE",
"153 -96 LINE",
"146 -89 LINE",
"145 -86 LINE",
"142 -83 LINE",
"134 -61 LINE",
"134 -58 LINE",
"133 -54 LINE",
"133 -29 LINE",
"130 5 LINE",
"129 43 LINE",
"127 76 LINE",
"125 101 LINE",
"125 106 LINE",
"124 111 LINE",
"119 142 LINE",
"112 185 LINE",
"104 235 LINE",
"96 283 LINE",
"89 324 LINE",
"87 337 LINE",
"86 337 LINE",
"83 346 LINE",
"79 355 LINE",
"76 363 LINE",
"76 364 LINE",
"76 375 LINE"
);
}
);
width = 490;
}
);
unicode = 005B;
},
{
glyphname = backslash;
lastChange = "2016-09-01 06:34:15 +0000";
layers = (
{
layerId = UUID0;
paths = (
{
closed = 1;
nodes = (
"337 87 LINE",
"327 98 LINE",
"287 148 LINE",
"238 210 LINE",
"184 279 LINE",
"135 342 LINE",
"96 391 LINE",
"87 403 LINE",
"82 409 LINE",
"57 442 LINE",
"30 484 LINE",
"10 527 LINE",
"10 542 LINE",
"10 550 LINE",
"23 557 LINE",
"29 557 LINE",
"31 557 LINE",
"66 520 LINE",
"121 460 LINE",
"192 379 LINE",
"265 292 LINE",
"336 204 LINE",
"391 125 LINE",
"424 64 LINE",
"424 46 LINE",
"424 40 LINE",
"418 23 LINE",
"407 8 LINE",
"393 -2 LINE",
"385 0 LINE",
"367 4 LINE",
"353 23 LINE",
"349 49 LINE",
"345 76 LINE"
);
}
);
width = 442;
}
);
unicode = 005C;
},
{
glyphname = bracketright;
lastChange = "2016-09-01 06:34:15 +0000";
layers = (
{
layerId = UUID0;
paths = (
{
closed = 1;
nodes = (
"66 -47 LINE",
"66 -44 LINE",
"67 -30 LINE",
"67 -29 LINE",
"87 -20 LINE",
"346 -20 LINE",
"354 -20 LINE",
"355 -6 LINE",
"355 -2 LINE",
"355 48 LINE",
"358 174 LINE",
"357 312 LINE",
"352 455 LINE",
"337 589 LINE",
"310 706 LINE",
"289 748 LINE",
"275 756 LINE",
"223 768 LINE",
"161 778 LINE",
"96 788 LINE",
"43 802 LINE",
"9 818 LINE",
"9 830 LINE",
"13 841 LINE",
"52 850 LINE",
"105 849 LINE",
"166 841 LINE",
"221 832 LINE",
"262 826 LINE",
"269 826 LINE",
"304 819 LINE",
"345 784 LINE",
"367 734 LINE",
"378 675 LINE",
"385 643 LINE",
"385 624 LINE",
"389 553 LINE",
"394 460 LINE",
"400 353 LINE",
"406 243 LINE",
"412 136 LINE",
"418 43 LINE",
"421 -28 LINE",
"423 -47 LINE",
"423 -65 LINE",
"423 -73 LINE",
"412 -84 LINE",
"398 -92 LINE",
"382 -96 LINE",
"375 -96 LINE",
"106 -96 LINE",
"79 -96 LINE",
"66 -69 LINE"
);
}
);
width = 442;
}
);
unicode = 005D;
},
{
glyphname = asciicircum;
lastChange = "2016-09-01 06:34:15 +0000";
layers = (
{
layerId = UUID0;
paths = (
{
closed = 1;
nodes = (
"192 634 LINE",
"173 610 LINE",
"130 563 LINE",
"91 538 LINE",
"58 544 LINE",
"50 572 LINE",
"79 598 LINE",
"118 630 LINE",
"145 661 LINE",
"163 703 LINE",
"172 739 LINE",
"175 747 LINE",
"187 749 LINE",
"193 749 LINE",
"207 749 LINE",
"221 736 LINE",
"230 721 LINE",
"236 711 LINE",
"258 685 LINE",
"281 659 LINE",
"302 634 LINE",
"308 625 LINE",
"315 614 LINE",
"322 601 LINE",
"326 590 LINE",
"328 578 LINE",
"328 568 LINE",
"328 555 LINE",
"322 538 LINE",
"308 538 LINE",
"293 538 LINE",
"268 559 LINE",
"241 589 LINE",
"211 622 LINE"
);
}
);
width = 384;
}
);
unicode = 005E;
},
{
glyphname = underscore;
lastChange = "2016-09-01 06:34:15 +0000";
layers = (
{
layerId = UUID0;
paths = (
{
closed = 1;
nodes = (
"28 87 LINE",
"28 103 LINE",
"52 106 LINE",
"67 106 LINE",
"103 106 LINE",
"176 91 LINE",
"212 87 LINE",
"221 87 LINE",
"226 87 LINE",
"256 85 LINE",
"295 82 LINE",
"340 80 LINE",
"379 78 LINE",
"408 76 LINE",
"413 76 LINE",
"418 76 LINE",
"445 76 LINE",
"483 76 LINE",
"526 76 LINE",
"563 76 LINE",
"592 76 LINE",
"596 76 LINE",
"607 76 LINE",
"628 70 LINE",
"644 59 LINE",
"654 41 LINE",
"654 29 LINE",
"654 19 LINE",
"641 0 LINE",
"631 0 LINE",
"605 0 LINE",
"526 4 LINE",
"432 10 LINE",
"328 19 LINE",
"228 31 LINE",
"138 45 LINE",
"69 61 LINE",
"28 78 LINE"
);
}
);
width = 672;
}
);
unicode = 005F;
},
{
glyphname = grave;
lastChange = "2016-09-01 06:34:15 +0000";
layers = (
{
layerId = UUID0;
paths = (
{
closed = 1;
nodes = (
"88 548 LINE",
"100 538 LINE",
"113 526 LINE",
"124 516 LINE",
"137 504 LINE",
"149 494 LINE",
"151 493 LINE",
"159 478 LINE",
"159 475 LINE",
"159 455 LINE",
"145 446 LINE",
"130 446 LINE",
"129 446 LINE",
"121 448 LINE",
"102 463 LINE",
"68 492 LINE",
"40 519 LINE",
"32 530 LINE",
"19 556 LINE",
"22 570 LINE",
"52 566 LINE"
);
}
);
width = 178;
}
);
unicode = 0060;
},
{
glyphname = a;
lastChange = "2016-09-01 06:34:15 +0000";
layers = (
{
layerId = UUID0;
paths = (
{
closed = 1;
nodes = (
"19 169 LINE",
"19 186 LINE",
"38 230 LINE",
"76 271 LINE",
"133 305 LINE",
"213 319 LINE",
"314 307 LINE",
"376 283 LINE",
"376 283 LINE",
"375 301 LINE",
"375 302 LINE",
"375 328 LINE",
"345 382 LINE",
"298 425 LINE",
"244 452 LINE",
"219 452 LINE",
"208 452 LINE",
"193 445 LINE",
"180 437 LINE",
"167 430 LINE",
"158 430 LINE",
"157 430 LINE",
"156 431 LINE",
"155 432 LINE",
"154 433 LINE",
"151 434 LINE",
"145 441 LINE",
"145 442 LINE",
"145 460 LINE",
"158 486 LINE",
"181 502 LINE",
"210 511 LINE",
"226 511 LINE",
"267 506 LINE",
"339 466 LINE",
"400 403 LINE",
"446 323 LINE",
"477 236 LINE",
"488 147 LINE",
"483 106 LINE",
"482 106 LINE",
"472 107 LINE",
"460 108 LINE",
"451 109 LINE",
"451 109 LINE",
"430 157 LINE",
"378 215 LINE",
"327 247 LINE",
"283 261 LINE",
"269 264 LINE",
"254 264 LINE",
"213 259 LINE",
"169 250 LINE",
"124 233 LINE",
"89 209 LINE",
"67 175 LINE",
"67 154 LINE",
"67 130 LINE",
"106 97 LINE",
"160 76 LINE",
"216 67 LINE",
"233 67 LINE",
"261 67 LINE",
"315 73 LINE",
"367 82 LINE",
"420 88 LINE",
"446 88 LINE",
"448 88 LINE",
"458 88 LINE",
"469 87 LINE",
"478 87 LINE",
"480 87 LINE",
"488 84 LINE",
"490 72 LINE",
"490 66 LINE",
"490 60 LINE",
"465 46 LINE",
"425 31 LINE",
"376 17 LINE",
"331 7 LINE",
"292 0 LINE",
"283 0 LINE",
"241 0 LINE",
"148 14 LINE",
"70 51 LINE",
"19 117 LINE"
);
}
);
width = 518;
}
);
unicode = 0061;
},
{
glyphname = b;
lastChange = "2016-09-01 06:34:15 +0000";
layers = (
{
layerId = UUID0;
paths = (
{
closed = 1;
nodes = (
"29 480 LINE",
"24 524 LINE",
"10 586 LINE",
"11 626 LINE",
"35 648 LINE",
"67 652 LINE",
"69 642 LINE",
"76 586 LINE",
"83 515 LINE",
"91 438 LINE",
"100 374 LINE",
"109 333 LINE",
"114 334 LINE",
"132 334 LINE",
"167 346 LINE",
"187 346 LINE",
"217 346 LINE",
"285 335 LINE",
"352 313 LINE",
"415 278 LINE",
"462 232 LINE",
"490 172 LINE",
"490 136 LINE",
"490 90 LINE",
"445 35 LINE",
"375 7 LINE",
"293 -1 LINE",
"256 -1 LINE",
"207 -1 LINE",
"140 24 LINE",
"98 67 LINE",
"76 126 LINE",
"66 195 LINE",
"61 270 LINE",
"58 307 LINE",
"57 314 LINE",
"49 364 LINE",
"38 423 LINE",
"30 473 LINE"
);
},
{
closed = 1;
nodes = (
"125 217 LINE",
"115 174 LINE",
"145 109 LINE",
"205 69 LINE",
"282 53 LINE",
"358 64 LINE",
"419 101 LINE",
"433 134 LINE",
"433 161 LINE",
"409 205 LINE",
"369 239 LINE",
"318 264 LINE",
"265 280 LINE",
"213 289 LINE",
"193 289 LINE",
"160 289 LINE",
"125 250 LINE"
);
}
);
width = 509;
}
);
unicode = 0062;
},
{
glyphname = c;
lastChange = "2016-09-01 06:34:15 +0000";
layers = (
{
layerId = UUID0;
paths = (
{
closed = 1;
nodes = (
"19 223 LINE",
"19 267 LINE",
"53 350 LINE",
"112 414 LINE",
"190 452 LINE",
"234 452 LINE",
"253 452 LINE",
"299 443 LINE",
"339 423 LINE",
"365 390 LINE",
"365 365 LINE",
"365 361 LINE",
"360 337 LINE",
"352 313 LINE",
"341 294 LINE",
"337 294 LINE",
"337 341 LINE",
"285 404 LINE",
"235 404 LINE",
"196 404 LINE",
"137 372 LINE",
"97 320 LINE",
"76 255 LINE",
"76 221 LINE",
"76 175 LINE",
"106 115 LINE",
"158 78 LINE",
"226 60 LINE",
"301 54 LINE",
"378 56 LINE",
"413 58 LINE",
"416 58 LINE",
"430 50 LINE",
"433 49 LINE",
"433 46 LINE",
"433 45 LINE",
"433 43 LINE",
"433 43 LINE",
"433 31 LINE",
"412 16 LINE",
"380 6 LINE",
"342 1 LINE",
"305 -1 LINE",
"277 -1 LINE",
"271 -1 LINE",
"213 -1 LINE",
"120 25 LINE",
"55 79 LINE",
"19 164 LINE"
);
}
);
width = 460;
}
);
unicode = 0063;
},
{
glyphname = d;
lastChange = "2016-09-01 06:34:15 +0000";
layers = (
{
layerId = UUID0;
paths = (
{
closed = 1;
nodes = (
"19 227 LINE",
"19 264 LINE",
"37 346 LINE",
"79 415 LINE",
"142 461 LINE",
"187 461 LINE",
"211 461 LINE",
"260 447 LINE",
"311 421 LINE",
"366 385 LINE",
"397 365 LINE",
"400 405 LINE",
"387 490 LINE",
"365 571 LINE",
"342 645 LINE",
"331 703 LINE",
"340 741 LINE",
"360 746 LINE",
"387 727 LINE",
"426 653 LINE",
"454 557 LINE",
"472 448 LINE",
"484 336 LINE",
"491 229 LINE",
"499 141 LINE",
"506 78 LINE",
"513 65 LINE",
"513 49 LINE",
"490 41 LINE",
"478 41 LINE",
"467 41 LINE",
"454 55 LINE",
"445 76 LINE",
"439 101 LINE",
"431 122 LINE",
"421 136 LINE",
"413 136 LINE",
"412 136 LINE",
"404 135 LINE",
"403 134 LINE",
"385 108 LINE",
"334 59 LINE",
"273 22 LINE",
"206 0 LINE",
"172 0 LINE",
"134 0 LINE",
"77 49 LINE",
"38 120 LINE",
"19 198 LINE"
);
},
{
closed = 1;
nodes = (
"81 209 LINE",
"91 173 LINE",
"107 119 LINE",
"130 85 LINE",
"162 67 LINE",
"187 67 LINE",
"220 67 LINE",
"292 105 LINE",
"354 163 LINE",
"394 232 LINE",
"394 264 LINE",
"394 267 LINE",
"394 285 LINE",
"394 288 LINE",
"340 340 LINE",
"252 385 LINE",
"181 386 LINE",
"130 354 LINE",
"96 301 LINE",
"80 238 LINE"
);
}
);
width = 538;
}
);
unicode = 0064;
},
{
glyphname = e;
lastChange = "2016-09-01 06:34:15 +0000";
layers = (
{
layerId = UUID0;
paths = (
{
closed = 1;
nodes = (
"19 268 LINE",
"19 319 LINE",
"49 415 LINE",
"109 487 LINE",
"194 529 LINE",
"250 529 LINE",
"283 525 LINE",
"331 498 LINE",
"363 457 LINE",
"377 403 LINE",
"376 373 LINE",
"376 337 LINE",
"334 280 LINE",
"270 241 LINE",
"196 220 LINE",
"163 220 LINE",
"151 220 LINE",
"127 220 LINE",
"107 228 LINE",
"95 244 LINE",
"95 260 LINE",
"95 265 LINE",
"98 272 LINE",
"112 275 LINE",
"139 273 LINE",
"163 268 LINE",
"177 268 LINE",
"231 287 LINE",
"286 317 LINE",
"326 355 LINE",
"326 375 LINE",
"326 394 LINE",
"313 433 LINE",
"287 463 LINE",
"252 481 LINE",
"230 480 LINE",
"195 477 LINE",
"138 445 LINE",
"97 394 LINE",
"76 331 LINE",
"76 298 LINE",
"76 273 LINE",
"78 220 LINE",
"91 169 LINE",
"120 124 LINE",
"175 89 LINE",
"259 66 LINE",
"321 63 LINE",
"499 75 LINE",
"483 53 LINE",
"435 25 LINE",
"380 7 LINE",
"325 0 LINE",
"302 0 LINE",
"244 0 LINE",
"142 37 LINE",
"64 107 LINE",
"19 206 LINE"
);
}
);
width = 529;
}
);
unicode = 0065;
},
{
glyphname = f;
lastChange = "2016-09-01 06:34:15 +0000";
layers = (
{
layerId = UUID0;
paths = (
{
closed = 1;
nodes = (
"337 318 LINE",
"358 318 LINE",
"356 298 LINE",
"365 286 LINE",
"346 268 LINE",
"302 259 LINE",
"236 260 LINE",
"197 268 LINE",
"197 230 LINE",
"232 164 LINE",
"274 104 LINE",
"310 48 LINE",
"310 19 LINE",
"310 7 LINE",
"295 -1 LINE",
"283 -1 LINE",
"273 -1 LINE",
"251 14 LINE",
"232 36 LINE",
"217 59 LINE",
"213 67 LINE",
"209 75 LINE",
"193 106 LINE",
"174 145 LINE",
"154 189 LINE",
"135 229 LINE",
"120 261 LINE",
"117 268 LINE",
"106 279 LINE",
"101 277 LINE",
"74 272 LINE",
"43 265 LINE",
"16 260 LINE",
"10 259 LINE",
"5 259 LINE",
"-3 259 LINE",
"-9 271 LINE",
"-9 279 LINE",
"-9 296 LINE",
"15 314 LINE",
"49 322 LINE",
"85 325 LINE",
"97 326 LINE",
"95 356 LINE",
"94 438 LINE",
"103 526 LINE",
"127 611 LINE",
"169 679 LINE",
"236 721 LINE",
"284 721 LINE",
"311 721 LINE",
"375 694 LINE",
"430 649 LINE",
"466 595 LINE",
"466 567 LINE",
"443 567 LINE",
"424 567 LINE",
"391 597 LINE",
"358 634 LINE",
"320 664 LINE",
"295 664 LINE",
"262 664 LINE",
"206 634 LINE",
"166 584 LINE",
"145 522 LINE",
"145 490 LINE",
"145 480 LINE",
"164 337 LINE",
"166 335 LINE",
"184 332 LINE",
"223 327 LINE",
"288 321 LINE"
);
}
);
width = 386;
}
);
unicode = 0066;
},
{
glyphname = g;
lastChange = "2016-09-01 06:34:15 +0000";
layers = (
{
layerId = UUID0;
paths = (
{
closed = 1;
nodes = (
"-134 -278 LINE",
"-138 -265 LINE",
"-129 -242 LINE",
"-113 -228 LINE",
"-94 -224 LINE",
"-81 -233 LINE",
"-78 -257 LINE",
"-86 -278 LINE",
"-86 -301 LINE",
"-49 -342 LINE",
"10 -377 LINE",
"79 -404 LINE",
"145 -424 LINE",
"197 -434 LINE",
"208 -434 LINE",
"233 -434 LINE",
"268 -408 LINE",
"293 -366 LINE",
"307 -313 LINE",
"316 -260 LINE",
"318 -210 LINE",
"318 -193 LINE",
"318 -185 LINE",
"315 -142 LINE",
"309 -86 LINE",
"301 -26 LINE",
"291 25 LINE",
"280 58 LINE",
"274 58 LINE",
"263 58 LINE",
"237 46 LINE",
"208 31 LINE",
"178 19 LINE",
"163 19 LINE",
"135 19 LINE",
"82 43 LINE",
"43 82 LINE",
"19 134 LINE",
"19 162 LINE",
"19 206 LINE",
"54 298 LINE",
"115 374 LINE",
"198 422 LINE",
"245 422 LINE",
"281 412 LINE",
"325 341 LINE",
"351 237 LINE",
"361 109 LINE",
"366 -23 LINE",
"369 -149 LINE",
"375 -201 LINE",
"375 -224 LINE",
"370 -287 LINE",
"358 -353 LINE",
"337 -418 LINE",
"303 -469 LINE",
"254 -500 LINE",
"222 -500 LINE",
"196 -500 LINE",
"123 -488 LINE",
"44 -462 LINE",
"-34 -425 LINE",
"-96 -375 LINE",
"-134 -314 LINE"
);
},
{
closed = 1;
nodes = (
"76 179 LINE",
"76 161 LINE",
"87 128 LINE",
"108 102 LINE",
"139 87 LINE",
"158 87 LINE",
"209 87 LINE",
"262 127 LINE",
"282 187 LINE",
"281 255 LINE",
"279 283 LINE",
"279 297 LINE",
"275 325 LINE",
"263 349 LINE",
"242 364 LINE",
"226 364 LINE",
"193 364 LINE",
"137 327 LINE",
"97 271 LINE",
"76 207 LINE"
);
}
);
width = 375;
}
);
unicode = 0067;
},
{
glyphname = h;
lastChange = "2016-09-01 06:34:15 +0000";
layers = (
{
layerId = UUID0;
paths = (
{
closed = 1;
nodes = (
"328 18 LINE",
"331 43 LINE",
"334 100 LINE",
"337 156 LINE",
"337 210 LINE",
"337 232 LINE",
"337 265 LINE",
"320 322 LINE",
"286 365 LINE",
"235 390 LINE",
"200 390 LINE",
"186 390 LINE",
"166 386 LINE",
"145 377 LINE",
"123 362 LINE",
"106 351 LINE",
"106 349 LINE",
"105 338 LINE",
"105 337 LINE",
"105 314 LINE",
"114 241 LINE",
"124 163 LINE",
"133 89 LINE",
"133 66 LINE",
"133 64 LINE",
"133 52 LINE",
"133 38 LINE",
"133 25 LINE",
"133 23 LINE",
"127 9 LINE",
"110 2 LINE",
"98 2 LINE",
"86 0 LINE",
"74 38 LINE",
"68 110 LINE",
"63 211 LINE",
"54 334 LINE",
"37 471 LINE",
"21 543 LINE",
"13 571 LINE",
"4 610 LINE",
"-4 641 LINE",
"-10 673 LINE",
"-14 697 LINE",
"-14 701 LINE",
"-14 706 LINE",
"-5 712 LINE",
"9 718 LINE",
"22 721 LINE",
"26 721 LINE",
"45 670 LINE",
"68 601 LINE",
"82 552 LINE",
"88 517 LINE",
"91 486 LINE",
"94 451 LINE",
"97 427 LINE",
"149 459 LINE",
"234 466 LINE",
"300 435 LINE",
"349 371 LINE",
"381 291 LINE",
"398 201 LINE",
"403 117 LINE",
"394 46 LINE",
"376 3 LINE",
"346 -4 LINE"
);
}
);
width = 439;
}
);
unicode = 0068;
},
{
glyphname = i;
lastChange = "2016-09-01 06:34:15 +0000";
layers = (
{
layerId = UUID0;
paths = (
{
closed = 1;
nodes = (
"63 346 LINE",
"63 350 LINE",
"63 372 LINE",
"64 396 LINE",
"64 418 LINE",
"64 422 LINE",
"59 453 LINE",
"82 453 LINE",
"93 453 LINE",
"106 443 LINE",
"112 433 LINE",
"109 380 LINE",
"124 283 LINE",
"143 189 LINE",
"160 93 LINE",
"160 41 LINE",
"160 28 LINE",
"143 -1 LINE",
"126 -1 LINE",
"113 -1 LINE",
"94 44 LINE",
"80 113 LINE",
"70 197 LINE",
"65 274 LINE",
"63 334 LINE"
);
},
{
closed = 1;
nodes = (
"12 597 LINE",
"12 609 LINE",
"25 616 LINE",
"37 616 LINE",
"43 617 LINE",
"67 598 LINE",
"82 574 LINE",
"84 553 LINE",
"68 550 LINE",
"63 550 LINE",
"48 550 LINE",
"28 553 LINE",
"17 563 LINE",
"12 581 LINE"
);
}
);
width = 179;
}
);
unicode = 0069;
},
{
glyphname = j;
lastChange = "2016-09-01 06:34:15 +0000";
layers = (
{
layerId = UUID0;
paths = (
{
closed = 1;
nodes = (
"146 -459 LINE",
"98 -446 LINE",
"10 -386 LINE",
"-60 -304 LINE",
"-107 -205 LINE",
"-113 -153 LINE",
"-113 -146 LINE",
"-113 -134 LINE",
"-111 -122 LINE",
"-103 -112 LINE",
"-94 -110 LINE",
"-81 -116 LINE",
"-56 -161 LINE",
"-29 -220 LINE",
"4 -286 LINE",
"46 -341 LINE",
"100 -377 LINE",
"134 -377 LINE",
"145 -377 LINE",
"160 -365 LINE",
"169 -347 LINE",
"172 -327 LINE",
"172 -319 LINE",
"175 -230 LINE",
"154 -56 LINE",
"121 118 LINE",
"88 291 LINE",
"81 376 LINE",
"82 383 LINE",
"83 393 LINE",
"88 400 LINE",
"98 403 LINE",
"109 403 LINE",
"119 397 LINE",
"143 339 LINE",
"167 249 LINE",
"191 134 LINE",
"211 8 LINE",
"225 -122 LINE",
"230 -244 LINE",
"225 -350 LINE",
"206 -425 LINE",
"172 -464 LINE"
);
},
{
closed = 1;
nodes = (
"29 577 LINE",
"29 581 LINE",
"44 595 LINE",
"49 597 LINE",
"63 600 LINE",
"82 587 LINE",
"94 565 LINE",
"100 540 LINE",
"100 530 LINE",
"88 520 LINE",
"64 518 LINE",
"43 532 LINE",
"29 559 LINE"
);
}
);
width = 205;
}
);
unicode = 006A;
},
{
glyphname = k;
lastChange = "2016-09-01 06:34:15 +0000";
layers = (
{
layerId = UUID0;
paths = (
{
closed = 1;
nodes = (
"49 29 LINE",
"49 31 LINE",
"52 48 LINE",
"55 67 LINE",
"58 85 LINE",
"58 87 LINE",
"58 88 LINE",
"58 106 LINE",
"59 128 LINE",
"59 151 LINE",
"59 158 LINE",
"59 164 LINE",
"59 184 LINE",
"58 205 LINE",
"58 220 LINE",
"58 221 LINE",
"55 267 LINE",
"38 370 LINE",
"19 472 LINE",
"1 570 LINE",
"-2 611 LINE",
"7 635 LINE",
"28 619 LINE",
"50 564 LINE",
"72 481 LINE",
"89 395 LINE",
"103 319 LINE",
"106 298 LINE",
"108 296 LINE",
"119 295 LINE",
"121 295 LINE",
"140 295 LINE",
"171 320 LINE",
"198 357 LINE",
"223 400 LINE",
"252 436 LINE",
"286 461 LINE",
"308 461 LINE",
"322 461 LINE",
"328 444 LINE",
"327 433 LINE",
"313 421 LINE",
"277 386 LINE",
"235 344 LINE",
"195 298 LINE",
"163 255 LINE",
"143 215 LINE",
"143 200 LINE",
"143 178 LINE",
"172 142 LINE",
"217 112 LINE",
"273 91 LINE",
"329 76 LINE",
"379 68 LINE",
"394 67 LINE",
"403 65 LINE",
"405 50 LINE",
"405 43 LINE",
"405 28 LINE",
"386 13 LINE",
"359 7 LINE",
"330 8 LINE",
"319 8 LINE",
"297 8 LINE",
"241 36 LINE",
"188 69 LINE",
"147 97 LINE",
"139 97 LINE",
"124 97 LINE",
"113 66 LINE",
"109 30 LINE",
"100 -1 LINE",
"85 -1 LINE",
"72 -1 LINE",
"49 13 LINE"
);
}
);
width = 413;
}
);
unicode = 006B;
},
{
glyphname = l;
lastChange = "2016-09-01 06:34:15 +0000";
layers = (
{
layerId = UUID0;
paths = (
{
closed = 1;
nodes = (
"41 7 LINE",
"31 79 LINE",
"25 220 LINE",
"26 361 LINE",
"30 502 LINE",
"29 572 LINE",
"29 580 LINE",
"41 586 LINE",
"49 586 LINE",
"58 586 LINE",
"72 573 LINE",
"82 554 LINE",
"87 535 LINE",
"87 529 LINE",
"93 385 LINE",
"97 195 LINE",
"93 78 LINE",
"84 22 LINE",
"70 1 LINE",
"52 5 LINE"
);
}
);
width = 123;
}
);
unicode = 006C;
},
{
glyphname = m;
lastChange = "2016-09-01 06:34:15 +0000";
layers = (
{
layerId = UUID0;
paths = (
{
closed = 1;
nodes = (
"671 35 LINE",
"671 38 LINE",
"672 48 LINE",
"672 58 LINE",
"673 67 LINE",
"673 67 LINE",
"673 70 LINE",
"676 99 LINE",
"679 131 LINE",
"682 160 LINE",
"682 163 LINE",
"680 184 LINE",
"666 253 LINE",
"637 319 LINE",
"593 367 LINE",
"563 367 LINE",
"536 367 LINE",
"477 340 LINE",
"426 297 LINE",
"393 241 LINE",
"393 211 LINE",
"393 196 LINE",
"403 168 LINE",
"414 139 LINE",
"424 110 LINE",
"424 94 LINE",
"424 82 LINE",
"415 58 LINE",
"398 58 LINE",
"380 58 LINE",
"357 100 LINE",
"337 165 LINE",
"317 239 LINE",
"286 304 LINE",
"241 346 LINE",
"206 346 LINE",
"179 346 LINE",
"137 323 LINE",
"109 285 LINE",
"95 237 LINE",
"95 212 LINE",
"95 172 LINE",
"106 95 LINE",
"106 56 LINE",
"106 42 LINE",
"100 19 LINE",
"83 19 LINE",
"72 19 LINE",
"57 30 LINE",
"47 47 LINE",
"41 67 LINE",
"39 76 LINE",
"40 118 LINE",
"37 187 LINE",
"33 250 LINE",
"28 314 LINE",
"28 350 LINE",
"28 352 LINE",
"28 362 LINE",
"29 373 LINE",
"29 382 LINE",
"29 384 LINE",
"30 385 LINE",
"37 392 LINE",
"39 394 LINE",
"43 394 LINE",
"61 394 LINE",
"77 371 LINE",
"77 355 LINE",
"94 373 LINE",
"118 392 LINE",
"141 402 LINE",
"166 404 LINE",
"184 404 LINE",
"213 404 LINE",
"259 392 LINE",
"298 369 LINE",
"331 332 LINE",
"346 307 LINE",
"347 307 LINE",
"350 307 LINE",
"351 307 LINE",
"352 307 LINE",
"370 325 LINE",
"400 353 LINE",
"439 386 LINE",
"484 414 LINE",
"529 433 LINE",
"552 433 LINE",
"586 433 LINE",
"639 405 LINE",
"681 358 LINE",
"711 299 LINE",
"731 236 LINE",
"740 174 LINE",
"740 148 LINE",
"740 138 LINE",
"739 89 LINE",
"730 38 LINE",
"710 -1 LINE",
"692 -1 LINE",
"683 -1 LINE",
"675 6 LINE",
"671 16 LINE",
"671 28 LINE"
);
}
);
width = 768;
}
);
unicode = 006D;
},
{
glyphname = n;
lastChange = "2016-09-01 06:34:15 +0000";
layers = (
{
layerId = UUID0;
paths = (
{
closed = 1;
nodes = (
"29 390 LINE",
"29 399 LINE",
"42 404 LINE",
"49 404 LINE",
"55 404 LINE",
"61 397 LINE",
"63 390 LINE",
"67 383 LINE",
"72 383 LINE",
"86 383 LINE",
"126 405 LINE",
"173 431 LINE",
"226 453 LINE",
"252 453 LINE",
"286 453 LINE",
"343 418 LINE",
"388 360 LINE",
"420 288 LINE",
"442 213 LINE",
"452 142 LINE",
"452 116 LINE",
"452 107 LINE",
"449 71 LINE",
"442 35 LINE",
"426 8 LINE",
"414 8 LINE",
"412 8 LINE",
"402 9 LINE",
"392 12 LINE",
"385 16 LINE",
"385 19 LINE",
"394 97 LINE",
"376 232 LINE",
"336 334 LINE",
"277 394 LINE",
"245 394 LINE",
"214 394 LINE",
"160 373 LINE",
"120 336 LINE",
"97 282 LINE",
"97 250 LINE",
"97 218 LINE",
"109 155 LINE",
"124 92 LINE",
"136 28 LINE",
"136 -4 LINE",
"108 -4 LINE",
"70 42 LINE",
"47 114 LINE",
"34 204 LINE",
"29 291 LINE",
"29 367 LINE"
);
}
);
width = 471;
}
);
unicode = 006E;
},
{
glyphname = o;
lastChange = "2016-09-01 06:34:15 +0000";
layers = (
{
layerId = UUID0;
paths = (
{
closed = 1;
nodes = (
"19 204 LINE",
"19 259 LINE",
"67 341 LINE",
"145 397 LINE",
"242 424 LINE",
"291 424 LINE",
"316 424 LINE",
"362 405 LINE",
"403 372 LINE",
"435 329 LINE",
"457 283 LINE",
"470 235 LINE",
"470 214 LINE",
"470 163 LINE",
"430 83 LINE",
"362 28 LINE",
"276 -1 LINE",
"231 -1 LINE",
"185 -1 LINE",
"108 28 LINE",
"51 80 LINE",
"19 157 LINE"
);
},
{
closed = 1;
nodes = (
"67 211 LINE",
"67 181 LINE",
"91 124 LINE",
"132 82 LINE",
"187 57 LINE",
"220 57 LINE",
"237 55 LINE",
"286 70 LINE",
"335 99 LINE",
"380 140 LINE",
"409 189 LINE",
"417 241 LINE",
"391 295 LINE",
"326 344 LINE",
"268 365 LINE",
"235 365 LINE",
"164 346 LINE",
"106 307 LINE",
"67 250 LINE"
);
}
);
width = 499;
}
);
unicode = 006F;
},
{
glyphname = p;
lastChange = "2016-09-01 06:34:15 +0000";
layers = (
{
layerId = UUID0;
paths = (
{
closed = 1;
nodes = (
"19 131 LINE",
"19 194 LINE",
"63 280 LINE",
"136 332 LINE",
"233 355 LINE",
"286 355 LINE",
"328 355 LINE",
"410 328 LINE",
"474 278 LINE",
"512 206 LINE",
"512 160 LINE",
"512 120 LINE",
"481 69 LINE",
"430 40 LINE",
"367 28 LINE",
"334 28 LINE",
"302 28 LINE",
"235 34 LINE",
"179 56 LINE",
"143 100 LINE",
"143 139 LINE",
"164 139 LINE",
"203 123 LINE",
"243 103 LINE",
"283 87 LINE",
"304 87 LINE",
"321 87 LINE",
"373 93 LINE",
"420 110 LINE",
"454 139 LINE",
"454 163 LINE",
"454 196 LINE",
"424 247 LINE",
"376 280 LINE",
"316 298 LINE",
"286 298 LINE",
"281 298 LINE",
"251 294 LINE",
"211 285 LINE",
"167 271 LINE",
"130 253 LINE",
"106 229 LINE",
"106 214 LINE",
"106 202 LINE",
"106 190 LINE",
"109 154 LINE",
"112 117 LINE",
"115 89 LINE",
"115 87 LINE",
"118 71 LINE",
"127 4 LINE",
"140 -79 LINE",
"155 -171 LINE",
"169 -254 LINE",
"180 -320 LINE",
"183 -335 LINE",
"183 -337 LINE",
"184 -340 LINE",
"184 -341 LINE",
"184 -342 LINE",
"183 -343 LINE",
"183 -344 LINE",
"183 -346 LINE",
"181 -349 LINE",
"166 -363 LINE",
"163 -365 LINE",
"158 -365 LINE",
"148 -365 LINE",
"126 -327 LINE",
"103 -264 LINE",
"79 -182 LINE",
"58 -95 LINE",
"40 -8 LINE",
"26 66 LINE",
"19 120 LINE"
);
}
);
width = 533;
}
);
unicode = 0070;
},
{
glyphname = q;
lastChange = "2016-09-01 06:34:15 +0000";
layers = (
{
layerId = UUID0;
paths = (
{
closed = 1;
nodes = (
"259 29 LINE",
"257 28 LINE",
"240 25 LINE",
"220 22 LINE",
"204 19 LINE",
"202 19 LINE",
"153 19 LINE",
"84 57 LINE",
"40 119 LINE",
"19 199 LINE",
"19 241 LINE",
"19 291 LINE",
"50 388 LINE",
"109 463 LINE",
"195 510 LINE",
"248 510 LINE",
"268 510 LINE",
"316 496 LINE",
"356 470 LINE",
"384 430 LINE",
"384 403 LINE",
"354 58 LINE",
"354 14 LINE",
"361 -73 LINE",
"369 -160 LINE",
"376 -248 LINE",
"376 -291 LINE",
"376 -306 LINE",
"373 -327 LINE",
"355 -327 LINE",
"339 -327 LINE",
"320 -296 LINE",
"310 -246 LINE",
"307 -182 LINE",
"306 -116 LINE",
"304 -52 LINE",
"298 -2 LINE",
"283 29 LINE",
"269 29 LINE"
);
},
{
closed = 1;
nodes = (
"66 238 LINE",
"66 209 LINE",
"84 154 LINE",
"118 112 LINE",
"167 85 LINE",
"199 85 LINE",
"222 85 LINE",
"268 93 LINE",
"288 106 LINE",
"293 136 LINE",
"296 208 LINE",
"301 282 LINE",
"313 356 LINE",
"327 391 LINE",
"327 408 LINE",
"308 434 LINE",
"280 451 LINE",
"246 460 LINE",
"230 460 LINE",
"193 460 LINE",
"132 414 LINE",
"89 346 LINE",
"66 269 LINE"
);
}
);
width = 422;
}
);
unicode = 0071;
},
{
glyphname = r;
lastChange = "2016-09-01 06:34:15 +0000";
layers = (
{
layerId = UUID0;
paths = (
{
closed = 1;
nodes = (
"109 0 LINE",
"88 40 LINE",
"56 134 LINE",
"34 230 LINE",
"21 321 LINE",
"19 358 LINE",
"19 364 LINE",
"17 382 LINE",
"18 400 LINE",
"23 416 LINE",
"29 422 LINE",
"31 422 LINE",
"31 422 LINE",
"32 423 LINE",
"33 423 LINE",
"34 423 LINE",
"34 422 LINE",
"36 422 LINE",
"38 422 LINE",
"40 421 LINE",
"55 415 LINE",
"58 413 LINE",
"76 419 LINE",
"114 436 LINE",
"153 451 LINE",
"193 461 LINE",
"212 461 LINE",
"226 461 LINE",
"247 459 LINE",
"268 454 LINE",
"292 447 LINE",
"307 442 LINE",
"315 436 LINE",
"329 425 LINE",
"340 411 LINE",
"346 391 LINE",
"346 375 LINE",
"329 373 LINE",
"287 382 LINE",
"240 396 LINE",
"190 406 LINE",
"144 403 LINE",
"103 381 LINE",
"87 355 LINE",
"80 326 LINE",
"82 271 LINE",
"94 217 LINE",
"113 165 LINE",
"130 112 LINE",
"144 60 LINE",
"145 33 LINE",
"145 22 LINE",
"123 0 LINE"
);
}
);
width = 355;
}
);
unicode = 0072;
},
{
glyphname = s;
lastChange = "2016-09-01 06:34:15 +0000";
layers = (
{
layerId = UUID0;
paths = (
{
closed = 1;
nodes = (
"17 121 LINE",
"25 127 LINE",
"37 130 LINE",
"46 130 LINE",
"55 130 LINE",
"73 121 LINE",
"88 108 LINE",
"104 95 LINE",
"113 91 LINE",
"139 80 LINE",
"169 67 LINE",
"196 59 LINE",
"229 57 LINE",
"257 57 LINE",
"278 57 LINE",
"337 56 LINE",
"391 67 LINE",
"430 96 LINE",
"430 126 LINE",
"430 155 LINE",
"397 188 LINE",
"342 205 LINE",
"271 213 LINE",
"198 221 LINE",
"127 236 LINE",
"71 268 LINE",
"37 323 LINE",
"36 367 LINE",
"42 399 LINE",
"93 443 LINE",
"164 466 LINE",
"244 467 LINE",
"311 445 LINE",
"356 400 LINE",
"357 366 LINE",
"359 346 LINE",
"349 319 LINE",
"332 307 LINE",
"314 307 LINE",
"304 321 LINE",
"305 346 LINE",
"316 365 LINE",
"312 384 LINE",
"274 406 LINE",
"223 415 LINE",
"167 410 LINE",
"120 394 LINE",
"91 368 LINE",
"93 351 LINE",
"93 321 LINE",
"127 288 LINE",
"184 270 LINE",
"257 262 LINE",
"334 255 LINE",
"406 241 LINE",
"463 212 LINE",
"498 161 LINE",
"498 120 LINE",
"498 89 LINE",
"466 44 LINE",
"417 14 LINE",
"359 0 LINE",
"333 0 LINE",
"307 0 LINE",
"248 1 LINE",
"187 7 LINE",
"125 20 LINE",
"72 47 LINE",
"30 89 LINE"
);
}
);
width = 527;
}
);
unicode = 0073;
},
{
glyphname = t;
lastChange = "2016-09-01 06:34:15 +0000";
layers = (
{
layerId = UUID0;
paths = (
{
closed = 1;
nodes = (
"136 343 LINE",
"128 343 LINE",
"88 344 LINE",
"45 351 LINE",
"10 367 LINE",
"10 382 LINE",
"10 386 LINE",
"13 401 LINE",
"21 401 LINE",
"124 409 LINE",
"129 446 LINE",
"132 493 LINE",
"130 535 LINE",
"127 580 LINE",
"126 616 LINE",
"126 622 LINE",
"132 631 LINE",
"141 635 LINE",
"151 637 LINE",
"155 637 LINE",
"161 637 LINE",
"174 629 LINE",
"184 617 LINE",
"190 604 LINE",
"190 598 LINE",
"198 411 LINE",
"283 407 LINE",
"301 409 LINE",
"330 391 LINE",
"331 369 LINE",
"319 356 LINE",
"285 351 LINE",
"247 352 LINE",
"211 351 LINE",
"198 342 LINE",
"198 336 LINE",
"199 282 LINE",
"202 208 LINE",
"205 124 LINE",
"207 53 LINE",
"208 3 LINE",
"208 0 LINE",
"185 -14 LINE",
"157 19 LINE",
"139 84 LINE",
"133 171 LINE",
"132 256 LINE",
"134 327 LINE"
);
}
);
width = 337;
}
);
unicode = 0074;
},
{
glyphname = u;
lastChange = "2016-09-01 06:34:15 +0000";
layers = (
{
layerId = UUID0;
paths = (
{
closed = 1;
nodes = (
"384 145 LINE",
"361 132 LINE",
"328 95 LINE",
"294 61 LINE",
"253 37 LINE",
"221 37 LINE",
"185 37 LINE",
"127 69 LINE",
"82 121 LINE",
"49 189 LINE",
"28 260 LINE",
"17 329 LINE",
"17 357 LINE",
"9 411 LINE",
"31 472 LINE",
"61 489 LINE",
"84 464 LINE",
"76 433 LINE",
"75 429 LINE",
"72 412 LINE",
"70 394 LINE",
"67 378 LINE",
"67 375 LINE",
"67 354 LINE",
"76 297 LINE",
"93 235 LINE",
"119 174 LINE",
"155 126 LINE",
"202 96 LINE",
"230 96 LINE",
"248 96 LINE",
"294 131 LINE",
"335 180 LINE",
"364 232 LINE",
"364 250 LINE",
"364 259 LINE",
"365 306 LINE",
"365 358 LINE",
"364 404 LINE",
"364 413 LINE",
"370 424 LINE",
"384 434 LINE",
"394 434 LINE",
"406 434 LINE",
"422 402 LINE",
"432 352 LINE",
"436 294 LINE",
"438 240 LINE",
"439 199 LINE",
"442 192 LINE",
"447 172 LINE",
"466 122 LINE",
"484 75 LINE",
"498 36 LINE",
"498 26 LINE",
"498 11 LINE",
"481 5 LINE",
"468 5 LINE",
"452 5 LINE",
"437 21 LINE",
"430 46 LINE",
"426 76 LINE",
"417 108 LINE",
"400 136 LINE"
);
}
);
width = 514;
}
);
unicode = 0075;
},
{
glyphname = v;
lastChange = "2016-09-01 06:34:15 +0000";
layers = (
{
layerId = UUID0;
paths = (
{
closed = 1;
nodes = (
"10 355 LINE",
"10 358 LINE",
"15 368 LINE",
"22 378 LINE",
"29 385 LINE",
"34 385 LINE",
"34 385 LINE",
"35 384 LINE",
"37 384 LINE",
"39 384 LINE",
"62 373 LINE",
"92 331 LINE",
"115 280 LINE",
"135 221 LINE",
"160 163 LINE",
"193 110 LINE",
"220 89 LINE",
"229 119 LINE",
"247 176 LINE",
"270 234 LINE",
"301 296 LINE",
"321 331 LINE",
"345 342 LINE",
"374 346 LINE",
"385 335 LINE",
"378 313 LINE",
"365 298 LINE",
"358 291 LINE",
"336 241 LINE",
"312 173 LINE",
"285 99 LINE",
"257 37 LINE",
"229 -2 LINE",
"217 -1 LINE",
"203 -1 LINE",
"168 42 LINE",
"128 109 LINE",
"88 191 LINE",
"51 271 LINE",
"19 337 LINE"
);
}
);
width = 399;
}
);
unicode = 0076;
},
{
glyphname = w;
lastChange = "2016-09-01 06:34:15 +0000";
layers = (
{
layerId = UUID0;
paths = (
{
closed = 1;
nodes = (
"346 96 LINE",
"305 42 LINE",
"225 -1 LINE",
"151 4 LINE",
"87 52 LINE",
"40 124 LINE",
"11 215 LINE",
"9 309 LINE",
"36 398 LINE",
"67 433 LINE",
"83 427 LINE",
"88 407 LINE",
"88 394 LINE",
"88 377 LINE",
"81 346 LINE",
"73 313 LINE",
"66 280 LINE",
"66 262 LINE",
"66 249 LINE",
"72 210 LINE",
"83 166 LINE",
"101 123 LINE",
"126 88 LINE",
"156 65 LINE",
"175 65 LINE",
"192 65 LINE",
"239 85 LINE",
"282 118 LINE",
"311 157 LINE",
"311 178 LINE",
"317 307 LINE",
"317 310 LINE",
"325 317 LINE",
"334 322 LINE",
"344 326 LINE",
"346 326 LINE",
"360 326 LINE",
"370 289 LINE",
"376 233 LINE",
"384 169 LINE",
"405 112 LINE",
"447 76 LINE",
"484 76 LINE",
"521 76 LINE",
"565 106 LINE",
"585 154 LINE",
"584 213 LINE",
"569 272 LINE",
"544 326 LINE",
"529 346 LINE",
"527 353 LINE",
"531 361 LINE",
"538 364 LINE",
"547 365 LINE",
"551 365 LINE",
"568 361 LINE",
"604 316 LINE",
"632 253 LINE",
"647 178 LINE",
"640 104 LINE",
"604 40 LINE",
"567 19 LINE",
"523 16 LINE",
"467 16 LINE",
"430 21 LINE",
"408 33 LINE",
"388 52 LINE",
"364 78 LINE"
);
}
);
width = 672;
}
);
unicode = 0077;
},
{
glyphname = x;
lastChange = "2016-09-01 06:34:15 +0000";
layers = (
{
layerId = UUID0;
paths = (
{
closed = 1;
nodes = (
"393 -53 LINE",
"366 -29 LINE",
"319 23 LINE",
"272 76 LINE",
"222 123 LINE",
"191 140 LINE",
"178 140 LINE",
"154 121 LINE",
"132 90 LINE",
"113 53 LINE",
"96 21 LINE",
"82 -3 LINE",
"76 -5 LINE",
"57 -5 LINE",
"57 13 LINE",
"57 42 LINE",
"87 93 LINE",
"124 138 LINE",
"154 177 LINE",
"154 193 LINE",
"154 193 LINE",
"153 196 LINE",
"153 197 LINE",
"136 213 LINE",
"91 255 LINE",
"47 301 LINE",
"10 349 LINE",
"-1 370 LINE",
"-2 378 LINE",
"2 386 LINE",
"10 391 LINE",
"19 391 LINE",
"23 391 LINE",
"48 382 LINE",
"93 343 LINE",
"135 299 LINE",
"175 257 LINE",
"196 246 LINE",
"216 249 LINE",
"266 283 LINE",
"319 328 LINE",
"372 373 LINE",
"415 398 LINE",
"446 396 LINE",
"451 371 LINE",
"451 366 LINE",
"425 343 LINE",
"385 311 LINE",
"335 275 LINE",
"288 241 LINE",
"249 208 LINE",
"239 197 LINE",
"260 178 LINE",
"317 125 LINE",
"373 66 LINE",
"420 4 LINE",
"431 -23 LINE",
"427 -34 LINE",
"415 -53 LINE",
"403 -53 LINE",
"401 -53 LINE",
"394 -53 LINE"
);
}
);
width = 459;
}
);
unicode = 0078;
},
{
glyphname = y;
lastChange = "2016-09-01 06:34:15 +0000";
layers = (
{
layerId = UUID0;
paths = (
{
closed = 1;
nodes = (
"46 -312 LINE",
"46 -305 LINE",
"46 -293 LINE",
"50 -283 LINE",
"59 -278 LINE",
"67 -278 LINE",
"82 -295 LINE",
"130 -348 LINE",
"190 -398 LINE",
"256 -436 LINE",
"289 -437 LINE",
"318 -436 LINE",
"358 -408 LINE",
"386 -364 LINE",
"403 -308 LINE",
"415 -251 LINE",
"420 -197 LINE",
"423 -176 LINE",
"424 -166 LINE",
"430 -119 LINE",
"435 -62 LINE",
"438 0 LINE",
"434 51 LINE",
"422 84 LINE",
"410 84 LINE",
"393 84 LINE",
"355 64 LINE",
"314 39 LINE",
"272 19 LINE",
"252 19 LINE",
"214 19 LINE",
"151 49 LINE",
"99 100 LINE",
"59 167 LINE",
"32 239 LINE",
"19 311 LINE",
"19 343 LINE",
"19 349 LINE",
"16 382 LINE",
"20 416 LINE",
"34 442 LINE",
"49 442 LINE",
"52 442 LINE",
"58 410 LINE",
"65 359 LINE",
"76 293 LINE",
"94 225 LINE",
"120 159 LINE",
"158 108 LINE",
"211 76 LINE",
"245 76 LINE",
"268 76 LINE",
"315 95 LINE",
"358 125 LINE",
"393 163 LINE",
"403 183 LINE",
"403 187 LINE",
"402 217 LINE",
"400 256 LINE",
"397 302 LINE",
"396 343 LINE",
"395 373 LINE",
"395 377 LINE",
"397 438 LINE",
"411 465 LINE",
"431 421 LINE",
"453 317 LINE",
"472 178 LINE",
"483 13 LINE",
"481 -151 LINE",
"462 -305 LINE",
"420 -425 LINE",
"352 -498 LINE",
"301 -500 LINE",
"281 -500 LINE",
"227 -485 LINE",
"171 -459 LINE",
"116 -423 LINE",
"73 -381 LINE",
"46 -335 LINE"
);
}
);
width = 499;
}
);
unicode = 0079;
},
{
glyphname = z;
lastChange = "2016-09-01 06:34:15 +0000";
layers = (
{
layerId = UUID0;
paths = (
{
closed = 1;
nodes = (
"85 67 LINE",
"85 85 LINE",
"107 127 LINE",
"138 168 LINE",
"170 205 LINE",
"181 217 LINE",
"49 221 LINE",
"44 221 LINE",
"40 227 LINE",
"37 235 LINE",
"37 244 LINE",
"37 245 LINE",
"37 254 LINE",
"40 263 LINE",
"48 267 LINE",
"59 268 LINE",
"67 268 LINE",
"77 269 LINE",
"126 275 LINE",
"181 281 LINE",
"231 286 LINE",
"241 288 LINE",
"254 308 LINE",
"273 337 LINE",
"284 361 LINE",
"289 388 LINE",
"289 406 LINE",
"289 414 LINE",
"286 436 LINE",
"277 457 LINE",
"262 471 LINE",
"250 471 LINE",
"125 471 LINE",
"114 471 LINE",
"95 455 LINE",
"79 437 LINE",
"65 421 LINE",
"58 421 LINE",
"41 421 LINE",
"19 439 LINE",
"19 457 LINE",
"19 472 LINE",
"42 495 LINE",
"79 511 LINE",
"124 521 LINE",
"168 527 LINE",
"205 529 LINE",
"215 529 LINE",
"243 529 LINE",
"292 514 LINE",
"326 483 LINE",
"346 439 LINE",
"346 410 LINE",
"346 392 LINE",
"338 361 LINE",
"328 332 LINE",
"319 301 LINE",
"319 285 LINE",
"320 285 LINE",
"344 288 LINE",
"372 289 LINE",
"394 283 LINE",
"394 275 LINE",
"394 274 LINE",
"394 272 LINE",
"394 271 LINE",
"394 268 LINE",
"391 263 LINE",
"376 245 LINE",
"375 245 LINE",
"268 235 LINE",
"261 221 LINE",
"230 187 LINE",
"199 153 LINE",
"175 119 LINE",
"172 91 LINE",
"196 70 LINE",
"230 66 LINE",
"252 66 LINE",
"303 74 LINE",
"355 88 LINE",
"403 106 LINE",
"422 115 LINE",
"430 109 LINE",
"442 91 LINE",
"442 82 LINE",
"442 67 LINE",
"414 43 LINE",
"370 25 LINE",
"316 12 LINE",
"263 4 LINE",
"218 0 LINE",
"205 0 LINE",
"191 0 LINE",
"151 7 LINE",
"112 23 LINE",
"85 49 LINE"
);
}
);
width = 471;
}
);
unicode = 007A;
},
{
glyphname = braceleft;
lastChange = "2016-09-01 06:34:15 +0000";
layers = (
{
layerId = UUID0;
paths = (
{
closed = 1;
nodes = (
"66 72 LINE",
"66 109 LINE",
"97 162 LINE",
"145 205 LINE",
"200 243 LINE",
"248 283 LINE",
"280 332 LINE",
"280 364 LINE",
"280 367 LINE",
"280 375 LINE",
"279 384 LINE",
"279 392 LINE",
"279 394 LINE",
"277 395 LINE",
"261 403 LINE",
"259 403 LINE",
"254 403 LINE",
"235 403 LINE",
"181 385 LINE",
"127 359 LINE",
"79 333 LINE",
"67 326 LINE",
"66 326 LINE",
"59 325 LINE",
"58 325 LINE",
"45 325 LINE",
"37 338 LINE",
"37 350 LINE",
"37 352 LINE",
"38 363 LINE",
"38 364 LINE",
"52 371 LINE",
"98 392 LINE",
"142 419 LINE",
"178 452 LINE",
"183 471 LINE",
"143 478 LINE",
"82 523 LINE",
"40 585 LINE",
"19 658 LINE",
"19 694 LINE",
"19 739 LINE",
"70 819 LINE",
"149 879 LINE",
"242 913 LINE",
"283 913 LINE",
"298 913 LINE",
"331 906 LINE",
"358 889 LINE",
"376 862 LINE",
"376 844 LINE",
"376 836 LINE",
"370 814 LINE",
"360 814 LINE",
"354 814 LINE",
"339 830 LINE",
"320 849 LINE",
"298 865 LINE",
"284 865 LINE",
"241 861 LINE",
"170 830 LINE",
"115 779 LINE",
"76 712 LINE",
"66 672 LINE",
"66 641 LINE",
"90 595 LINE",
"130 561 LINE",
"181 535 LINE",
"235 513 LINE",
"286 492 LINE",
"307 480 LINE",
"301 461 LINE",
"313 431 LINE",
"330 403 LINE",
"346 374 LINE",
"346 356 LINE",
"346 321 LINE",
"312 268 LINE",
"261 225 LINE",
"201 187 LINE",
"150 143 LINE",
"115 92 LINE",
"115 58 LINE",
"115 49 LINE",
"127 28 LINE",
"154 -8 LINE",
"188 -33 LINE",
"229 -47 LINE",
"254 -47 LINE",
"259 -47 LINE",
"296 -41 LINE",
"368 -29 LINE",
"406 -29 LINE",
"406 -46 LINE",
"383 -69 LINE",
"347 -84 LINE",
"303 -92 LINE",
"260 -96 LINE",
"225 -97 LINE",
"216 -97 LINE",
"180 -104 LINE",
"124 -75 LINE",
"86 -23 LINE",
"66 43 LINE"
);
}
);
width = 403;
}
);
unicode = 007B;
},
{
glyphname = bar;
lastChange = "2016-09-01 06:34:15 +0000";
layers = (
{
layerId = UUID0;
paths = (
{
closed = 1;
nodes = (
"76 10 LINE",
"76 17 LINE",
"73 58 LINE",
"70 104 LINE",
"67 145 LINE",
"67 154 LINE",
"66 200 LINE",
"67 279 LINE",
"64 355 LINE",
"58 434 LINE",
"49 480 LINE",
"41 514 LINE",
"19 589 LINE",
"19 625 LINE",
"19 631 LINE",
"19 652 LINE",
"19 652 LINE",
"19 655 LINE",
"27 663 LINE",
"29 663 LINE",
"32 663 LINE",
"46 655 LINE",
"49 652 LINE",
"74 581 LINE",
"106 437 LINE",
"123 291 LINE",
"127 142 LINE",
"125 67 LINE",
"126 66 LINE",
"129 58 LINE",
"132 49 LINE",
"134 40 LINE",
"134 38 LINE",
"134 16 LINE",
"111 0 LINE",
"91 0 LINE",
"87 0 LINE",
"85 1 LINE",
"77 8 LINE"
);
}
);
width = 154;
}
);
unicode = 007C;
},
{
glyphname = braceright;
lastChange = "2016-09-01 06:34:15 +0000";
layers = (
{
layerId = UUID0;
paths = (
{
closed = 1;
nodes = (
"211 -231 LINE",
"182 -234 LINE",
"115 -227 LINE",
"53 -201 LINE",
"7 -153 LINE",
"0 -116 LINE",
"0 -113 LINE",
"4 -102 LINE",
"11 -92 LINE",
"20 -86 LINE",
"24 -86 LINE",
"34 -86 LINE",
"45 -98 LINE",
"52 -115 LINE",
"61 -131 LINE",
"67 -134 LINE",
"76 -140 LINE",
"108 -155 LINE",
"139 -171 LINE",
"162 -182 LINE",
"163 -182 LINE",
"202 -191 LINE",
"279 -171 LINE",
"338 -126 LINE",
"375 -59 LINE",
"375 -19 LINE",
"375 -2 LINE",
"362 43 LINE",
"341 93 LINE",
"314 143 LINE",
"286 190 LINE",
"259 228 LINE",
"250 241 LINE",
"232 262 LINE",
"187 296 LINE",
"149 331 LINE",
"124 376 LINE",
"124 408 LINE",
"124 427 LINE",
"134 451 LINE",
"134 466 LINE",
"134 475 LINE",
"128 494 LINE",
"121 512 LINE",
"115 532 LINE",
"115 542 LINE",
"115 561 LINE",
"120 590 LINE",
"134 605 LINE",
"298 768 LINE",
"302 772 LINE",
"307 787 LINE",
"308 805 LINE",
"308 820 LINE",
"308 826 LINE",
"308 856 LINE",
"278 891 LINE",
"232 909 LINE",
"178 913 LINE",
"153 913 LINE",
"140 913 LINE",
"117 909 LINE",
"94 904 LINE",
"70 901 LINE",
"58 902 LINE",
"63 889 LINE",
"82 884 LINE",
"102 883 LINE",
"116 877 LINE",
"116 864 LINE",
"116 849 LINE",
"99 844 LINE",
"87 844 LINE",
"50 844 LINE",
"8 883 LINE",
"8 918 LINE",
"8 934 LINE",
"28 952 LINE",
"61 961 LINE",
"99 964 LINE",
"136 963 LINE",
"166 961 LINE",
"172 961 LINE",
"178 961 LINE",
"202 961 LINE",
"230 960 LINE",
"255 960 LINE",
"259 960 LINE",
"284 951 LINE",
"326 922 LINE",
"357 886 LINE",
"375 838 LINE",
"375 811 LINE",
"375 778 LINE",
"345 727 LINE",
"300 683 LINE",
"247 644 LINE",
"202 606 LINE",
"172 565 LINE",
"172 542 LINE",
"172 530 LINE",
"181 517 LINE",
"197 511 LINE",
"219 510 LINE",
"230 509 LINE",
"237 508 LINE",
"270 508 LINE",
"307 508 LINE",
"339 508 LINE",
"346 509 LINE",
"360 503 LINE",
"365 487 LINE",
"365 476 LINE",
"365 470 LINE",
"364 453 LINE",
"355 451 LINE",
"347 451 LINE",
"310 448 LINE",
"267 445 LINE",
"229 442 LINE",
"221 442 LINE",
"204 439 LINE",
"176 422 LINE",
"172 403 LINE",
"172 400 LINE",
"190 377 LINE",
"217 344 LINE",
"253 307 LINE",
"285 271 LINE",
"311 239 LINE",
"317 230 LINE",
"336 199 LINE",
"374 139 LINE",
"405 75 LINE",
"424 7 LINE",
"424 -30 LINE",
"424 -80 LINE",
"392 -155 LINE",
"334 -206 LINE",
"256 -231 LINE"
);
}
);
width = 451;
}
);
unicode = 007D;
},
{
glyphname = asciitilde;
lastChange = "2016-09-01 06:34:15 +0000";
layers = (
{
layerId = UUID0;
paths = (
{
closed = 1;
nodes = (
"291 449 LINE",
"265 439 LINE",
"224 449 LINE",
"187 473 LINE",
"151 502 LINE",
"130 512 LINE",
"101 514 LINE",
"75 491 LINE",
"65 458 LINE",
"66 424 LINE",
"62 406 LINE",
"48 411 LINE",
"28 435 LINE",
"19 459 LINE",
"27 502 LINE",
"51 533 LINE",
"88 553 LINE",
"109 553 LINE",
"111 554 LINE",
"121 554 LINE",
"145 546 LINE",
"185 526 LINE",
"217 507 LINE",
"235 496 LINE",
"258 493 LINE",
"274 499 LINE",
"278 501 LINE",
"289 505 LINE",
"289 507 LINE",
"351 555 LINE",
"363 554 LINE",
"376 546 LINE",
"381 535 LINE",
"379 526 LINE",
"376 523 LINE",
"349 500 LINE",
"320 473 LINE",
"306 459 LINE",
"303 454 LINE",
"302 452 LINE",
"298 451 LINE"
);
}
);
width = 412;
}
);
unicode = 007E;
},
{
glyphname = cent;
lastChange = "2016-09-01 06:34:15 +0000";
layers = (
{
layerId = UUID0;
paths = (
{
closed = 1;
nodes = (
"226 -51 LINE",
"226 -46 LINE",
"226 -22 LINE",
"225 -5 LINE",
"122 1 LINE",
"19 111 LINE",
"19 223 LINE",
"19 263 LINE",
"48 340 LINE",
"99 403 LINE",
"167 444 LINE",
"207 450 LINE",
"204 465 LINE",
"202 472 LINE",
"202 480 LINE",
"198 517 LINE",
"204 549 LINE",
"217 550 LINE",
"234 529 LINE",
"248 497 LINE",
"256 463 LINE",
"253 451 LINE",
"271 449 LINE",
"311 438 LINE",
"344 418 LINE",
"365 387 LINE",
"365 365 LINE",
"365 361 LINE",
"360 337 LINE",
"352 313 LINE",
"341 294 LINE",
"337 294 LINE",
"337 334 LINE",
"301 391 LINE",
"265 400 LINE",
"272 361 LINE",
"280 286 LINE",
"282 207 LINE",
"280 119 LINE",
"279 67 LINE",
"280 66 LINE",
"282 60 LINE",
"283 56 LINE",
"316 55 LINE",
"382 56 LINE",
"413 58 LINE",
"416 58 LINE",
"430 50 LINE",
"433 49 LINE",
"433 46 LINE",
"433 45 LINE",
"433 43 LINE",
"433 43 LINE",
"437 30 LINE",
"408 16 LINE",
"361 7 LINE",
"304 3 LINE",
"281 0 LINE",
"278 -11 LINE",
"270 -33 LINE",
"259 -50 LINE",
"247 -61 LINE",
"241 -61 LINE",
"236 -61 LINE",
"235 -60 LINE",
"227 -53 LINE"
);
},
{
closed = 1;
nodes = (
"76 221 LINE",
"76 181 LINE",
"99 126 LINE",
"139 88 LINE",
"192 67 LINE",
"223 61 LINE",
"222 93 LINE",
"221 145 LINE",
"221 154 LINE",
"220 190 LINE",
"220 221 LINE",
"220 282 LINE",
"220 312 LINE",
"217 371 LINE",
"214 403 LINE",
"181 398 LINE",
"130 364 LINE",
"94 313 LINE",
"76 253 LINE"
);
}
);
width = 460;
}
);
unicode = 00A2;
},
{
glyphname = sterling;
lastChange = "2016-09-01 06:34:15 +0000";
layers = (
{
layerId = UUID0;
paths = (
{
closed = 1;
nodes = (
"10 87 LINE",
"10 105 LINE",
"28 124 LINE",
"55 133 LINE",
"85 135 LINE",
"99 135 LINE",
"118 135 LINE",
"151 134 LINE",
"184 132 LINE",
"218 128 LINE",
"241 125 LINE",
"259 137 LINE",
"293 193 LINE",
"320 261 LINE",
"337 328 LINE",
"337 352 LINE",
"337 361 LINE",
"327 371 LINE",
"313 376 LINE",
"304 376 LINE",
"290 376 LINE",
"272 376 LINE",
"237 370 LINE",
"202 361 LINE",
"166 355 LINE",
"148 355 LINE",
"145 355 LINE",
"143 357 LINE",
"136 372 LINE",
"135 375 LINE",
"135 384 LINE",
"136 387 LINE",
"151 402 LINE",
"154 403 LINE",
"161 405 LINE",
"196 413 LINE",
"235 423 LINE",
"271 431 LINE",
"279 433 LINE",
"289 433 LINE",
"315 437 LINE",
"350 468 LINE",
"375 513 LINE",
"394 568 LINE",
"415 623 LINE",
"444 675 LINE",
"487 715 LINE",
"550 740 LINE",
"595 740 LINE",
"624 740 LINE",
"679 721 LINE",
"723 684 LINE",
"749 632 LINE",
"749 600 LINE",
"749 588 LINE",
"743 565 LINE",
"730 565 LINE",
"723 565 LINE",
"712 582 LINE",
"700 608 LINE",
"685 639 LINE",
"660 665 LINE",
"623 682 LINE",
"597 682 LINE",
"556 682 LINE",
"500 658 LINE",
"460 616 LINE",
"434 555 LINE",
"423 518 LINE",
"421 514 LINE",
"418 498 LINE",
"415 482 LINE",
"414 476 LINE",
"413 471 LINE",
"423 460 LINE",
"596 460 LINE",
"603 460 LINE",
"611 454 LINE",
"615 444 LINE",
"616 433 LINE",
"616 428 LINE",
"616 415 LINE",
"608 392 LINE",
"592 392 LINE",
"582 392 LINE",
"566 395 LINE",
"557 403 LINE",
"547 403 LINE",
"539 403 LINE",
"523 404 LINE",
"515 404 LINE",
"505 404 LINE",
"465 404 LINE",
"415 381 LINE",
"384 341 LINE",
"367 289 LINE",
"352 229 LINE",
"334 165 LINE",
"317 134 LINE",
"337 125 LINE",
"364 124 LINE",
"425 125 LINE",
"483 117 LINE",
"532 94 LINE",
"547 67 LINE",
"525 52 LINE",
"473 46 LINE",
"448 46 LINE",
"412 46 LINE",
"343 58 LINE",
"307 58 LINE",
"280 58 LINE",
"237 40 LINE",
"196 16 LINE",
"153 -2 LINE",
"126 -2 LINE",
"106 -2 LINE",
"65 8 LINE",
"31 29 LINE",
"10 63 LINE"
);
}
);
width = 778;
}
);
unicode = 00A3;
},
{
glyphname = currency;
lastChange = "2016-09-01 06:34:15 +0000";
layers = (
{
layerId = UUID0;
paths = (
{
closed = 1;
nodes = (
"497 26 LINE",
"478 42 LINE",
"439 83 LINE",
"420 106 LINE",
"370 85 LINE",
"315 85 LINE",
"239 85 LINE",
"185 122 LINE",
"172 103 LINE",
"146 67 LINE",
"124 40 LINE",
"105 24 LINE",
"99 25 LINE",
"79 25 LINE",
"79 43 LINE",
"79 67 LINE",
"116 131 LINE",
"141 163 LINE",
"123 188 LINE",
"102 252 LINE",
"102 290 LINE",
"102 322 LINE",
"120 378 LINE",
"135 401 LINE",
"118 418 LINE",
"86 451 LINE",
"58 482 LINE",
"37 511 LINE",
"32 522 LINE",
"31 529 LINE",
"35 538 LINE",
"43 543 LINE",
"52 544 LINE",
"56 544 LINE",
"68 539 LINE",
"97 520 LINE",
"130 495 LINE",
"164 466 LINE",
"182 450 LINE",
"222 480 LINE",
"323 511 LINE",
"375 511 LINE",
"403 511 LINE",
"454 486 LINE",
"475 466 LINE",
"496 484 LINE",
"533 513 LINE",
"563 526 LINE",
"583 519 LINE",
"587 501 LINE",
"565 482 LINE",
"528 444 LINE",
"511 424 LINE",
"531 394 LINE",
"553 328 LINE",
"553 300 LINE",
"553 244 LINE",
"505 160 LINE",
"467 132 LINE",
"491 93 LINE",
"535 55 LINE",
"532 44 LINE",
"518 25 LINE",
"506 25 LINE",
"505 25 LINE",
"498 26 LINE"
);
},
{
closed = 1;
nodes = (
"150 286 LINE",
"150 256 LINE",
"173 199 LINE",
"214 157 LINE",
"270 132 LINE",
"301 132 LINE",
"343 128 LINE",
"424 164 LINE",
"484 224 LINE",
"515 299 LINE",
"499 370 LINE",
"425 428 LINE",
"351 441 LINE",
"318 441 LINE",
"247 421 LINE",
"188 383 LINE",
"150 325 LINE"
);
}
);
width = 633;
}
);
unicode = 00A4;
},
{
glyphname = yen;
lastChange = "2016-09-01 06:34:15 +0000";
layers = (
{
layerId = UUID0;
paths = (
{
closed = 1;
nodes = (
"35 206 LINE",
"35 209 LINE",
"43 217 LINE",
"45 217 LINE",
"73 219 LINE",
"98 221 LINE",
"103 222 LINE",
"107 223 LINE",
"177 223 LINE",
"184 292 LINE",
"52 304 LINE",
"40 304 LINE",
"16 313 LINE",
"16 329 LINE",
"5 331 LINE",
"28 337 LINE",
"80 340 LINE",
"151 342 LINE",
"189 341 LINE",
"193 382 LINE",
"39 736 LINE",
"40 739 LINE",
"44 749 LINE",
"51 759 LINE",
"58 766 LINE",
"63 766 LINE",
"64 765 LINE",
"64 765 LINE",
"66 765 LINE",
"68 765 LINE",
"91 754 LINE",
"118 711 LINE",
"135 658 LINE",
"148 598 LINE",
"167 539 LINE",
"198 484 LINE",
"224 463 LINE",
"233 493 LINE",
"259 553 LINE",
"292 613 LINE",
"330 677 LINE",
"350 712 LINE",
"398 733 LINE",
"420 709 LINE",
"394 679 LINE",
"249 387 LINE",
"246 338 LINE",
"268 336 LINE",
"307 330 LINE",
"337 321 LINE",
"354 309 LINE",
"354 301 LINE",
"354 300 LINE",
"339 286 LINE",
"334 283 LINE",
"333 282 LINE",
"332 282 LINE",
"331 281 LINE",
"329 281 LINE",
"243 288 LINE",
"238 226 LINE",
"256 226 LINE",
"289 222 LINE",
"317 213 LINE",
"339 196 LINE",
"343 184 LINE",
"305 164 LINE",
"235 165 LINE",
"224 -3 LINE",
"154 -6 LINE",
"171 166 LINE",
"93 168 LINE",
"80 168 LINE",
"58 169 LINE",
"43 177 LINE",
"35 192 LINE"
);
}
);
width = 399;
}
);
unicode = 00A5;
},
{
glyphname = brokenbar;
lastChange = "2016-09-01 06:34:15 +0000";
layers = (
{
layerId = UUID0;
paths = (
{
closed = 1;
nodes = (
"83 295 LINE",
"86 191 LINE",
"88 67 LINE",
"85 2 LINE",
"77 -16 LINE",
"66 -11 LINE",
"50 6 LINE",
"41 7 LINE",
"34 54 LINE",
"27 121 LINE",
"23 182 LINE",
"23 248 LINE",
"24 295 LINE"
);
},
{
closed = 1;
nodes = (
"29 328 LINE",
"30 352 LINE",
"30 385 LINE",
"30 450 LINE",
"30 484 LINE",
"29 548 LINE",
"29 572 LINE",
"29 580 LINE",
"41 586 LINE",
"49 586 LINE",
"58 586 LINE",
"72 573 LINE",
"82 554 LINE",
"87 535 LINE",
"87 529 LINE",
"88 508 LINE",
"85 451 LINE",
"82 394 LINE",
"79 343 LINE",
"79 325 LINE"
);
}
);
width = 120;
}
);
unicode = 00A6;
},
{
glyphname = section;
lastChange = "2016-09-01 06:34:15 +0000";
layers = (
{
layerId = UUID0;
paths = (
{
closed = 1;
nodes = (
"315 208 LINE",
"288 208 LINE",
"224 209 LINE",
"161 219 LINE",
"103 239 LINE",
"59 275 LINE",
"34 329 LINE",
"36 367 LINE",
"42 400 LINE",
"94 444 LINE",
"130 454 LINE",
"97 470 LINE",
"58 527 LINE",
"57 576 LINE",
"62 608 LINE",
"105 651 LINE",
"168 675 LINE",
"244 679 LINE",
"321 664 LINE",
"393 633 LINE",
"421 608 LINE",
"454 575 LINE",
"469 532 LINE",
"448 520 LINE",
"398 543 LINE",
"365 574 LINE",
"350 590 LINE",
"300 609 LINE",
"242 617 LINE",
"184 615 LINE",
"139 601 LINE",
"112 576 LINE",
"114 559 LINE",
"114 529 LINE",
"148 496 LINE",
"205 478 LINE",
"278 471 LINE",
"354 463 LINE",
"427 449 LINE",
"484 420 LINE",
"518 369 LINE",
"518 328 LINE",
"518 309 LINE",
"505 277 LINE",
"483 252 LINE",
"454 232 LINE",
"437 225 LINE",
"464 210 LINE",
"498 160 LINE",
"498 120 LINE",
"498 89 LINE",
"466 44 LINE",
"417 14 LINE",
"359 0 LINE",
"333 0 LINE",
"295 0 LINE",
"208 4 LINE",
"127 28 LINE",
"59 78 LINE",
"40 125 LINE",
"49 131 LINE",
"62 139 LINE",
"70 135 LINE",
"94 121 LINE",
"133 94 LINE",
"175 71 LINE",
"224 57 LINE",
"257 57 LINE",
"278 57 LINE",
"337 56 LINE",
"391 67 LINE",
"430 96 LINE",
"430 126 LINE",
"430 147 LINE",
"412 175 LINE",
"382 194 LINE",
"340 205 LINE"
);
},
{
closed = 1;
nodes = (
"340 415 LINE",
"281 413 LINE",
"202 408 LINE",
"151 401 LINE",
"122 389 LINE",
"108 371 LINE",
"101 344 LINE",
"97 325 LINE",
"109 306 LINE",
"144 282 LINE",
"190 269 LINE",
"246 265 LINE",
"278 265 LINE",
"299 265 LINE",
"358 264 LINE",
"412 275 LINE",
"451 304 LINE",
"451 334 LINE",
"451 354 LINE",
"434 382 LINE",
"405 401 LINE",
"364 412 LINE"
);
}
);
width = 527;
}
);
unicode = 00A7;
},
{
glyphname = dieresis;
lastChange = "2016-09-01 06:34:15 +0000";
layers = (
{
layerId = UUID0;
paths = (
{
closed = 1;
nodes = (
"69 487 LINE",
"69 492 LINE",
"79 508 LINE",
"92 526 LINE",
"107 538 LINE",
"112 538 LINE",
"128 538 LINE",
"151 527 LINE",
"165 511 LINE",
"172 491 LINE",
"172 482 LINE",
"172 476 LINE",
"162 461 LINE",
"146 448 LINE",
"127 439 LINE",
"117 439 LINE",
"106 439 LINE",
"88 450 LINE",
"76 465 LINE",
"69 481 LINE"
);
},
{
closed = 1;
nodes = (
"229 487 LINE",
"229 492 LINE",
"238 508 LINE",
"253 526 LINE",
"268 538 LINE",
"273 538 LINE",
"288 538 LINE",
"310 527 LINE",
"325 511 LINE",
"332 491 LINE",
"332 482 LINE",
"332 476 LINE",
"322 461 LINE",
"307 448 LINE",
"286 439 LINE",
"277 439 LINE",
"265 439 LINE",
"247 450 LINE",
"235 465 LINE",
"229 481 LINE"
);
}
);
width = 407;
}
);
unicode = 00A8;
},
{
glyphname = copyright;
lastChange = "2016-09-01 06:34:15 +0000";
layers = (
{
layerId = UUID0;
paths = (
{
closed = 1;
nodes = (
"35 276 LINE",
"34 305 LINE",
"49 370 LINE",
"80 433 LINE",
"122 492 LINE",
"172 538 LINE",
"229 566 LINE",
"257 568 LINE",
"313 575 LINE",
"419 557 LINE",
"513 511 LINE",
"591 440 LINE",
"645 347 LINE",
"672 236 LINE",
"668 173 LINE",
"661 139 LINE",
"620 88 LINE",
"561 51 LINE",
"490 27 LINE",
"417 10 LINE",
"348 0 LINE",
"321 -4 LINE",
"259 -4 LINE",
"154 37 LINE",
"78 109 LINE",
"35 213 LINE"
);
},
{
closed = 1;
nodes = (
"83 280 LINE",
"82 235 LINE",
"123 155 LINE",
"189 94 LINE",
"271 55 LINE",
"312 49 LINE",
"325 49 LINE",
"381 57 LINE",
"448 73 LINE",
"520 95 LINE",
"580 127 LINE",
"617 166 LINE",
"617 190 LINE",
"622 253 LINE",
"583 355 LINE",
"512 432 LINE",
"421 485 LINE",
"328 514 LINE",
"244 517 LINE",
"217 505 LINE",
"196 498 LINE",
"160 466 LINE",
"130 424 LINE",
"107 378 LINE",
"91 333 LINE",
"83 293 LINE"
);
},
{
closed = 1;
nodes = (
"172 250 LINE",
"172 283 LINE",
"190 346 LINE",
"226 401 LINE",
"285 445 LINE",
"328 460 LINE",
"347 460 LINE",
"393 451 LINE",
"433 431 LINE",
"459 398 LINE",
"459 373 LINE",
"459 368 LINE",
"454 345 LINE",
"445 320 LINE",
"435 301 LINE",
"430 301 LINE",
"430 349 LINE",
"379 412 LINE",
"328 412 LINE",
"290 397 LINE",
"249 361 LINE",
"231 319 LINE",
"229 273 LINE",
"229 248 LINE",
"233 209 LINE",
"257 166 LINE",
"294 146 LINE",
"342 145 LINE",
"398 149 LINE",
"460 155 LINE",
"493 153 LINE",
"497 153 LINE",
"511 145 LINE",
"513 143 LINE",
"513 141 LINE",
"513 139 LINE",
"513 139 LINE",
"514 138 LINE",
"514 121 LINE",
"481 102 LINE",
"439 93 LINE",
"398 91 LINE",
"389 91 LINE",
"334 96 LINE",
"256 107 LINE",
"204 139 LINE",
"176 198 LINE"
);
}
);
width = 685;
}
);
unicode = 00A9;
},
{
glyphname = guillemotleft;
lastChange = "2016-09-01 06:34:15 +0000";
layers = (
{
layerId = UUID0;
paths = (
{
closed = 1;
nodes = (
"77 183 LINE",
"79 184 LINE",
"107 205 LINE",
"153 236 LINE",
"209 276 LINE",
"266 316 LINE",
"318 352 LINE",
"337 364 LINE",
"347 372 LINE",
"374 388 LINE",
"402 403 LINE",
"430 417 LINE",
"442 422 LINE",
"445 421 LINE",
"453 413 LINE",
"462 404 LINE",
"469 396 LINE",
"471 394 LINE",
"471 393 LINE",
"447 375 LINE",
"409 349 LINE",
"364 319 LINE",
"323 292 LINE",
"292 271 LINE",
"289 268 LINE",
"267 253 LINE",
"218 224 LINE",
"169 191 LINE",
"124 155 LINE",
"106 134 LINE",
"108 130 LINE",
"133 121 LINE",
"169 113 LINE",
"211 106 LINE",
"248 100 LINE",
"275 96 LINE",
"279 96 LINE",
"292 94 LINE",
"343 86 LINE",
"396 70 LINE",
"435 44 LINE",
"435 24 LINE",
"435 0 LINE",
"409 0 LINE",
"398 0 LINE",
"378 7 LINE",
"357 17 LINE",
"337 27 LINE",
"327 29 LINE",
"319 31 LINE",
"299 33 LINE",
"252 38 LINE",
"225 41 LINE",
"162 49 LINE",
"100 58 LINE",
"46 71 LINE",
"11 86 LINE",
"-2 104 LINE",
"10 115 LINE"
);
},
{
closed = 1;
nodes = (
"322 248 LINE",
"322 249 LINE",
"352 270 LINE",
"397 301 LINE",
"453 341 LINE",
"510 381 LINE",
"562 417 LINE",
"580 430 LINE",
"602 445 LINE",
"662 477 LINE",
"686 487 LINE",
"688 486 LINE",
"697 478 LINE",
"706 469 LINE",
"713 461 LINE",
"715 459 LINE",
"715 458 LINE",
"691 440 LINE",
"652 415 LINE",
"607 384 LINE",
"567 357 LINE",
"537 337 LINE",
"533 334 LINE",
"511 319 LINE",
"463 289 LINE",
"414 256 LINE",
"368 220 LINE",
"350 199 LINE",
"352 195 LINE",
"377 187 LINE",
"413 178 LINE",
"455 171 LINE",
"492 165 LINE",
"519 161 LINE",
"523 161 LINE",
"535 159 LINE",
"587 151 LINE",
"640 135 LINE",
"679 109 LINE",
"679 89 LINE",
"679 65 LINE",
"652 65 LINE",
"643 65 LINE",
"622 73 LINE",
"611 77 LINE",
"591 87 LINE",
"581 92 LINE",
"571 94 LINE",
"564 96 LINE",
"544 98 LINE",
"496 103 LINE",
"469 106 LINE",
"406 114 LINE",
"345 124 LINE",
"291 136 LINE",
"256 151 LINE",
"243 169 LINE",
"254 181 LINE"
);
}
);
width = 774;
}
);
unicode = 00AB;
},
{
glyphname = logicalnot;
lastChange = "2016-09-01 06:34:15 +0000";
layers = (
{
layerId = UUID0;
paths = (
{
closed = 1;
nodes = (
"304 350 LINE",
"299 355 LINE",
"256 360 LINE",
"196 359 LINE",
"129 356 LINE",
"72 353 LINE",
"34 352 LINE",
"34 353 LINE",
"34 355 LINE",
"36 373 LINE",
"40 394 LINE",
"46 409 LINE",
"51 409 LINE",
"352 411 LINE",
"352 342 LINE",
"352 333 LINE",
"349 309 LINE",
"347 286 LINE",
"344 266 LINE",
"344 261 LINE",
"324 255 LINE",
"302 258 LINE",
"294 271 LINE",
"296 292 LINE",
"298 304 LINE",
"303 328 LINE",
"305 340 LINE"
);
}
);
width = 378;
}
);
unicode = 00AC;
},
{
glyphname = hyphen_;
lastChange = "2016-09-01 06:34:15 +0000";
layers = (
{
layerId = UUID0;
paths = (
{
closed = 1;
nodes = (
"253 327 LINE",
"268 327 LINE",
"300 325 LINE",
"328 316 LINE",
"346 297 LINE",
"346 279 LINE",
"346 258 LINE",
"327 258 LINE",
"305 258 LINE",
"268 269 LINE",
"245 269 LINE",
"216 269 LINE",
"159 262 LINE",
"101 253 LINE",
"44 247 LINE",
"15 247 LINE",
"15 271 LINE",
"37 299 LINE",
"73 316 LINE",
"118 322 LINE",
"166 323 LINE",
"212 324 LINE",
"230 326 LINE",
"233 326 LINE",
"236 326 LINE",
"244 327 LINE",
"247 327 LINE"
);
}
);
width = 384;
}
);
unicode = 00AD;
},
{
color = 0;
glyphname = registered;
lastChange = "2016-09-01 06:34:15 +0000";
layers = (
{
layerId = UUID0;
paths = (
{
closed = 1;
nodes = (
"37 294 LINE",
"35 323 LINE",
"52 388 LINE",
"82 452 LINE",
"124 511 LINE",
"175 556 LINE",
"230 584 LINE",
"259 586 LINE",
"314 593 LINE",
"421 575 LINE",
"514 529 LINE",
"592 458 LINE",
"646 366 LINE",
"673 255 LINE",
"670 192 LINE",
"663 157 LINE",
"622 106 LINE",
"562 70 LINE",
"491 45 LINE",
"418 28 LINE",
"349 18 LINE",
"322 14 LINE",
"260 14 LINE",
"156 55 LINE",
"79 128 LINE",
"37 231 LINE"
);
},
{
closed = 1;
nodes = (
"85 298 LINE",
"84 253 LINE",
"124 174 LINE",
"190 113 LINE",
"273 73 LINE",
"313 67 LINE",
"322 67 LINE",
"355 71 LINE",
"396 78 LINE",
"442 88 LINE",
"466 95 LINE",
"445 107 LINE",
"395 141 LINE",
"347 178 LINE",
"304 214 LINE",
"289 227 LINE",
"298 198 LINE",
"310 152 LINE",
"310 122 LINE",
"293 109 LINE",
"274 114 LINE",
"271 109 LINE",
"263 136 LINE",
"253 185 LINE",
"244 248 LINE",
"238 310 LINE",
"239 365 LINE",
"244 381 LINE",
"253 385 LINE",
"271 385 LINE",
"285 379 LINE",
"293 368 LINE",
"292 362 LINE",
"292 360 LINE",
"294 343 LINE",
"297 325 LINE",
"300 309 LINE",
"301 307 LINE",
"316 307 LINE",
"360 307 LINE",
"403 311 LINE",
"436 325 LINE",
"439 341 LINE",
"448 381 LINE",
"439 399 LINE",
"412 415 LINE",
"376 420 LINE",
"329 418 LINE",
"301 418 LINE",
"281 418 LINE",
"238 415 LINE",
"202 402 LINE",
"178 376 LINE",
"178 353 LINE",
"172 353 LINE",
"162 367 LINE",
"154 384 LINE",
"149 401 LINE",
"149 406 LINE",
"149 421 LINE",
"179 445 LINE",
"195 451 LINE",
"217 454 LINE",
"250 459 LINE",
"280 462 LINE",
"310 463 LINE",
"328 463 LINE",
"356 463 LINE",
"422 451 LINE",
"480 427 LINE",
"518 388 LINE",
"518 360 LINE",
"518 335 LINE",
"487 300 LINE",
"439 277 LINE",
"383 265 LINE",
"334 261 LINE",
"317 262 LINE",
"307 262 LINE",
"302 264 LINE",
"349 229 LINE",
"381 205 LINE",
"415 178 LINE",
"463 142 LINE",
"496 118 LINE",
"509 109 LINE",
"532 118 LINE",
"571 139 LINE",
"601 164 LINE",
"619 193 LINE",
"619 209 LINE",
"624 271 LINE",
"584 373 LINE",
"514 451 LINE",
"422 504 LINE",
"330 532 LINE",
"246 535 LINE",
"218 523 LINE",
"187 512 LINE",
"138 454 LINE",
"103 385 LINE",
"85 319 LINE"
);
}
);
width = 725;
}
);
unicode = 00AE;
},
{
glyphname = macron;
lastChange = "2016-09-01 06:34:15 +0000";
layers = (
{
layerId = UUID0;
paths = (
{
closed = 1;
nodes = (
"205 553 LINE",
"220 553 LINE",
"253 551 LINE",
"280 542 LINE",
"298 523 LINE",
"298 505 LINE",
"298 484 LINE",
"280 484 LINE",
"258 484 LINE",
"220 495 LINE",
"197 495 LINE",
"168 495 LINE",
"132 488 LINE",
"99 481 LINE",
"63 474 LINE",
"34 474 LINE",
"34 509 LINE",
"60 540 LINE",
"102 550 LINE",
"156 548 LINE",
"183 552 LINE",
"184 552 LINE",
"202 553 LINE"
);
}
);
width = 295;
}
);
unicode = 00AF;
},
{
glyphname = plusminus;
lastChange = "2016-09-01 06:34:15 +0000";
layers = (
{
layerId = UUID0;
paths = (
{
closed = 1;
nodes = (
"296 111 LINE",
"310 111 LINE",
"361 112 LINE",
"410 106 LINE",
"447 89 LINE",
"447 71 LINE",
"447 51 LINE",
"427 51 LINE",
"417 51 LINE",
"379 52 LINE",
"338 53 LINE",
"299 54 LINE",
"288 54 LINE",
"259 54 LINE",
"202 46 LINE",
"145 38 LINE",
"88 31 LINE",
"58 31 LINE",
"48 49 LINE",
"70 74 LINE",
"118 90 LINE",
"185 100 LINE",
"220 103 LINE",
"219 114 LINE",
"220 131 LINE",
"220 136 LINE",
"219 142 LINE",
"214 175 LINE",
"208 212 LINE",
"202 244 LINE",
"200 251 LINE",
"190 251 LINE",
"171 251 LINE",
"132 245 LINE",
"94 238 LINE",
"55 232 LINE",
"37 232 LINE",
"22 232 LINE",
"15 246 LINE",
"15 256 LINE",
"15 268 LINE",
"22 277 LINE",
"37 280 LINE",
"45 282 LINE",
"85 290 LINE",
"132 299 LINE",
"173 307 LINE",
"181 309 LINE",
"187 310 LINE",
"190 319 LINE",
"192 329 LINE",
"191 340 LINE",
"191 342 LINE",
"191 358 LINE",
"185 389 LINE",
"177 421 LINE",
"171 452 LINE",
"171 469 LINE",
"171 472 LINE",
"172 475 LINE",
"187 490 LINE",
"190 491 LINE",
"193 491 LINE",
"195 492 LINE",
"196 491 LINE",
"196 491 LINE",
"198 491 LINE",
"200 491 LINE",
"204 488 LINE",
"211 481 LINE",
"220 472 LINE",
"258 338 LINE",
"267 328 LINE",
"283 325 LINE",
"301 322 LINE",
"347 316 LINE",
"396 310 LINE",
"412 309 LINE",
"415 309 LINE",
"430 307 LINE",
"447 304 LINE",
"459 296 LINE",
"459 289 LINE",
"459 286 LINE",
"452 274 LINE",
"442 261 LINE",
"433 251 LINE",
"430 251 LINE",
"277 251 LINE",
"277 110 LINE",
"281 110 LINE",
"293 111 LINE"
);
}
);
width = 471;
}
);
unicode = 00B1;
},
{
glyphname = acute;
lastChange = "2016-09-01 06:34:15 +0000";
layers = (
{
layerId = UUID0;
paths = (
{
closed = 1;
nodes = (
"9 427 LINE",
"9 448 LINE",
"41 486 LINE",
"85 520 LINE",
"133 550 LINE",
"148 562 LINE",
"169 552 LINE",
"164 524 LINE",
"127 486 LINE",
"67 436 LINE",
"34 403 LINE",
"19 403 LINE",
"9 412 LINE"
);
}
);
width = 185;
}
);
unicode = 00B4;
},
{
glyphname = mu;
lastChange = "2016-09-01 06:34:15 +0000";
layers = (
{
layerId = UUID0;
paths = (
{
closed = 1;
nodes = (
"384 145 LINE",
"373 133 LINE",
"352 98 LINE",
"317 64 LINE",
"266 35 LINE",
"227 31 LINE",
"184 40 LINE",
"127 64 LINE",
"91 94 LINE",
"82 112 LINE",
"73 128 LINE",
"70 146 LINE",
"67 -59 LINE",
"15 -65 LINE",
"17 357 LINE",
"9 411 LINE",
"31 472 LINE",
"61 489 LINE",
"84 464 LINE",
"76 433 LINE",
"75 429 LINE",
"72 412 LINE",
"70 394 LINE",
"67 378 LINE",
"67 375 LINE",
"67 354 LINE",
"76 297 LINE",
"93 235 LINE",
"119 174 LINE",
"155 126 LINE",
"202 96 LINE",
"230 96 LINE",
"248 96 LINE",
"294 131 LINE",
"335 180 LINE",
"364 232 LINE",
"364 250 LINE",
"364 259 LINE",
"365 306 LINE",
"365 358 LINE",
"364 404 LINE",
"364 413 LINE",
"370 424 LINE",
"384 434 LINE",
"394 434 LINE",
"406 434 LINE",
"422 402 LINE",
"432 352 LINE",
"436 294 LINE",
"438 240 LINE",
"439 199 LINE",
"442 192 LINE",
"447 172 LINE",
"466 122 LINE",
"484 75 LINE",
"498 36 LINE",
"498 26 LINE",
"498 11 LINE",
"481 5 LINE",
"468 5 LINE",
"450 3 LINE",
"432 25 LINE",
"418 64 LINE",
"400 117 LINE"
);
}
);
width = 514;
}
);
unicode = 00B5;
},
{
glyphname = paragraph;
lastChange = "2016-09-01 06:34:15 +0000";
layers = (
{
layerId = UUID0;
paths = (
{
closed = 1;
nodes = (
"330 -15 LINE",
"325 12 LINE",
"322 94 LINE",
"323 185 LINE",
"326 278 LINE",
"325 356 LINE",
"319 411 LINE",
"310 418 LINE",
"307 420 LINE",
"292 412 LINE",
"289 415 LINE",
"283 369 LINE",
"277 276 LINE",
"275 187 LINE",
"275 109 LINE",
"277 48 LINE",
"281 8 LINE",
"283 3 LINE",
"283 -8 LINE",
"260 -15 LINE",
"244 -15 LINE",
"232 -15 LINE",
"223 26 LINE",
"222 89 LINE",
"224 162 LINE",
"225 226 LINE",
"220 268 LINE",
"212 270 LINE",
"188 274 LINE",
"141 271 LINE",
"98 268 LINE",
"61 271 LINE",
"34 287 LINE",
"19 323 LINE",
"19 356 LINE",
"19 389 LINE",
"40 448 LINE",
"78 493 LINE",
"131 520 LINE",
"165 520 LINE",
"201 520 LINE",
"264 523 LINE",
"315 521 LINE",
"351 508 LINE",
"359 491 LINE",
"367 464 LINE",
"379 384 LINE",
"385 291 LINE",
"388 192 LINE",
"385 101 LINE",
"378 25 LINE",
"364 -22 LINE",
"343 -34 LINE"
);
}
);
width = 424;
}
);
unicode = 00B6;
},
{
glyphname = periodcentered;
lastChange = "2016-09-01 06:34:15 +0000";
layers = (
{
layerId = UUID0;
paths = (
{
closed = 1;
nodes = (
"49 238 LINE",
"49 243 LINE",
"61 263 LINE",
"78 283 LINE",
"95 298 LINE",
"101 298 LINE",
"120 298 LINE",
"148 285 LINE",
"166 265 LINE",
"175 242 LINE",
"175 232 LINE",
"175 225 LINE",
"163 207 LINE",
"143 191 LINE",
"118 180 LINE",
"106 180 LINE",
"93 180 LINE",
"72 193 LINE",
"57 211 LINE",
"49 231 LINE"
);
}
);
width = 218;
}
);
unicode = 00B7;
},
{
glyphname = cedilla;
lastChange = "2016-09-01 06:34:15 +0000";
layers = (
{
layerId = UUID0;
paths = (
{
closed = 1;
nodes = (
"154 -216 LINE",
"160 -211 LINE",
"170 -209 LINE",
"178 -209 LINE",
"194 -209 LINE",
"224 -227 LINE",
"252 -249 LINE",
"279 -268 LINE",
"294 -268 LINE",
"310 -268 LINE",
"338 -269 LINE",
"357 -261 LINE",
"367 -239 LINE",
"367 -215 LINE",
"368 -191 LINE",
"352 -165 LINE",
"324 -151 LINE",
"289 -145 LINE",
"251 -137 LINE",
"215 -125 LINE",
"187 -99 LINE",
"169 -56 LINE",
"169 -21 LINE",
"170 5 LINE",
"180 27 LINE",
"193 26 LINE",
"208 10 LINE",
"217 -10 LINE",
"219 -30 LINE",
"214 -35 LINE",
"214 -66 LINE",
"245 -93 LINE",
"291 -105 LINE",
"345 -111 LINE",
"391 -132 LINE",
"421 -176 LINE",
"421 -219 LINE",
"421 -243 LINE",
"396 -279 LINE",
"358 -302 LINE",
"311 -314 LINE",
"291 -314 LINE",
"262 -314 LINE",
"223 -297 LINE",
"195 -270 LINE",
"169 -235 LINE"
);
}
);
width = 457;
}
);
unicode = 00B8;
},
{
glyphname = guillemotright;
lastChange = "2016-09-01 06:34:15 +0000";
layers = (
{
layerId = UUID0;
paths = (
{
closed = 1;
nodes = (
"28 34 LINE",
"31 43 LINE",
"65 73 LINE",
"116 111 LINE",
"179 154 LINE",
"239 196 LINE",
"292 238 LINE",
"322 274 LINE",
"326 301 LINE",
"308 307 LINE",
"290 308 LINE",
"237 320 LINE",
"178 341 LINE",
"118 367 LINE",
"68 397 LINE",
"34 427 LINE",
"29 442 LINE",
"29 442 LINE",
"28 450 LINE",
"28 451 LINE",
"28 464 LINE",
"47 472 LINE",
"58 472 LINE",
"74 472 LINE",
"97 457 LINE",
"117 439 LINE",
"139 418 LINE",
"154 413 LINE",
"207 394 LINE",
"327 354 LINE",
"385 346 LINE",
"400 340 LINE",
"405 322 LINE",
"405 310 LINE",
"409 292 LINE",
"397 262 LINE",
"375 237 LINE",
"348 214 LINE",
"337 202 LINE",
"331 197 LINE",
"286 163 LINE",
"225 118 LINE",
"156 69 LINE",
"97 27 LINE",
"55 -1 LINE",
"52 -1 LINE",
"35 -1 LINE",
"28 21 LINE"
);
},
{
closed = 1;
nodes = (
"256 59 LINE",
"259 71 LINE",
"316 115 LINE",
"395 170 LINE",
"479 229 LINE",
"540 282 LINE",
"560 322 LINE",
"536 331 LINE",
"518 332 LINE",
"465 345 LINE",
"406 365 LINE",
"346 392 LINE",
"297 421 LINE",
"262 452 LINE",
"257 466 LINE",
"257 467 LINE",
"256 475 LINE",
"256 476 LINE",
"256 488 LINE",
"275 496 LINE",
"286 496 LINE",
"302 496 LINE",
"325 482 LINE",
"345 463 LINE",
"367 443 LINE",
"382 438 LINE",
"435 418 LINE",
"555 379 LINE",
"613 370 LINE",
"628 364 LINE",
"633 346 LINE",
"633 334 LINE",
"637 316 LINE",
"625 287 LINE",
"603 262 LINE",
"576 238 LINE",
"565 226 LINE",
"559 222 LINE",
"514 188 LINE",
"453 143 LINE",
"384 94 LINE",
"325 52 LINE",
"283 24 LINE",
"280 24 LINE",
"263 24 LINE",
"256 45 LINE"
);
}
);
width = 676;
}
);
unicode = 00BB;
},
{
glyphname = Aring;
lastChange = "2016-09-01 06:34:15 +0000";
layers = (
{
layerId = UUID0;
paths = (
{
closed = 1;
nodes = (
"164 847 LINE",
"164 868 LINE",
"184 901 LINE",
"217 924 LINE",
"256 935 LINE",
"277 935 LINE",
"293 935 LINE",
"320 918 LINE",
"340 892 LINE",
"352 863 LINE",
"352 850 LINE",
"352 830 LINE",
"334 798 LINE",
"320 787 LINE",
"313 781 LINE",
"304 776 LINE",
"331 771 LINE",
"355 757 LINE",
"391 736 LINE",
"446 665 LINE",
"487 571 LINE",
"515 468 LINE",
"534 361 LINE",
"544 265 LINE",
"548 186 LINE",
"548 160 LINE",
"548 142 LINE",
"547 111 LINE",
"545 82 LINE",
"541 49 LINE",
"538 29 LINE",
"529 18 LINE",
"505 -1 LINE",
"490 -1 LINE",
"477 -1 LINE",
"469 12 LINE",
"469 23 LINE",
"469 40 LINE",
"476 75 LINE",
"484 110 LINE",
"490 145 LINE",
"490 163 LINE",
"490 191 LINE",
"486 256 LINE",
"478 285 LINE",
"449 279 LINE",
"391 282 LINE",
"331 290 LINE",
"271 298 LINE",
"241 298 LINE",
"232 298 LINE",
"194 298 LINE",
"153 295 LINE",
"119 292 LINE",
"115 288 LINE",
"106 279 LINE",
"106 278 LINE",
"105 271 LINE",
"105 261 LINE",
"104 251 LINE",
"104 248 LINE",
"104 219 LINE",
"113 160 LINE",
"124 103 LINE",
"134 47 LINE",
"134 19 LINE",
"134 10 LINE",
"119 -4 LINE",
"95 5 LINE",
"76 40 LINE",
"63 95 LINE",
"55 160 LINE",
"55 228 LINE",
"58 259 LINE",
"55 262 LINE",
"44 275 LINE",
"31 290 LINE",
"21 304 LINE",
"19 307 LINE",
"19 309 LINE",
"19 310 LINE",
"19 312 LINE",
"19 319 LINE",
"26 325 LINE",
"36 328 LINE",
"46 332 LINE",
"49 337 LINE",
"49 364 LINE",
"52 406 LINE",
"58 501 LINE",
"71 592 LINE",
"97 676 LINE",
"145 740 LINE",
"183 759 LINE",
"196 766 LINE",
"213 771 LINE",
"199 776 LINE",
"189 786 LINE",
"164 808 LINE"
);
},
{
closed = 1;
nodes = (
"446 325 LINE",
"449 325 LINE",
"457 327 LINE",
"464 336 LINE",
"470 355 LINE",
"472 373 LINE",
"472 403 LINE",
"461 478 LINE",
"439 558 LINE",
"404 634 LINE",
"355 694 LINE",
"293 730 LINE",
"254 730 LINE",
"213 730 LINE",
"157 687 LINE",
"121 618 LINE",
"103 532 LINE",
"95 446 LINE",
"94 370 LINE",
"94 346 LINE"
);
},
{
closed = 1;
nodes = (
"196 845 LINE",
"196 820 LINE",
"226 796 LINE",
"253 796 LINE",
"259 795 LINE",
"281 803 LINE",
"302 818 LINE",
"317 840 LINE",
"316 864 LINE",
"295 889 LINE",
"268 900 LINE",
"255 900 LINE",
"229 895 LINE",
"208 882 LINE",
"196 861 LINE"
);
}
);
width = 576;
}
);
unicode = 00C5;
},
{
glyphname = AE;
lastChange = "2016-09-01 06:34:15 +0000";
layers = (
{
layerId = UUID0;
paths = (
{
closed = 1;
nodes = (
"565 572 LINE",
"561 572 LINE",
"559 573 LINE",
"563 564 LINE",
"563 559 LINE",
"563 378 LINE",
"568 370 LINE",
"616 370 LINE",
"682 377 LINE",
"757 390 LINE",
"820 401 LINE",
"863 408 LINE",
"865 406 LINE",
"868 406 LINE",
"886 408 LINE",
"905 409 LINE",
"922 410 LINE",
"925 410 LINE",
"925 386 LINE",
"872 356 LINE",
"792 340 LINE",
"699 331 LINE",
"617 325 LINE",
"561 318 LINE",
"559 310 LINE",
"553 294 LINE",
"548 255 LINE",
"547 234 LINE",
"547 226 LINE",
"547 219 LINE",
"548 184 LINE",
"548 160 LINE",
"548 142 LINE",
"547 126 LINE",
"547 121 LINE",
"548 111 LINE",
"548 102 LINE",
"548 90 LINE",
"553 79 LINE",
"580 70 LINE",
"611 67 LINE",
"640 69 LINE",
"647 69 LINE",
"681 69 LINE",
"749 76 LINE",
"817 83 LINE",
"884 90 LINE",
"918 90 LINE",
"923 90 LINE",
"925 89 LINE",
"934 87 LINE",
"943 83 LINE",
"950 80 LINE",
"952 79 LINE",
"954 79 LINE",
"961 72 LINE",
"961 70 LINE",
"961 52 LINE",
"919 27 LINE",
"856 12 LINE",
"779 4 LINE",
"710 2 LINE",
"685 2 LINE",
"652 2 LINE",
"612 2 LINE",
"581 9 LINE",
"555 15 LINE",
"536 28 LINE",
"529 17 LINE",
"517 8 LINE",
"505 -1 LINE",
"490 -1 LINE",
"477 -1 LINE",
"469 12 LINE",
"469 23 LINE",
"469 40 LINE",
"476 75 LINE",
"484 110 LINE",
"487 127 LINE",
"490 141 LINE",
"490 155 LINE",
"490 163 LINE",
"490 191 LINE",
"486 256 LINE",
"478 285 LINE",
"449 279 LINE",
"391 282 LINE",
"331 290 LINE",
"271 298 LINE",
"241 298 LINE",
"232 298 LINE",
"194 298 LINE",
"153 295 LINE",
"119 292 LINE",
"115 288 LINE",
"106 279 LINE",
"106 278 LINE",
"105 271 LINE",
"105 261 LINE",
"104 251 LINE",
"104 248 LINE",
"104 219 LINE",
"113 160 LINE",
"124 103 LINE",
"134 47 LINE",
"134 19 LINE",
"134 10 LINE",
"119 -4 LINE",
"95 5 LINE",
"76 40 LINE",
"63 95 LINE",
"55 160 LINE",
"55 228 LINE",
"58 259 LINE",
"55 262 LINE",
"44 275 LINE",
"31 290 LINE",
"21 304 LINE",
"19 307 LINE",
"19 309 LINE",
"19 310 LINE",
"19 312 LINE",
"19 319 LINE",
"26 325 LINE",
"36 328 LINE",
"46 332 LINE",
"49 337 LINE",
"49 364 LINE",
"52 406 LINE",
"58 501 LINE",
"71 592 LINE",
"97 676 LINE",
"145 740 LINE",
"220 778 LINE",
"276 778 LINE",
"320 778 LINE",
"391 736 LINE",
"446 665 LINE",
"487 571 LINE",
"501 520 LINE",
"505 503 LINE",
"505 598 LINE",
"505 615 LINE",
"513 631 LINE",
"539 637 LINE",
"589 635 LINE",
"673 631 LINE",
"799 628 LINE",
"887 630 LINE",
"897 625 LINE",
"918 616 LINE",
"934 603 LINE",
"945 585 LINE",
"945 572 LINE",
"945 569 LINE",
"937 561 LINE",
"935 562 LINE",
"887 581 LINE"
);
},
{
closed = 1;
nodes = (
"446 325 LINE",
"449 325 LINE",
"457 327 LINE",
"464 336 LINE",
"470 355 LINE",
"472 373 LINE",
"472 403 LINE",
"461 478 LINE",
"439 558 LINE",
"404 634 LINE",
"355 694 LINE",
"293 730 LINE",
"254 730 LINE",
"213 730 LINE",
"157 687 LINE",
"121 618 LINE",
"103 532 LINE",
"95 446 LINE",
"94 370 LINE",
"94 346 LINE"
);
}
);
width = 985;
}
);
unicode = 00C6;
},
{
glyphname = Ccedilla;
lastChange = "2016-09-01 06:34:15 +0000";
layers = (
{
layerId = UUID0;
paths = (
{
closed = 1;
nodes = (
"131 -216 LINE",
"137 -211 LINE",
"148 -209 LINE",
"155 -209 LINE",
"172 -209 LINE",
"202 -227 LINE",
"229 -249 LINE",
"256 -268 LINE",
"271 -268 LINE",
"288 -268 LINE",
"316 -269 LINE",
"334 -261 LINE",
"345 -239 LINE",
"345 -215 LINE",
"346 -191 LINE",
"329 -165 LINE",
"301 -151 LINE",
"266 -145 LINE",
"229 -137 LINE",
"193 -125 LINE",
"164 -99 LINE",
"147 -56 LINE",
"146 -21 LINE",
"147 -2 LINE",
"150 8 LINE",
"145 10 LINE",
"142 12 LINE",
"115 25 LINE",
"75 69 LINE",
"46 126 LINE",
"27 188 LINE",
"19 250 LINE",
"19 277 LINE",
"19 316 LINE",
"45 404 LINE",
"91 490 LINE",
"154 568 LINE",
"229 628 LINE",
"313 663 LINE",
"355 663 LINE",
"379 663 LINE",
"404 627 LINE",
"404 605 LINE",
"404 592 LINE",
"394 558 LINE",
"374 525 LINE",
"349 502 LINE",
"334 502 LINE",
"334 512 LINE",
"340 531 LINE",
"349 548 LINE",
"356 566 LINE",
"356 577 LINE",
"356 591 LINE",
"333 596 LINE",
"322 596 LINE",
"320 596 LINE",
"309 595 LINE",
"307 595 LINE",
"261 577 LINE",
"174 519 LINE",
"106 442 LINE",
"66 349 LINE",
"66 296 LINE",
"66 262 LINE",
"79 181 LINE",
"111 112 LINE",
"166 66 LINE",
"207 66 LINE",
"241 66 LINE",
"308 79 LINE",
"375 94 LINE",
"442 106 LINE",
"476 106 LINE",
"484 106 LINE",
"500 102 LINE",
"500 91 LINE",
"500 86 LINE",
"487 72 LINE",
"470 58 LINE",
"454 49 LINE",
"451 49 LINE",
"221 0 LINE",
"220 0 LINE",
"205 -1 LINE",
"202 -1 LINE",
"196 -1 LINE",
"190 0 LINE",
"194 -10 LINE",
"196 -30 LINE",
"192 -35 LINE",
"192 -66 LINE",
"223 -93 LINE",
"268 -105 LINE",
"322 -111 LINE",
"368 -132 LINE",
"399 -176 LINE",
"399 -219 LINE",
"399 -243 LINE",
"373 -279 LINE",
"335 -302 LINE",
"289 -314 LINE",
"268 -314 LINE",
"239 -314 LINE",
"201 -297 LINE",
"172 -270 LINE",
"147 -235 LINE"
);
}
);
width = 529;
}
);
unicode = 00C7;
},
{
glyphname = Eth;
lastChange = "2016-09-01 06:34:15 +0000";
layers = (
{
layerId = UUID0;
paths = (
{
closed = 1;
nodes = (
"463 375 LINE",
"477 375 LINE",
"510 373 LINE",
"538 364 LINE",
"556 344 LINE",
"556 326 LINE",
"556 306 LINE",
"537 306 LINE",
"515 306 LINE",
"478 317 LINE",
"454 317 LINE",
"437 317 LINE",
"403 314 LINE",
"386 312 LINE",
"391 286 LINE",
"398 253 LINE",
"404 230 LINE",
"408 211 LINE",
"409 190 LINE",
"407 160 LINE",
"404 136 LINE",
"404 130 LINE",
"403 117 LINE",
"399 104 LINE",
"388 96 LINE",
"379 96 LINE",
"359 85 LINE",
"347 109 LINE",
"346 167 LINE",
"346 253 LINE",
"337 305 LINE",
"309 301 LINE",
"253 294 LINE",
"225 294 LINE",
"225 314 LINE",
"241 341 LINE",
"268 358 LINE",
"305 367 LINE",
"325 369 LINE",
"324 378 LINE",
"318 415 LINE",
"310 460 LINE",
"301 509 LINE",
"292 551 LINE",
"283 581 LINE",
"279 586 LINE",
"207 586 LINE",
"121 577 LINE",
"70 565 LINE",
"47 552 LINE",
"38 547 LINE",
"37 547 LINE",
"36 547 LINE",
"34 546 LINE",
"33 546 LINE",
"31 546 LINE",
"31 547 LINE",
"30 547 LINE",
"29 547 LINE",
"28 548 LINE",
"27 551 LINE",
"25 559 LINE",
"23 564 LINE",
"20 574 LINE",
"19 576 LINE",
"19 580 LINE",
"19 594 LINE",
"49 613 LINE",
"92 628 LINE",
"144 637 LINE",
"189 641 LINE",
"220 643 LINE",
"221 643 LINE",
"272 643 LINE",
"388 621 LINE",
"501 577 LINE",
"604 512 LINE",
"683 427 LINE",
"730 324 LINE",
"730 264 LINE",
"730 209 LINE",
"696 121 LINE",
"636 55 LINE",
"556 10 LINE",
"466 -11 LINE",
"371 -11 LINE",
"326 0 LINE",
"317 3 LINE",
"291 13 LINE",
"266 28 LINE",
"249 49 LINE",
"249 61 LINE",
"249 70 LINE",
"253 87 LINE",
"264 87 LINE",
"269 87 LINE",
"310 76 LINE",
"358 62 LINE",
"403 50 LINE",
"413 49 LINE",
"418 49 LINE",
"461 49 LINE",
"552 82 LINE",
"626 142 LINE",
"673 221 LINE",
"673 267 LINE",
"673 303 LINE",
"645 372 LINE",
"598 436 LINE",
"535 490 LINE",
"465 533 LINE",
"393 563 LINE",
"360 569 LINE",
"360 561 LINE",
"362 529 LINE",
"366 490 LINE",
"370 448 LINE",
"374 409 LINE",
"376 394 LINE",
"378 371 LINE",
"395 371 LINE",
"427 373 LINE",
"440 374 LINE",
"441 374 LINE",
"459 375 LINE"
);
}
);
width = 759;
}
);
unicode = 00D0;
},
{
glyphname = multiply;
lastChange = "2016-09-01 06:34:15 +0000";
layers = (
{
layerId = UUID0;
paths = (
{
closed = 1;
nodes = (
"279 66 LINE",
"265 82 LINE",
"253 97 LINE",
"250 103 LINE",
"248 104 LINE",
"241 112 LINE",
"223 132 LINE",
"205 152 LINE",
"199 151 LINE",
"187 139 LINE",
"167 116 LINE",
"138 82 LINE",
"115 60 LINE",
"110 60 LINE",
"98 64 LINE",
"87 70 LINE",
"79 79 LINE",
"79 83 LINE",
"88 106 LINE",
"113 135 LINE",
"137 156 LINE",
"154 177 LINE",
"154 193 LINE",
"154 193 LINE",
"153 196 LINE",
"153 197 LINE",
"136 213 LINE",
"116 234 LINE",
"98 253 LINE",
"74 277 LINE",
"52 295 LINE",
"51 302 LINE",
"62 316 LINE",
"78 325 LINE",
"94 331 LINE",
"98 331 LINE",
"120 311 LINE",
"141 288 LINE",
"157 271 LINE",
"175 257 LINE",
"196 246 LINE",
"216 249 LINE",
"251 272 LINE",
"283 300 LINE",
"310 324 LINE",
"331 333 LINE",
"348 319 LINE",
"353 295 LINE",
"353 287 LINE",
"328 268 LINE",
"293 244 LINE",
"254 214 LINE",
"239 197 LINE",
"260 178 LINE",
"278 157 LINE",
"290 142 LINE",
"307 124 LINE",
"328 107 LINE",
"322 94 LINE",
"295 78 LINE"
);
}
);
width = 459;
}
);
unicode = 00D7;
},
{
glyphname = Oslash;
lastChange = "2016-09-01 06:34:15 +0000";
layers = (
{
layerId = UUID0;
paths = (
{
closed = 1;
nodes = (
"127 -70 LINE",
"127 -56 LINE",
"140 -14 LINE",
"149 7 LINE",
"155 20 LINE",
"160 32 LINE",
"126 50 LINE",
"99 76 LINE",
"61 112 LINE",
"19 216 LINE",
"19 279 LINE",
"16 322 LINE",
"43 399 LINE",
"94 457 LINE",
"166 493 LINE",
"209 496 LINE",
"269 487 LINE",
"325 468 LINE",
"348 530 LINE",
"351 544 LINE",
"357 586 LINE",
"367 627 LINE",
"383 660 LINE",
"396 664 LINE",
"405 662 LINE",
"413 652 LINE",
"416 639 LINE",
"415 625 LINE",
"415 619 LINE",
"415 604 LINE",
"397 525 LINE",
"381 471 LINE",
"378 460 LINE",
"375 448 LINE",
"430 424 LINE",
"473 389 LINE",
"526 347 LINE",
"592 235 LINE",
"596 165 LINE",
"586 113 LINE",
"523 53 LINE",
"439 19 LINE",
"345 5 LINE",
"304 -1 LINE",
"260 -1 LINE",
"220 9 LINE",
"218 3 LINE",
"215 -2 LINE",
"196 -48 LINE",
"164 -104 LINE",
"156 -104 LINE",
"143 -104 LINE",
"127 -80 LINE"
);
},
{
closed = 1;
nodes = (
"295 52 LINE",
"308 52 LINE",
"355 57 LINE",
"409 68 LINE",
"464 87 LINE",
"509 114 LINE",
"538 151 LINE",
"538 175 LINE",
"531 224 LINE",
"484 303 LINE",
"416 363 LINE",
"376 384 LINE",
"358 393 LINE",
"352 374 LINE",
"345 354 LINE",
"325 291 LINE",
"280 163 LINE",
"258 103 LINE",
"250 83 LINE",
"244 65 LINE",
"269 56 LINE"
);
},
{
closed = 1;
nodes = (
"66 283 LINE",
"65 238 LINE",
"106 158 LINE",
"139 127 LINE",
"162 106 LINE",
"188 91 LINE",
"306 414 LINE",
"297 417 LINE",
"258 430 LINE",
"190 437 LINE",
"168 433 LINE",
"137 422 LINE",
"97 387 LINE",
"75 346 LINE",
"66 304 LINE"
);
}
);
width = 625;
}
);
unicode = 00D8;
},
{
glyphname = Thorn;
lastChange = "2016-09-01 06:34:15 +0000";
layers = (
{
layerId = UUID0;
paths = (
{
closed = 1;
nodes = (
"117 611 LINE",
"118 601 LINE",
"118 551 LINE",
"114 489 LINE",
"110 422 LINE",
"108 367 LINE",
"109 333 LINE",
"114 334 LINE",
"132 334 LINE",
"167 346 LINE",
"187 346 LINE",
"217 346 LINE",
"285 335 LINE",
"352 313 LINE",
"415 278 LINE",
"462 232 LINE",
"490 172 LINE",
"490 136 LINE",
"490 90 LINE",
"445 35 LINE",
"375 7 LINE",
"293 -1 LINE",
"256 -1 LINE",
"245 -1 LINE",
"207 12 LINE",
"166 28 LINE",
"130 43 LINE",
"123 46 LINE",
"135 -160 LINE",
"79 -138 LINE",
"58 307 LINE",
"58 310 LINE",
"55 342 LINE",
"54 388 LINE",
"52 445 LINE",
"50 502 LINE",
"50 557 LINE",
"52 599 LINE",
"55 624 LINE",
"58 623 LINE"
);
},
{
closed = 1;
nodes = (
"125 217 LINE",
"115 174 LINE",
"145 109 LINE",
"205 69 LINE",
"282 53 LINE",
"358 64 LINE",
"419 101 LINE",
"433 134 LINE",
"433 161 LINE",
"409 205 LINE",
"369 239 LINE",
"318 264 LINE",
"265 280 LINE",
"213 289 LINE",
"193 289 LINE",
"160 289 LINE",
"125 250 LINE"
);
}
);
width = 509;
}
);
unicode = 00DE;
},
{
glyphname = germandbls;
lastChange = "2016-09-01 06:34:15 +0000";
layers = (
{
layerId = UUID0;
paths = (
{
closed = 1;
nodes = (
"154 -137 LINE",
"152 -137 LINE",
"122 -132 LINE",
"88 -125 LINE",
"62 -111 LINE",
"64 -101 LINE",
"81 -56 LINE",
"92 48 LINE",
"89 159 LINE",
"75 273 LINE",
"57 384 LINE",
"40 487 LINE",
"31 577 LINE",
"34 649 LINE",
"56 697 LINE",
"102 718 LINE",
"140 710 LINE",
"159 710 LINE",
"209 702 LINE",
"263 685 LINE",
"316 661 LINE",
"358 629 LINE",
"385 589 LINE",
"385 565 LINE",
"385 539 LINE",
"363 496 LINE",
"337 461 LINE",
"315 433 LINE",
"315 422 LINE",
"315 421 LINE",
"355 401 LINE",
"415 367 LINE",
"485 317 LINE",
"546 256 LINE",
"586 185 LINE",
"586 145 LINE",
"586 117 LINE",
"550 78 LINE",
"491 51 LINE",
"418 36 LINE",
"345 28 LINE",
"279 25 LINE",
"256 25 LINE",
"248 25 LINE",
"234 28 LINE",
"226 38 LINE",
"225 61 LINE",
"230 83 LINE",
"250 83 LINE",
"309 82 LINE",
"373 82 LINE",
"436 89 LINE",
"487 106 LINE",
"518 135 LINE",
"518 158 LINE",
"518 207 LINE",
"467 272 LINE",
"390 318 LINE",
"300 349 LINE",
"223 376 LINE",
"172 406 LINE",
"172 427 LINE",
"172 438 LINE",
"195 451 LINE",
"230 461 LINE",
"271 472 LINE",
"306 493 LINE",
"329 525 LINE",
"329 552 LINE",
"329 574 LINE",
"305 608 LINE",
"268 631 LINE",
"225 644 LINE",
"206 644 LINE",
"178 644 LINE",
"118 631 LINE",
"96 614 LINE"
);
}
);
width = 605;
}
);
unicode = 00DF;
},
{
glyphname = aring;
lastChange = "2016-09-01 06:34:15 +0000";
layers = (
{
layerId = UUID0;
paths = (
{
closed = 1;
nodes = (
"162 579 LINE",
"162 601 LINE",
"182 634 LINE",
"214 656 LINE",
"254 667 LINE",
"274 667 LINE",
"291 667 LINE",
"318 650 LINE",
"338 625 LINE",
"349 595 LINE",
"349 583 LINE",
"349 562 LINE",
"332 530 LINE",
"304 508 LINE",
"286 502 LINE",
"281 499 LINE",
"276 499 LINE",
"289 493 LINE",
"303 486 LINE",
"339 466 LINE",
"400 403 LINE",
"446 323 LINE",
"477 236 LINE",
"488 147 LINE",
"483 106 LINE",
"482 106 LINE",
"472 107 LINE",
"460 108 LINE",
"455 109 LINE",
"451 109 LINE",
"430 157 LINE",
"378 215 LINE",
"327 247 LINE",
"283 261 LINE",
"269 264 LINE",
"254 264 LINE",
"213 259 LINE",
"169 250 LINE",
"124 233 LINE",
"89 209 LINE",
"67 175 LINE",
"67 154 LINE",
"67 130 LINE",
"106 97 LINE",
"160 76 LINE",
"216 67 LINE",
"233 67 LINE",
"261 67 LINE",
"315 73 LINE",
"367 82 LINE",
"420 88 LINE",
"446 88 LINE",
"453 88 LINE",
"458 88 LINE",
"469 87 LINE",
"473 87 LINE",
"480 87 LINE",
"488 84 LINE",
"490 72 LINE",
"490 66 LINE",
"490 60 LINE",
"465 46 LINE",
"425 31 LINE",
"376 17 LINE",
"331 7 LINE",
"292 0 LINE",
"283 0 LINE",
"241 0 LINE",
"148 14 LINE",
"70 51 LINE",
"19 117 LINE",
"19 169 LINE",
"19 186 LINE",
"38 230 LINE",
"76 271 LINE",
"133 305 LINE",
"213 319 LINE",
"314 307 LINE",
"376 283 LINE",
"376 283 LINE",
"375 301 LINE",
"375 302 LINE",
"375 328 LINE",
"345 382 LINE",
"298 425 LINE",
"244 452 LINE",
"219 452 LINE",
"208 452 LINE",
"193 445 LINE",
"180 437 LINE",
"167 430 LINE",
"158 430 LINE",
"157 430 LINE",
"156 431 LINE",
"155 432 LINE",
"154 433 LINE",
"151 434 LINE",
"145 441 LINE",
"145 442 LINE",
"145 460 LINE",
"158 486 LINE",
"181 502 LINE",
"195 506 LINE",
"201 508 LINE",
"193 512 LINE",
"187 518 LINE",
"162 541 LINE"
);
},
{
closed = 1;
nodes = (
"193 577 LINE",
"193 553 LINE",
"223 528 LINE",
"250 528 LINE",
"257 527 LINE",
"279 535 LINE",
"300 550 LINE",
"315 572 LINE",
"314 596 LINE",
"292 621 LINE",
"266 632 LINE",
"253 632 LINE",
"226 627 LINE",
"206 614 LINE",
"193 593 LINE"
);
}
);
width = 518;
}
);
unicode = 00E5;
},
{
glyphname = ae;
lastChange = "2016-09-01 06:34:15 +0000";
layers = (
{
layerId = UUID0;
paths = (
{
closed = 1;
nodes = (
"19 169 LINE",
"19 186 LINE",
"38 230 LINE",
"76 271 LINE",
"133 305 LINE",
"213 319 LINE",
"314 307 LINE",
"376 283 LINE",
"376 283 LINE",
"375 301 LINE",
"375 302 LINE",
"375 328 LINE",
"345 382 LINE",
"298 425 LINE",
"244 452 LINE",
"219 452 LINE",
"208 452 LINE",
"193 445 LINE",
"180 437 LINE",
"167 430 LINE",
"158 430 LINE",
"157 430 LINE",
"156 431 LINE",
"155 432 LINE",
"154 433 LINE",
"151 434 LINE",
"145 441 LINE",
"145 442 LINE",
"145 460 LINE",
"158 486 LINE",
"181 502 LINE",
"210 511 LINE",
"226 511 LINE",
"267 506 LINE",
"339 466 LINE",
"400 403 LINE",
"423 363 LINE",
"426 357 LINE",
"430 352 LINE",
"445 394 LINE",
"472 427 LINE",
"502 463 LINE",
"587 506 LINE",
"643 506 LINE",
"676 502 LINE",
"724 475 LINE",
"756 433 LINE",
"770 380 LINE",
"769 350 LINE",
"769 314 LINE",
"727 256 LINE",
"663 217 LINE",
"589 196 LINE",
"556 196 LINE",
"544 196 LINE",
"520 197 LINE",
"500 205 LINE",
"488 221 LINE",
"488 237 LINE",
"488 242 LINE",
"491 249 LINE",
"505 252 LINE",
"532 250 LINE",
"556 245 LINE",
"570 245 LINE",
"624 264 LINE",
"679 294 LINE",
"719 332 LINE",
"719 352 LINE",
"719 371 LINE",
"706 410 LINE",
"680 440 LINE",
"645 458 LINE",
"623 457 LINE",
"588 454 LINE",
"531 421 LINE",
"490 371 LINE",
"469 308 LINE",
"469 275 LINE",
"469 257 LINE",
"478 225 LINE",
"482 191 LINE",
"485 169 LINE",
"485 147 LINE",
"490 135 LINE",
"498 124 LINE",
"513 101 LINE",
"568 66 LINE",
"652 43 LINE",
"714 40 LINE",
"892 52 LINE",
"876 30 LINE",
"828 1 LINE",
"773 -16 LINE",
"718 -23 LINE",
"695 -23 LINE",
"637 -23 LINE",
"535 14 LINE",
"496 49 LINE",
"486 58 LINE",
"483 55 LINE",
"478 52 LINE",
"465 46 LINE",
"425 31 LINE",
"376 17 LINE",
"331 7 LINE",
"292 0 LINE",
"283 0 LINE",
"241 0 LINE",
"148 14 LINE",
"70 51 LINE",
"19 117 LINE"
);
},
{
closed = 1;
nodes = (
"403 186 LINE",
"378 215 LINE",
"327 247 LINE",
"283 261 LINE",
"269 264 LINE",
"254 264 LINE",
"213 259 LINE",
"169 250 LINE",
"124 233 LINE",
"89 209 LINE",
"67 175 LINE",
"67 154 LINE",
"67 130 LINE",
"106 97 LINE",
"160 76 LINE",
"216 67 LINE",
"233 67 LINE",
"261 67 LINE",
"315 73 LINE",
"367 82 LINE",
"420 88 LINE",
"446 88 LINE",
"453 88 LINE",
"457 88 LINE",
"461 87 LINE",
"446 109 LINE",
"434 133 LINE",
"429 145 LINE",
"424 158 LINE",
"415 174 LINE"
);
}
);
width = 903;
}
);
unicode = 00E6;
},
{
glyphname = ccedilla;
lastChange = "2016-09-01 06:34:15 +0000";
layers = (
{
layerId = UUID0;
paths = (
{
closed = 1;
nodes = (
"129 -209 LINE",
"135 -203 LINE",
"145 -201 LINE",
"153 -201 LINE",
"169 -201 LINE",
"199 -220 LINE",
"227 -242 LINE",
"254 -260 LINE",
"269 -260 LINE",
"286 -260 LINE",
"313 -261 LINE",
"332 -254 LINE",
"343 -231 LINE",
"343 -207 LINE",
"343 -184 LINE",
"327 -158 LINE",
"299 -143 LINE",
"264 -137 LINE",
"226 -130 LINE",
"190 -117 LINE",
"162 -92 LINE",
"145 -48 LINE",
"144 -14 LINE",
"145 6 LINE",
"148 17 LINE",
"113 30 LINE",
"87 52 LINE",
"55 79 LINE",
"19 164 LINE",
"19 223 LINE",
"19 267 LINE",
"53 350 LINE",
"112 414 LINE",
"190 452 LINE",
"234 452 LINE",
"253 452 LINE",
"299 443 LINE",
"339 423 LINE",
"365 390 LINE",
"365 365 LINE",
"365 361 LINE",
"360 337 LINE",
"352 313 LINE",
"341 294 LINE",
"337 294 LINE",
"337 341 LINE",
"285 404 LINE",
"235 404 LINE",
"196 404 LINE",
"137 372 LINE",
"97 320 LINE",
"76 255 LINE",
"76 221 LINE",
"76 175 LINE",
"106 115 LINE",
"158 78 LINE",
"226 60 LINE",
"301 54 LINE",
"378 56 LINE",
"413 58 LINE",
"416 58 LINE",
"430 50 LINE",
"433 49 LINE",
"433 46 LINE",
"433 45 LINE",
"433 43 LINE",
"433 43 LINE",
"433 31 LINE",
"412 16 LINE",
"380 6 LINE",
"342 1 LINE",
"305 -1 LINE",
"291 -1 LINE",
"271 -1 LINE",
"226 -1 LINE",
"188 7 LINE",
"192 -3 LINE",
"193 -12 LINE",
"194 -23 LINE",
"190 -27 LINE",
"190 -59 LINE",
"220 -86 LINE",
"266 -98 LINE",
"320 -104 LINE",
"366 -125 LINE",
"397 -168 LINE",
"397 -212 LINE",
"397 -236 LINE",
"371 -272 LINE",
"333 -295 LINE",
"286 -306 LINE",
"266 -306 LINE",
"237 -306 LINE",
"199 -290 LINE",
"170 -263 LINE",
"145 -227 LINE"
);
}
);
width = 460;
}
);
unicode = 00E7;
},
{
glyphname = igrave;
lastChange = "2016-09-01 06:34:15 +0000";
layers = (
{
layerId = UUID0;
paths = (
{
closed = 1;
nodes = (
"63 346 LINE",
"63 361 LINE",
"63 372 LINE",
"64 396 LINE",
"64 406 LINE",
"64 422 LINE",
"59 453 LINE",
"82 453 LINE",
"93 453 LINE",
"106 443 LINE",
"112 433 LINE",
"109 380 LINE",
"124 283 LINE",
"143 189 LINE",
"160 93 LINE",
"160 41 LINE",
"160 28 LINE",
"143 -1 LINE",
"126 -1 LINE",
"113 -1 LINE",
"94 44 LINE",
"80 113 LINE",
"70 197 LINE",
"65 274 LINE",
"63 334 LINE"
);
},
{
closed = 1;
nodes = (
"84 589 LINE",
"96 580 LINE",
"109 568 LINE",
"120 557 LINE",
"133 545 LINE",
"145 535 LINE",
"147 534 LINE",
"154 520 LINE",
"154 517 LINE",
"154 496 LINE",
"140 487 LINE",
"126 487 LINE",
"124 487 LINE",
"117 490 LINE",
"97 504 LINE",
"64 533 LINE",
"36 560 LINE",
"28 571 LINE",
"14 597 LINE",
"18 611 LINE",
"48 607 LINE"
);
}
);
width = 179;
}
);
unicode = 00EC;
},
{
glyphname = iacute;
lastChange = "2016-09-01 06:34:15 +0000";
layers = (
{
layerId = UUID0;
paths = (
{
closed = 1;
nodes = (
"63 346 LINE",
"63 361 LINE",
"63 372 LINE",
"64 396 LINE",
"64 406 LINE",
"64 422 LINE",
"59 453 LINE",
"82 453 LINE",
"93 453 LINE",
"106 443 LINE",
"112 433 LINE",
"109 380 LINE",
"124 283 LINE",
"143 189 LINE",
"160 93 LINE",
"160 41 LINE",
"160 28 LINE",
"143 -1 LINE",
"126 -1 LINE",
"113 -1 LINE",
"94 44 LINE",
"80 113 LINE",
"70 197 LINE",
"65 274 LINE",
"63 334 LINE"
);
},
{
closed = 1;
nodes = (
"-11 505 LINE",
"-11 526 LINE",
"21 564 LINE",
"65 598 LINE",
"112 628 LINE",
"128 640 LINE",
"149 630 LINE",
"144 602 LINE",
"106 564 LINE",
"46 514 LINE",
"13 481 LINE",
"-2 481 LINE",
"-11 490 LINE"
);
}
);
width = 179;
}
);
unicode = 00ED;
},
{
glyphname = icircumflex;
lastChange = "2016-09-01 06:34:15 +0000";
layers = (
{
layerId = UUID0;
paths = (
{
closed = 1;
nodes = (
"63 346 LINE",
"63 361 LINE",
"63 372 LINE",
"64 396 LINE",
"64 406 LINE",
"64 422 LINE",
"59 453 LINE",
"82 453 LINE",
"93 453 LINE",
"106 443 LINE",
"112 433 LINE",
"109 380 LINE",
"124 283 LINE",
"143 189 LINE",
"160 93 LINE",
"160 41 LINE",
"160 28 LINE",
"143 -1 LINE",
"126 -1 LINE",
"113 -1 LINE",
"94 44 LINE",
"80 113 LINE",
"70 197 LINE",
"65 274 LINE",
"63 334 LINE"
);
},
{
closed = 1;
nodes = (
"93 634 LINE",
"74 610 LINE",
"31 563 LINE",
"-8 538 LINE",
"-41 544 LINE",
"-49 572 LINE",
"-20 598 LINE",
"19 630 LINE",
"46 661 LINE",
"64 703 LINE",
"73 739 LINE",
"76 747 LINE",
"88 749 LINE",
"94 749 LINE",
"108 749 LINE",
"122 736 LINE",
"131 721 LINE",
"137 711 LINE",
"159 685 LINE",
"182 659 LINE",
"203 634 LINE",
"209 625 LINE",
"216 614 LINE",
"223 601 LINE",
"227 590 LINE",
"229 578 LINE",
"229 568 LINE",
"229 555 LINE",
"223 538 LINE",
"209 538 LINE",
"194 538 LINE",
"169 559 LINE",
"142 589 LINE",
"112 622 LINE"
);
}
);
width = 179;
}
);
unicode = 00EE;
},
{
glyphname = idieresis;
lastChange = "2016-09-01 06:34:15 +0000";
layers = (
{
layerId = UUID0;
paths = (
{
closed = 1;
nodes = (
"63 346 LINE",
"63 361 LINE",
"63 372 LINE",
"64 396 LINE",
"64 406 LINE",
"64 422 LINE",
"59 453 LINE",
"82 453 LINE",
"93 453 LINE",
"106 443 LINE",
"112 433 LINE",
"109 380 LINE",
"124 283 LINE",
"143 189 LINE",
"160 93 LINE",
"160 41 LINE",
"160 28 LINE",
"143 -1 LINE",
"126 -1 LINE",
"113 -1 LINE",
"94 44 LINE",
"80 113 LINE",
"70 197 LINE",
"65 274 LINE",
"63 334 LINE"
);
},
{
closed = 1;
nodes = (
"109 547 LINE",
"109 552 LINE",
"119 568 LINE",
"133 586 LINE",
"148 598 LINE",
"154 598 LINE",
"169 598 LINE",
"191 587 LINE",
"205 571 LINE",
"213 551 LINE",
"213 542 LINE",
"213 536 LINE",
"203 521 LINE",
"187 508 LINE",
"167 499 LINE",
"157 499 LINE",
"146 499 LINE",
"128 510 LINE",
"116 525 LINE",
"109 541 LINE"
);
},
{
closed = 1;
nodes = (
"-50 547 LINE",
"-50 552 LINE",
"-41 568 LINE",
"-27 586 LINE",
"-12 598 LINE",
"-7 598 LINE",
"9 598 LINE",
"31 587 LINE",
"46 571 LINE",
"53 551 LINE",
"53 542 LINE",
"53 536 LINE",
"43 521 LINE",
"27 508 LINE",
"7 499 LINE",
"-2 499 LINE",
"-14 499 LINE",
"-32 510 LINE",
"-44 525 LINE",
"-50 541 LINE"
);
}
);
width = 179;
}
);
unicode = 00EF;
},
{
glyphname = eth;
lastChange = "2016-09-01 06:34:15 +0000";
layers = (
{
layerId = UUID0;
paths = (
{
closed = 1;
nodes = (
"412 445 LINE",
"413 441 LINE",
"398 424 LINE",
"374 406 LINE",
"344 393 LINE",
"331 393 LINE",
"347 370 LINE",
"373 317 LINE",
"392 260 LINE",
"403 204 LINE",
"403 179 LINE",
"403 143 LINE",
"385 74 LINE",
"346 20 LINE",
"284 -13 LINE",
"241 -13 LINE",
"203 -13 LINE",
"126 3 LINE",
"64 39 LINE",
"24 97 LINE",
"24 139 LINE",
"24 174 LINE",
"49 233 LINE",
"95 276 LINE",
"157 299 LINE",
"194 299 LINE",
"213 299 LINE",
"243 298 LINE",
"271 295 LINE",
"301 288 LINE",
"320 281 LINE",
"320 286 LINE",
"320 306 LINE",
"294 355 LINE",
"274 379 LINE",
"255 373 LINE",
"218 354 LINE",
"186 338 LINE",
"158 328 LINE",
"139 335 LINE",
"128 362 LINE",
"129 390 LINE",
"135 388 LINE",
"162 399 LINE",
"192 412 LINE",
"221 423 LINE",
"230 421 LINE",
"216 431 LINE",
"180 455 LINE",
"144 475 LINE",
"111 488 LINE",
"100 488 LINE",
"96 488 LINE",
"92 487 LINE",
"77 479 LINE",
"62 469 LINE",
"49 462 LINE",
"46 462 LINE",
"40 462 LINE",
"32 469 LINE",
"27 481 LINE",
"24 493 LINE",
"24 499 LINE",
"24 511 LINE",
"40 527 LINE",
"62 538 LINE",
"87 541 LINE",
"96 541 LINE",
"124 538 LINE",
"172 527 LINE",
"214 507 LINE",
"255 473 LINE",
"276 448 LINE",
"297 447 LINE",
"328 459 LINE",
"352 475 LINE",
"370 488 LINE",
"385 489 LINE",
"402 470 LINE"
);
},
{
closed = 1;
nodes = (
"356 160 LINE",
"359 185 LINE",
"332 221 LINE",
"284 246 LINE",
"220 257 LINE",
"187 257 LINE",
"170 257 LINE",
"132 236 LINE",
"99 204 LINE",
"77 166 LINE",
"77 150 LINE",
"77 119 LINE",
"105 79 LINE",
"148 56 LINE",
"201 47 LINE",
"226 47 LINE",
"277 51 LINE",
"346 105 LINE"
);
}
);
width = 418;
}
);
unicode = 00F0;
},
{
glyphname = oslash;
lastChange = "2016-09-01 06:34:15 +0000";
layers = (
{
layerId = UUID0;
paths = (
{
closed = 1;
nodes = (
"57 21 LINE",
"57 29 LINE",
"64 42 LINE",
"70 49 LINE",
"75 58 LINE",
"49 82 LINE",
"34 118 LINE",
"19 157 LINE",
"19 204 LINE",
"19 259 LINE",
"67 341 LINE",
"145 397 LINE",
"242 424 LINE",
"291 424 LINE",
"307 424 LINE",
"322 421 LINE",
"325 429 LINE",
"328 436 LINE",
"334 449 LINE",
"353 469 LINE",
"368 472 LINE",
"378 471 LINE",
"388 465 LINE",
"391 457 LINE",
"391 448 LINE",
"391 444 LINE",
"391 435 LINE",
"379 410 LINE",
"376 403 LINE",
"373 396 LINE",
"377 392 LINE",
"382 388 LINE",
"403 372 LINE",
"435 329 LINE",
"457 283 LINE",
"470 235 LINE",
"470 214 LINE",
"470 163 LINE",
"430 83 LINE",
"362 28 LINE",
"276 -1 LINE",
"231 -1 LINE",
"185 -1 LINE",
"146 13 LINE",
"135 17 LINE",
"124 22 LINE",
"121 19 LINE",
"118 17 LINE",
"100 0 LINE",
"91 0 LINE",
"76 0 LINE",
"57 14 LINE"
);
},
{
closed = 1;
nodes = (
"220 57 LINE",
"237 55 LINE",
"286 70 LINE",
"335 99 LINE",
"380 140 LINE",
"409 189 LINE",
"417 241 LINE",
"391 295 LINE",
"358 319 LINE",
"350 326 LINE",
"340 332 LINE",
"325 308 LINE",
"309 281 LINE",
"286 242 LINE",
"235 163 LINE",
"208 127 LINE",
"184 94 LINE",
"163 67 LINE",
"190 57 LINE"
);
},
{
closed = 1;
nodes = (
"67 211 LINE",
"67 181 LINE",
"91 124 LINE",
"111 103 LINE",
"112 101 LINE",
"124 112 LINE",
"290 357 LINE",
"280 361 LINE",
"268 365 LINE",
"235 365 LINE",
"164 346 LINE",
"106 307 LINE",
"67 250 LINE"
);
}
);
width = 499;
}
);
unicode = 00F8;
},
{
glyphname = thorn;
lastChange = "2016-09-01 06:34:15 +0000";
layers = (
{
layerId = UUID0;
paths = (
{
closed = 1;
nodes = (
"37 187 LINE",
"37 199 LINE",
"37 253 LINE",
"38 319 LINE",
"41 391 LINE",
"46 454 LINE",
"53 501 LINE",
"58 509 LINE",
"107 521 LINE",
"79 319 LINE",
"112 342 LINE",
"200 373 LINE",
"296 382 LINE",
"390 369 LINE",
"464 324 LINE",
"511 246 LINE",
"512 187 LINE",
"512 147 LINE",
"481 95 LINE",
"430 66 LINE",
"367 55 LINE",
"334 55 LINE",
"311 55 LINE",
"247 55 LINE",
"181 60 LINE",
"118 73 LINE",
"96 86 LINE",
"94 43 LINE",
"93 -23 LINE",
"92 -84 LINE",
"94 -146 LINE",
"95 -185 LINE",
"94 -188 LINE",
"94 -190 LINE",
"93 -192 LINE",
"79 -191 LINE",
"62 -188 LINE",
"46 -186 LINE",
"41 -188 LINE",
"31 -134 LINE",
"27 -19 LINE",
"30 83 LINE",
"37 166 LINE"
);
},
{
closed = 1;
nodes = (
"106 229 LINE",
"103 209 LINE",
"100 168 LINE",
"98 146 LINE",
"122 142 LINE",
"180 131 LINE",
"236 121 LINE",
"286 114 LINE",
"304 114 LINE",
"321 114 LINE",
"373 120 LINE",
"420 137 LINE",
"454 166 LINE",
"454 190 LINE",
"454 223 LINE",
"424 274 LINE",
"376 307 LINE",
"316 325 LINE",
"286 325 LINE",
"281 325 LINE",
"251 320 LINE",
"211 312 LINE",
"167 298 LINE",
"130 280 LINE",
"106 256 LINE",
"106 241 LINE"
);
}
);
width = 533;
}
);
unicode = 00FE;
},
{
glyphname = Aogonek;
lastChange = "2016-09-01 06:34:15 +0000";
layers = (
{
layerId = UUID0;
paths = (
{
closed = 1;
nodes = (
"559 -145 LINE",
"508 -146 LINE",
"427 -138 LINE",
"378 -110 LINE",
"367 -58 LINE",
"385 -13 LINE",
"394 1 LINE",
"415 19 LINE",
"442 32 LINE",
"457 37 LINE",
"463 40 LINE",
"470 43 LINE",
"471 50 LINE",
"472 58 LINE",
"476 75 LINE",
"484 110 LINE",
"490 145 LINE",
"490 163 LINE",
"490 191 LINE",
"486 256 LINE",
"478 285 LINE",
"449 279 LINE",
"391 282 LINE",
"331 290 LINE",
"271 298 LINE",
"241 298 LINE",
"232 298 LINE",
"194 298 LINE",
"153 295 LINE",
"119 292 LINE",
"115 288 LINE",
"106 279 LINE",
"106 278 LINE",
"105 271 LINE",
"105 261 LINE",
"104 251 LINE",
"104 248 LINE",
"104 219 LINE",
"113 160 LINE",
"124 103 LINE",
"134 47 LINE",
"134 19 LINE",
"134 10 LINE",
"119 -4 LINE",
"95 5 LINE",
"76 40 LINE",
"63 95 LINE",
"55 160 LINE",
"55 228 LINE",
"58 259 LINE",
"55 262 LINE",
"44 275 LINE",
"31 290 LINE",
"21 304 LINE",
"19 307 LINE",
"19 309 LINE",
"19 310 LINE",
"19 312 LINE",
"19 319 LINE",
"26 325 LINE",
"36 328 LINE",
"46 332 LINE",
"49 337 LINE",
"49 364 LINE",
"52 406 LINE",
"58 501 LINE",
"71 592 LINE",
"97 676 LINE",
"145 740 LINE",
"220 778 LINE",
"276 778 LINE",
"320 778 LINE",
"391 736 LINE",
"446 665 LINE",
"487 571 LINE",
"515 468 LINE",
"534 361 LINE",
"544 265 LINE",
"548 186 LINE",
"548 160 LINE",
"548 142 LINE",
"547 111 LINE",
"545 82 LINE",
"541 49 LINE",
"538 29 LINE",
"529 18 LINE",
"505 -1 LINE",
"490 -1 LINE",
"484 -1 LINE",
"481 0 LINE",
"449 -15 LINE",
"436 -31 LINE",
"415 -55 LINE",
"436 -93 LINE",
"515 -115 LINE",
"574 -111 LINE"
);
},
{
closed = 1;
nodes = (
"446 325 LINE",
"449 325 LINE",
"457 327 LINE",
"464 336 LINE",
"470 355 LINE",
"472 373 LINE",
"472 403 LINE",
"461 478 LINE",
"439 558 LINE",
"404 634 LINE",
"355 694 LINE",
"293 730 LINE",
"254 730 LINE",
"213 730 LINE",
"157 687 LINE",
"121 618 LINE",
"103 532 LINE",
"95 446 LINE",
"94 370 LINE",
"94 346 LINE"
);
}
);
width = 576;
}
);
unicode = 0104;
},
{
glyphname = aogonek;
lastChange = "2016-09-01 06:34:15 +0000";
layers = (
{
layerId = UUID0;
paths = (
{
closed = 1;
nodes = (
"469 -120 LINE",
"417 -121 LINE",
"336 -113 LINE",
"287 -86 LINE",
"281 -59 LINE",
"277 -37 LINE",
"289 0 LINE",
"283 0 LINE",
"241 0 LINE",
"148 14 LINE",
"70 51 LINE",
"19 117 LINE",
"19 169 LINE",
"19 186 LINE",
"38 230 LINE",
"76 271 LINE",
"133 305 LINE",
"213 319 LINE",
"314 307 LINE",
"376 283 LINE",
"376 283 LINE",
"375 301 LINE",
"375 302 LINE",
"375 328 LINE",
"345 382 LINE",
"298 425 LINE",
"244 452 LINE",
"219 452 LINE",
"208 452 LINE",
"193 445 LINE",
"180 437 LINE",
"167 430 LINE",
"158 430 LINE",
"157 430 LINE",
"156 431 LINE",
"155 432 LINE",
"154 433 LINE",
"151 434 LINE",
"145 441 LINE",
"145 442 LINE",
"145 460 LINE",
"158 486 LINE",
"181 502 LINE",
"210 511 LINE",
"226 511 LINE",
"267 506 LINE",
"339 466 LINE",
"400 403 LINE",
"446 323 LINE",
"477 236 LINE",
"488 147 LINE",
"483 106 LINE",
"482 106 LINE",
"472 107 LINE",
"460 108 LINE",
"455 109 LINE",
"451 109 LINE",
"430 157 LINE",
"378 215 LINE",
"327 247 LINE",
"283 261 LINE",
"269 264 LINE",
"254 264 LINE",
"213 259 LINE",
"169 250 LINE",
"124 233 LINE",
"89 209 LINE",
"67 175 LINE",
"67 154 LINE",
"67 130 LINE",
"106 97 LINE",
"160 76 LINE",
"216 67 LINE",
"233 67 LINE",
"261 67 LINE",
"315 73 LINE",
"367 82 LINE",
"420 88 LINE",
"446 88 LINE",
"453 88 LINE",
"458 88 LINE",
"469 87 LINE",
"473 87 LINE",
"480 87 LINE",
"488 84 LINE",
"490 72 LINE",
"490 66 LINE",
"490 60 LINE",
"465 46 LINE",
"425 31 LINE",
"400 24 LINE",
"376 17 LINE",
"355 5 LINE",
"345 -6 LINE",
"324 -30 LINE",
"346 -68 LINE",
"424 -90 LINE",
"484 -86 LINE"
);
}
);
width = 518;
}
);
unicode = 0105;
},
{
glyphname = Dcroat;
lastChange = "2016-09-01 06:34:15 +0000";
layers = (
{
layerId = UUID0;
paths = (
{
closed = 1;
nodes = (
"249 61 LINE",
"249 70 LINE",
"253 87 LINE",
"264 87 LINE",
"269 87 LINE",
"310 76 LINE",
"358 62 LINE",
"403 50 LINE",
"413 49 LINE",
"418 49 LINE",
"461 49 LINE",
"552 82 LINE",
"626 142 LINE",
"673 221 LINE",
"673 267 LINE",
"673 303 LINE",
"645 372 LINE",
"598 436 LINE",
"535 490 LINE",
"465 533 LINE",
"393 563 LINE",
"360 569 LINE",
"361 505 LINE",
"370 448 LINE",
"378 397 LINE",
"386 351 LINE",
"400 351 LINE",
"415 350 LINE",
"432 349 LINE",
"460 340 LINE",
"478 321 LINE",
"478 303 LINE",
"478 282 LINE",
"459 282 LINE",
"437 282 LINE",
"418 287 LINE",
"408 290 LINE",
"397 292 LINE",
"401 264 LINE",
"404 236 LINE",
"410 187 LINE",
"404 136 LINE",
"404 130 LINE",
"403 117 LINE",
"399 104 LINE",
"388 96 LINE",
"379 96 LINE",
"364 88 LINE",
"349 116 LINE",
"341 173 LINE",
"340 212 LINE",
"339 250 LINE",
"337 291 LINE",
"329 289 LINE",
"311 286 LINE",
"278 279 LINE",
"242 272 LINE",
"213 272 LINE",
"213 307 LINE",
"239 338 LINE",
"281 348 LINE",
"308 347 LINE",
"320 346 LINE",
"333 347 LINE",
"330 377 LINE",
"326 418 LINE",
"317 451 LINE",
"316 463 LINE",
"309 502 LINE",
"299 543 LINE",
"286 577 LINE",
"279 586 LINE",
"207 586 LINE",
"121 577 LINE",
"70 565 LINE",
"47 552 LINE",
"38 547 LINE",
"37 547 LINE",
"36 547 LINE",
"34 546 LINE",
"33 546 LINE",
"31 546 LINE",
"31 547 LINE",
"30 547 LINE",
"29 547 LINE",
"28 548 LINE",
"27 551 LINE",
"25 559 LINE",
"23 564 LINE",
"20 574 LINE",
"19 576 LINE",
"19 580 LINE",
"19 594 LINE",
"49 613 LINE",
"92 628 LINE",
"144 637 LINE",
"189 641 LINE",
"220 643 LINE",
"221 643 LINE",
"272 643 LINE",
"388 621 LINE",
"501 577 LINE",
"604 512 LINE",
"683 427 LINE",
"730 324 LINE",
"730 264 LINE",
"730 209 LINE",
"696 121 LINE",
"636 55 LINE",
"556 10 LINE",
"466 -11 LINE",
"371 -11 LINE",
"326 0 LINE",
"317 3 LINE",
"291 13 LINE",
"266 28 LINE",
"249 49 LINE"
);
}
);
width = 759;
}
);
unicode = 0110;
},
{
glyphname = dcroat;
lastChange = "2016-09-01 06:34:15 +0000";
layers = (
{
layerId = UUID0;
paths = (
{
closed = 1;
nodes = (
"448 607 LINE",
"463 607 LINE",
"495 605 LINE",
"523 596 LINE",
"541 577 LINE",
"541 559 LINE",
"541 538 LINE",
"522 538 LINE",
"500 538 LINE",
"481 543 LINE",
"469 547 LINE",
"454 548 LINE",
"459 526 LINE",
"463 502 LINE",
"472 448 LINE",
"484 336 LINE",
"491 229 LINE",
"499 141 LINE",
"506 78 LINE",
"513 65 LINE",
"513 49 LINE",
"490 41 LINE",
"478 41 LINE",
"467 41 LINE",
"454 55 LINE",
"445 76 LINE",
"439 101 LINE",
"431 122 LINE",
"421 136 LINE",
"413 136 LINE",
"412 136 LINE",
"404 135 LINE",
"403 134 LINE",
"385 108 LINE",
"334 59 LINE",
"273 22 LINE",
"206 0 LINE",
"172 0 LINE",
"134 0 LINE",
"77 49 LINE",
"38 120 LINE",
"19 198 LINE",
"19 227 LINE",
"19 264 LINE",
"37 346 LINE",
"79 415 LINE",
"142 461 LINE",
"187 461 LINE",
"211 461 LINE",
"260 447 LINE",
"311 421 LINE",
"366 385 LINE",
"397 365 LINE",
"400 405 LINE",
"387 490 LINE",
"376 530 LINE",
"374 538 LINE",
"372 544 LINE",
"349 541 LINE",
"325 538 LINE",
"296 533 LINE",
"239 526 LINE",
"210 526 LINE",
"210 550 LINE",
"232 579 LINE",
"268 595 LINE",
"313 601 LINE",
"337 602 LINE",
"355 602 LINE",
"354 605 LINE",
"353 608 LINE",
"342 645 LINE",
"331 703 LINE",
"340 741 LINE",
"360 746 LINE",
"387 727 LINE",
"406 690 LINE",
"425 653 LINE",
"439 607 LINE"
);
},
{
closed = 1;
nodes = (
"81 209 LINE",
"91 173 LINE",
"107 119 LINE",
"130 85 LINE",
"162 67 LINE",
"187 67 LINE",
"220 67 LINE",
"292 105 LINE",
"354 163 LINE",
"394 232 LINE",
"394 264 LINE",
"394 267 LINE",
"394 285 LINE",
"394 288 LINE",
"340 340 LINE",
"252 385 LINE",
"181 386 LINE",
"130 354 LINE",
"96 301 LINE",
"80 238 LINE"
);
}
);
width = 538;
}
);
unicode = 0111;
},
{
glyphname = Eogonek;
lastChange = "2016-09-01 06:34:15 +0000";
layers = (
{
layerId = UUID0;
paths = (
{
closed = 1;
nodes = (
"454 -145 LINE",
"403 -146 LINE",
"322 -138 LINE",
"273 -110 LINE",
"262 -58 LINE",
"280 -13 LINE",
"284 -5 LINE",
"289 1 LINE",
"281 1 LINE",
"273 0 LINE",
"238 -1 LINE",
"213 -1 LINE",
"181 -1 LINE",
"140 -1 LINE",
"79 13 LINE",
"39 46 LINE",
"19 103 LINE",
"19 145 LINE",
"19 184 LINE",
"30 259 LINE",
"30 299 LINE",
"30 316 LINE",
"19 337 LINE",
"19 350 LINE",
"19 355 LINE",
"21 357 LINE",
"31 373 LINE",
"34 375 LINE",
"34 595 LINE",
"34 612 LINE",
"41 628 LINE",
"67 634 LINE",
"117 632 LINE",
"202 628 LINE",
"327 625 LINE",
"415 627 LINE",
"425 622 LINE",
"446 613 LINE",
"463 600 LINE",
"473 582 LINE",
"473 569 LINE",
"473 566 LINE",
"466 558 LINE",
"463 559 LINE",
"415 578 LINE",
"94 569 LINE",
"89 569 LINE",
"87 570 LINE",
"91 561 LINE",
"91 556 LINE",
"91 375 LINE",
"97 367 LINE",
"145 367 LINE",
"211 374 LINE",
"285 387 LINE",
"349 398 LINE",
"391 405 LINE",
"394 403 LINE",
"397 403 LINE",
"414 405 LINE",
"433 406 LINE",
"450 407 LINE",
"453 407 LINE",
"453 383 LINE",
"400 353 LINE",
"320 337 LINE",
"227 328 LINE",
"145 322 LINE",
"89 315 LINE",
"87 307 LINE",
"81 291 LINE",
"76 252 LINE",
"75 211 LINE",
"76 170 LINE",
"76 154 LINE",
"76 139 LINE",
"76 130 LINE",
"76 109 LINE",
"76 99 LINE",
"76 87 LINE",
"81 76 LINE",
"108 67 LINE",
"139 64 LINE",
"169 66 LINE",
"175 66 LINE",
"209 66 LINE",
"277 73 LINE",
"345 80 LINE",
"412 87 LINE",
"446 87 LINE",
"451 87 LINE",
"454 86 LINE",
"462 84 LINE",
"471 80 LINE",
"478 77 LINE",
"480 76 LINE",
"482 76 LINE",
"490 69 LINE",
"490 67 LINE",
"490 49 LINE",
"448 24 LINE",
"415 16 LINE",
"412 16 LINE",
"412 15 LINE",
"352 -8 LINE",
"310 -55 LINE",
"331 -93 LINE",
"410 -115 LINE",
"469 -111 LINE"
);
}
);
width = 538;
}
);
unicode = 0118;
},
{
glyphname = eogonek;
lastChange = "2016-09-01 06:34:15 +0000";
layers = (
{
layerId = UUID0;
paths = (
{
closed = 1;
nodes = (
"442 -142 LINE",
"391 -143 LINE",
"310 -135 LINE",
"261 -107 LINE",
"250 -55 LINE",
"268 -10 LINE",
"271 -4 LINE",
"275 1 LINE",
"232 4 LINE",
"193 19 LINE",
"142 37 LINE",
"64 107 LINE",
"19 206 LINE",
"19 268 LINE",
"19 319 LINE",
"49 415 LINE",
"109 487 LINE",
"194 529 LINE",
"250 529 LINE",
"283 525 LINE",
"331 498 LINE",
"363 457 LINE",
"377 403 LINE",
"376 373 LINE",
"376 337 LINE",
"334 280 LINE",
"270 241 LINE",
"196 220 LINE",
"163 220 LINE",
"151 220 LINE",
"127 220 LINE",
"107 228 LINE",
"95 244 LINE",
"95 260 LINE",
"95 265 LINE",
"98 272 LINE",
"112 275 LINE",
"139 273 LINE",
"163 268 LINE",
"177 268 LINE",
"231 287 LINE",
"286 317 LINE",
"326 355 LINE",
"326 375 LINE",
"326 394 LINE",
"313 433 LINE",
"287 463 LINE",
"252 481 LINE",
"230 480 LINE",
"195 477 LINE",
"138 445 LINE",
"97 394 LINE",
"76 331 LINE",
"76 298 LINE",
"76 273 LINE",
"78 220 LINE",
"91 169 LINE",
"120 124 LINE",
"175 89 LINE",
"259 66 LINE",
"321 63 LINE",
"499 75 LINE",
"483 53 LINE",
"435 25 LINE",
"407 16 LINE",
"390 10 LINE",
"373 7 LINE",
"334 -11 LINE",
"319 -28 LINE",
"298 -52 LINE",
"319 -90 LINE",
"398 -112 LINE",
"457 -108 LINE"
);
}
);
width = 529;
}
);
unicode = 0119;
},
{
glyphname = hbar;
lastChange = "2016-09-01 06:34:15 +0000";
layers = (
{
layerId = UUID0;
paths = (
{
closed = 1;
nodes = (
"90 571 LINE",
"104 571 LINE",
"137 570 LINE",
"165 561 LINE",
"183 541 LINE",
"183 523 LINE",
"183 502 LINE",
"164 502 LINE",
"142 502 LINE",
"124 508 LINE",
"107 513 LINE",
"88 514 LINE",
"89 502 LINE",
"91 486 LINE",
"94 451 LINE",
"97 427 LINE",
"149 459 LINE",
"234 466 LINE",
"300 435 LINE",
"349 371 LINE",
"381 291 LINE",
"398 201 LINE",
"403 117 LINE",
"394 46 LINE",
"376 3 LINE",
"346 -4 LINE",
"328 18 LINE",
"331 43 LINE",
"334 100 LINE",
"337 156 LINE",
"337 210 LINE",
"337 232 LINE",
"337 265 LINE",
"320 322 LINE",
"286 365 LINE",
"235 390 LINE",
"200 390 LINE",
"186 390 LINE",
"166 386 LINE",
"145 377 LINE",
"123 362 LINE",
"106 351 LINE",
"106 349 LINE",
"105 338 LINE",
"105 337 LINE",
"105 314 LINE",
"114 241 LINE",
"124 163 LINE",
"133 89 LINE",
"133 66 LINE",
"133 58 LINE",
"133 52 LINE",
"133 38 LINE",
"133 31 LINE",
"133 23 LINE",
"127 9 LINE",
"110 2 LINE",
"98 2 LINE",
"86 0 LINE",
"74 38 LINE",
"68 110 LINE",
"63 211 LINE",
"54 334 LINE",
"45 402 LINE",
"38 454 LINE",
"28 509 LINE",
"13 506 LINE",
"0 503 LINE",
"-17 499 LINE",
"-53 493 LINE",
"-82 493 LINE",
"-82 528 LINE",
"-56 559 LINE",
"-14 568 LINE",
"13 568 LINE",
"10 580 LINE",
"8 590 LINE",
"4 610 LINE",
"-4 641 LINE",
"-10 673 LINE",
"-14 697 LINE",
"-14 701 LINE",
"-14 706 LINE",
"-5 712 LINE",
"9 718 LINE",
"22 721 LINE",
"26 721 LINE",
"45 670 LINE",
"68 601 LINE",
"75 577 LINE",
"76 574 LINE",
"77 571 LINE",
"86 571 LINE"
);
}
);
width = 439;
}
);
unicode = 0127;
},
{
glyphname = itilde;
lastChange = "2016-09-01 06:34:15 +0000";
layers = (
{
layerId = UUID0;
paths = (
{
closed = 1;
nodes = (
"63 346 LINE",
"63 361 LINE",
"63 372 LINE",
"64 396 LINE",
"64 406 LINE",
"64 422 LINE",
"59 453 LINE",
"82 453 LINE",
"93 453 LINE",
"106 443 LINE",
"112 433 LINE",
"109 380 LINE",
"124 283 LINE",
"143 189 LINE",
"160 93 LINE",
"160 41 LINE",
"160 28 LINE",
"143 -1 LINE",
"126 -1 LINE",
"113 -1 LINE",
"94 44 LINE",
"80 113 LINE",
"70 197 LINE",
"65 274 LINE",
"63 334 LINE"
);
},
{
closed = 1;
nodes = (
"217 566 LINE",
"190 556 LINE",
"150 566 LINE",
"112 590 LINE",
"76 619 LINE",
"55 629 LINE",
"27 631 LINE",
"1 608 LINE",
"-9 575 LINE",
"-8 541 LINE",
"-12 523 LINE",
"-26 528 LINE",
"-47 552 LINE",
"-55 576 LINE",
"-47 619 LINE",
"-23 650 LINE",
"13 670 LINE",
"34 670 LINE",
"37 671 LINE",
"47 671 LINE",
"71 663 LINE",
"111 643 LINE",
"142 624 LINE",
"161 613 LINE",
"184 610 LINE",
"200 616 LINE",
"209 620 LINE",
"215 622 LINE",
"215 624 LINE",
"277 672 LINE",
"289 671 LINE",
"302 663 LINE",
"307 652 LINE",
"305 643 LINE",
"302 640 LINE",
"275 617 LINE",
"246 590 LINE",
"232 576 LINE",
"229 571 LINE",
"228 569 LINE",
"224 568 LINE"
);
}
);
width = 179;
}
);
unicode = 0129;
},
{
glyphname = imacron;
lastChange = "2016-09-01 06:34:15 +0000";
layers = (
{
layerId = UUID0;
paths = (
{
closed = 1;
nodes = (
"63 346 LINE",
"63 361 LINE",
"63 372 LINE",
"64 396 LINE",
"64 406 LINE",
"64 422 LINE",
"59 453 LINE",
"82 453 LINE",
"93 453 LINE",
"106 443 LINE",
"112 433 LINE",
"109 380 LINE",
"124 283 LINE",
"143 189 LINE",
"160 93 LINE",
"160 41 LINE",
"160 28 LINE",
"143 -1 LINE",
"126 -1 LINE",
"113 -1 LINE",
"94 44 LINE",
"80 113 LINE",
"70 197 LINE",
"65 274 LINE",
"63 334 LINE"
);
},
{
closed = 1;
nodes = (
"126 617 LINE",
"140 617 LINE",
"173 616 LINE",
"201 607 LINE",
"219 587 LINE",
"219 569 LINE",
"219 548 LINE",
"200 548 LINE",
"178 548 LINE",
"141 559 LINE",
"118 559 LINE",
"88 559 LINE",
"52 553 LINE",
"19 545 LINE",
"-17 538 LINE",
"-46 538 LINE",
"-46 574 LINE",
"-20 604 LINE",
"22 614 LINE",
"76 613 LINE",
"103 616 LINE",
"104 616 LINE",
"122 617 LINE"
);
}
);
width = 179;
}
);
unicode = 012B;
},
{
glyphname = ibreve;
lastChange = "2016-09-01 06:34:15 +0000";
layers = (
{
layerId = UUID0;
paths = (
{
closed = 1;
nodes = (
"63 346 LINE",
"63 361 LINE",
"63 372 LINE",
"64 396 LINE",
"64 406 LINE",
"64 422 LINE",
"59 453 LINE",
"82 453 LINE",
"93 453 LINE",
"106 443 LINE",
"112 433 LINE",
"109 380 LINE",
"124 283 LINE",
"143 189 LINE",
"160 93 LINE",
"160 41 LINE",
"160 28 LINE",
"143 -1 LINE",
"126 -1 LINE",
"113 -1 LINE",
"94 44 LINE",
"80 113 LINE",
"70 197 LINE",
"65 274 LINE",
"63 334 LINE"
);
},
{
closed = 1;
nodes = (
"166 617 LINE",
"169 611 LINE",
"172 611 LINE",
"172 606 LINE",
"172 586 LINE",
"154 553 LINE",
"127 531 LINE",
"91 519 LINE",
"72 519 LINE",
"34 519 LINE",
"-16 564 LINE",
"-16 602 LINE",
"-16 610 LINE",
"-4 609 LINE",
"9 607 LINE",
"15 604 LINE",
"16 602 LINE",
"16 601 LINE",
"16 585 LINE",
"37 567 LINE",
"69 561 LINE",
"103 565 LINE",
"127 580 LINE",
"135 604 LINE",
"125 620 LINE"
);
}
);
width = 179;
}
);
unicode = 012D;
},
{
glyphname = Iogonek;
lastChange = "2016-09-01 06:34:15 +0000";
layers = (
{
layerId = UUID0;
paths = (
{
closed = 1;
nodes = (
"187 -145 LINE",
"136 -146 LINE",
"55 -138 LINE",
"6 -110 LINE",
"-5 -58 LINE",
"13 -13 LINE",
"22 1 LINE",
"43 19 LINE",
"70 32 LINE",
"85 37 LINE",
"90 40 LINE",
"95 41 LINE",
"91 76 LINE",
"86 115 LINE",
"82 156 LINE",
"73 238 LINE",
"64 319 LINE",
"58 355 LINE",
"55 370 LINE",
"40 421 LINE",
"26 478 LINE",
"15 535 LINE",
"15 559 LINE",
"27 576 LINE",
"51 556 LINE",
"75 501 LINE",
"97 416 LINE",
"117 319 LINE",
"134 218 LINE",
"146 128 LINE",
"154 58 LINE",
"154 40 LINE",
"154 28 LINE",
"154 22 LINE",
"151 11 LINE",
"143 2 LINE",
"134 0 LINE",
"128 -2 LINE",
"121 4 LINE",
"121 4 LINE",
"120 4 LINE",
"79 -13 LINE",
"64 -31 LINE",
"43 -55 LINE",
"64 -93 LINE",
"143 -115 LINE",
"202 -111 LINE"
);
}
);
width = 172;
}
);
unicode = 012E;
},
{
glyphname = iogonek;
lastChange = "2016-09-01 06:34:15 +0000";
layers = (
{
layerId = UUID0;
paths = (
{
closed = 1;
nodes = (
"173 -148 LINE",
"121 -149 LINE",
"40 -141 LINE",
"-8 -113 LINE",
"-20 -61 LINE",
"-1 -16 LINE",
"7 -2 LINE",
"29 16 LINE",
"55 29 LINE",
"70 34 LINE",
"82 39 LINE",
"95 44 LINE",
"91 60 LINE",
"87 79 LINE",
"80 113 LINE",
"70 197 LINE",
"65 274 LINE",
"63 334 LINE",
"63 346 LINE",
"63 361 LINE",
"63 372 LINE",
"64 396 LINE",
"64 406 LINE",
"64 422 LINE",
"59 453 LINE",
"82 453 LINE",
"93 453 LINE",
"106 443 LINE",
"112 433 LINE",
"109 380 LINE",
"124 283 LINE",
"143 189 LINE",
"160 93 LINE",
"160 41 LINE",
"160 28 LINE",
"143 -1 LINE",
"126 -1 LINE",
"119 -1 LINE",
"113 5 LINE",
"67 -14 LINE",
"49 -34 LINE",
"28 -58 LINE",
"50 -96 LINE",
"129 -118 LINE",
"188 -114 LINE"
);
},
{
closed = 1;
nodes = (
"12 597 LINE",
"12 609 LINE",
"25 616 LINE",
"37 616 LINE",
"43 617 LINE",
"67 598 LINE",
"82 574 LINE",
"84 553 LINE",
"68 550 LINE",
"63 550 LINE",
"48 550 LINE",
"28 553 LINE",
"17 563 LINE",
"12 581 LINE"
);
}
);
width = 179;
}
);
unicode = 012F;
},
{
glyphname = dotlessi;
lastChange = "2016-09-01 06:34:15 +0000";
layers = (
{
layerId = UUID0;
paths = (
{
closed = 1;
nodes = (
"63 346 LINE",
"63 361 LINE",
"63 372 LINE",
"64 396 LINE",
"64 406 LINE",
"64 422 LINE",
"59 453 LINE",
"82 453 LINE",
"93 453 LINE",
"106 443 LINE",
"112 433 LINE",
"109 380 LINE",
"124 283 LINE",
"143 189 LINE",
"160 93 LINE",
"160 41 LINE",
"160 28 LINE",
"143 -1 LINE",
"126 -1 LINE",
"113 -1 LINE",
"94 44 LINE",
"80 113 LINE",
"70 197 LINE",
"65 274 LINE",
"63 334 LINE"
);
}
);
width = 179;
}
);
unicode = 0131;
},
{
glyphname = jcircumflex;
lastChange = "2016-09-01 06:34:15 +0000";
layers = (
{
layerId = UUID0;
paths = (
{
closed = 1;
nodes = (
"146 -459 LINE",
"98 -446 LINE",
"10 -386 LINE",
"-60 -304 LINE",
"-107 -205 LINE",
"-113 -153 LINE",
"-113 -146 LINE",
"-113 -134 LINE",
"-111 -122 LINE",
"-103 -112 LINE",
"-94 -110 LINE",
"-81 -116 LINE",
"-56 -161 LINE",
"-29 -220 LINE",
"4 -286 LINE",
"46 -341 LINE",
"100 -377 LINE",
"134 -377 LINE",
"145 -377 LINE",
"160 -365 LINE",
"169 -347 LINE",
"172 -327 LINE",
"172 -319 LINE",
"175 -230 LINE",
"154 -56 LINE",
"121 118 LINE",
"88 291 LINE",
"81 376 LINE",
"82 383 LINE",
"83 393 LINE",
"88 400 LINE",
"98 403 LINE",
"109 403 LINE",
"119 397 LINE",
"143 339 LINE",
"167 249 LINE",
"191 134 LINE",
"211 8 LINE",
"225 -122 LINE",
"230 -244 LINE",
"225 -350 LINE",
"206 -425 LINE",
"172 -464 LINE"
);
},
{
closed = 1;
nodes = (
"106 634 LINE",
"87 610 LINE",
"44 563 LINE",
"4 538 LINE",
"-28 544 LINE",
"-36 572 LINE",
"-8 598 LINE",
"31 630 LINE",
"58 661 LINE",
"77 703 LINE",
"86 739 LINE",
"88 747 LINE",
"100 749 LINE",
"106 749 LINE",
"121 749 LINE",
"135 736 LINE",
"144 721 LINE",
"150 711 LINE",
"172 685 LINE",
"195 659 LINE",
"216 634 LINE",
"222 625 LINE",
"229 614 LINE",
"236 601 LINE",
"240 590 LINE",
"241 578 LINE",
"241 568 LINE",
"241 555 LINE",
"236 538 LINE",
"222 538 LINE",
"207 538 LINE",
"181 559 LINE",
"155 589 LINE",
"124 622 LINE"
);
}
);
width = 205;
}
);
unicode = 0135;
},
{
glyphname = Lslash;
lastChange = "2016-09-01 06:34:15 +0000";
layers = (
{
layerId = UUID0;
paths = (
{
closed = 1;
nodes = (
"68 241 LINE",
"70 277 LINE",
"76 354 LINE",
"85 427 LINE",
"94 492 LINE",
"107 538 LINE",
"122 562 LINE",
"131 557 LINE",
"147 556 LINE",
"154 505 LINE",
"148 425 LINE",
"133 326 LINE",
"128 277 LINE",
"178 307 LINE",
"178 302 LINE",
"190 284 LINE",
"201 268 LINE",
"208 255 LINE",
"202 255 LINE",
"191 247 LINE",
"176 232 LINE",
"160 217 LINE",
"139 202 LINE",
"122 192 LINE",
"121 181 LINE",
"122 162 LINE",
"123 154 LINE",
"123 144 LINE",
"129 121 LINE",
"142 101 LINE",
"160 87 LINE",
"171 86 LINE",
"373 67 LINE",
"381 66 LINE",
"383 49 LINE",
"383 43 LINE",
"383 25 LINE",
"361 13 LINE",
"344 9 LINE",
"340 9 LINE",
"319 8 LINE",
"296 7 LINE",
"276 7 LINE",
"271 7 LINE",
"226 7 LINE",
"151 20 LINE",
"97 55 LINE",
"65 116 LINE",
"64 163 LINE",
"55 160 LINE",
"35 152 LINE",
"25 148 LINE",
"12 205 LINE"
);
}
);
width = 355;
}
);
unicode = 0141;
},
{
glyphname = lslash;
lastChange = "2016-09-01 06:34:15 +0000";
layers = (
{
layerId = UUID0;
paths = (
{
closed = 1;
nodes = (
"51 20 LINE",
"42 82 LINE",
"35 204 LINE",
"35 265 LINE",
"9 247 LINE",
"-29 217 LINE",
"-55 205 LINE",
"-69 220 LINE",
"-71 247 LINE",
"35 321 LINE",
"36 388 LINE",
"39 518 LINE",
"38 584 LINE",
"38 593 LINE",
"51 599 LINE",
"58 599 LINE",
"67 599 LINE",
"82 586 LINE",
"91 566 LINE",
"96 547 LINE",
"96 541 LINE",
"97 491 LINE",
"100 406 LINE",
"102 367 LINE",
"151 403 LINE",
"151 397 LINE",
"163 374 LINE",
"177 350 LINE",
"185 332 LINE",
"181 332 LINE",
"159 328 LINE",
"121 314 LINE",
"103 306 LINE",
"105 225 LINE",
"103 118 LINE",
"97 53 LINE",
"88 23 LINE",
"75 14 LINE",
"59 18 LINE"
);
}
);
width = 123;
}
);
unicode = 0142;
},
{
glyphname = OE;
lastChange = "2016-09-01 06:34:15 +0000";
layers = (
{
layerId = UUID0;
paths = (
{
closed = 1;
nodes = (
"454 435 LINE",
"449 435 LINE",
"447 436 LINE",
"451 427 LINE",
"451 425 LINE",
"451 287 LINE",
"457 282 LINE",
"505 281 LINE",
"571 287 LINE",
"646 296 LINE",
"710 305 LINE",
"754 310 LINE",
"756 309 LINE",
"759 309 LINE",
"776 310 LINE",
"795 311 LINE",
"812 312 LINE",
"815 312 LINE",
"815 298 LINE",
"784 278 LINE",
"733 265 LINE",
"669 257 LINE",
"601 252 LINE",
"535 249 LINE",
"482 245 LINE",
"448 240 LINE",
"447 235 LINE",
"442 223 LINE",
"437 193 LINE",
"436 162 LINE",
"436 131 LINE",
"436 118 LINE",
"436 108 LINE",
"436 100 LINE",
"437 84 LINE",
"437 76 LINE",
"437 67 LINE",
"441 59 LINE",
"468 52 LINE",
"499 51 LINE",
"529 52 LINE",
"536 52 LINE",
"604 52 LINE",
"740 67 LINE",
"808 67 LINE",
"814 67 LINE",
"818 67 LINE",
"840 61 LINE",
"842 60 LINE",
"844 59 LINE",
"853 55 LINE",
"853 53 LINE",
"853 39 LINE",
"811 19 LINE",
"746 8 LINE",
"669 2 LINE",
"600 1 LINE",
"574 1 LINE",
"541 1 LINE",
"488 1 LINE",
"416 19 LINE",
"397 43 LINE",
"386 25 LINE",
"343 7 LINE",
"304 2 LINE",
"242 2 LINE",
"137 43 LINE",
"61 116 LINE",
"19 219 LINE",
"19 282 LINE",
"16 325 LINE",
"43 402 LINE",
"94 460 LINE",
"166 496 LINE",
"209 499 LINE",
"247 493 LINE",
"307 474 LINE",
"351 447 LINE",
"382 412 LINE",
"393 391 LINE",
"393 454 LINE",
"393 466 LINE",
"400 479 LINE",
"427 484 LINE",
"477 483 LINE",
"562 481 LINE",
"688 478 LINE",
"778 479 LINE",
"787 476 LINE",
"808 469 LINE",
"825 459 LINE",
"835 445 LINE",
"835 435 LINE",
"835 433 LINE",
"828 427 LINE",
"826 427 LINE",
"778 442 LINE"
);
},
{
closed = 1;
nodes = (
"66 286 LINE",
"65 241 LINE",
"106 161 LINE",
"172 100 LINE",
"254 61 LINE",
"295 55 LINE",
"315 55 LINE",
"348 79 LINE",
"371 120 LINE",
"384 179 LINE",
"384 215 LINE",
"374 289 LINE",
"329 381 LINE",
"269 430 LINE",
"201 442 LINE",
"168 436 LINE",
"137 425 LINE",
"97 390 LINE",
"75 349 LINE",
"66 307 LINE"
);
}
);
width = 869;
}
);
unicode = 0152;
},
{
glyphname = oe;
lastChange = "2016-09-01 06:34:15 +0000";
layers = (
{
layerId = UUID0;
paths = (
{
closed = 1;
nodes = (
"19 204 LINE",
"19 259 LINE",
"67 341 LINE",
"145 397 LINE",
"242 424 LINE",
"291 424 LINE",
"316 424 LINE",
"362 405 LINE",
"403 372 LINE",
"418 350 LINE",
"420 348 LINE",
"421 346 LINE",
"436 385 LINE",
"461 415 LINE",
"491 451 LINE",
"577 493 LINE",
"632 493 LINE",
"665 489 LINE",
"714 462 LINE",
"745 421 LINE",
"760 367 LINE",
"759 337 LINE",
"759 301 LINE",
"716 244 LINE",
"652 205 LINE",
"578 184 LINE",
"546 184 LINE",
"534 184 LINE",
"509 184 LINE",
"490 192 LINE",
"478 208 LINE",
"478 224 LINE",
"478 229 LINE",
"481 236 LINE",
"494 239 LINE",
"521 237 LINE",
"546 232 LINE",
"559 232 LINE",
"613 251 LINE",
"668 281 LINE",
"709 319 LINE",
"709 339 LINE",
"709 358 LINE",
"695 397 LINE",
"670 427 LINE",
"634 445 LINE",
"613 444 LINE",
"577 441 LINE",
"520 409 LINE",
"480 358 LINE",
"469 327 LINE",
"460 301 LINE",
"458 276 LINE",
"461 267 LINE",
"463 259 LINE",
"470 235 LINE",
"470 214 LINE",
"470 188 LINE",
"465 165 LINE",
"466 162 LINE",
"466 158 LINE",
"473 133 LINE",
"502 88 LINE",
"557 53 LINE",
"641 30 LINE",
"703 27 LINE",
"882 39 LINE",
"865 17 LINE",
"817 -11 LINE",
"763 -29 LINE",
"708 -36 LINE",
"685 -36 LINE",
"627 -36 LINE",
"524 1 LINE",
"485 36 LINE",
"456 63 LINE",
"435 98 LINE",
"418 74 LINE",
"396 55 LINE",
"362 28 LINE",
"276 -1 LINE",
"231 -1 LINE",
"185 -1 LINE",
"108 28 LINE",
"51 80 LINE",
"19 157 LINE"
);
},
{
closed = 1;
nodes = (
"401 232 LINE",
"401 251 LINE",
"403 270 LINE",
"390 295 LINE",
"358 319 LINE",
"326 344 LINE",
"268 365 LINE",
"235 365 LINE",
"164 346 LINE",
"106 307 LINE",
"67 250 LINE",
"67 211 LINE",
"67 181 LINE",
"91 124 LINE",
"132 82 LINE",
"187 57 LINE",
"220 57 LINE",
"237 55 LINE",
"286 70 LINE",
"335 99 LINE",
"380 140 LINE",
"394 164 LINE",
"400 174 LINE",
"404 184 LINE",
"401 207 LINE"
);
}
);
width = 897;
}
);
unicode = 0153;
},
{
glyphname = Scedilla;
lastChange = "2016-09-01 06:34:15 +0000";
layers = (
{
layerId = UUID0;
paths = (
{
closed = 1;
nodes = (
"187 -216 LINE",
"193 -211 LINE",
"204 -209 LINE",
"211 -209 LINE",
"228 -209 LINE",
"258 -227 LINE",
"286 -249 LINE",
"313 -268 LINE",
"328 -268 LINE",
"344 -268 LINE",
"372 -269 LINE",
"391 -261 LINE",
"401 -239 LINE",
"401 -215 LINE",
"402 -191 LINE",
"385 -165 LINE",
"358 -151 LINE",
"322 -145 LINE",
"285 -137 LINE",
"249 -125 LINE",
"220 -99 LINE",
"203 -56 LINE",
"202 -21 LINE",
"204 5 LINE",
"208 16 LINE",
"210 19 LINE",
"167 31 LINE",
"132 52 LINE",
"90 75 LINE",
"30 138 LINE",
"19 178 LINE",
"19 187 LINE",
"28 211 LINE",
"42 232 LINE",
"61 246 LINE",
"73 246 LINE",
"73 181 LINE",
"119 106 LINE",
"199 66 LINE",
"305 52 LINE",
"364 49 LINE",
"385 49 LINE",
"449 51 LINE",
"509 64 LINE",
"551 94 LINE",
"550 125 LINE",
"550 139 LINE",
"548 161 LINE",
"541 178 LINE",
"524 193 LINE",
"509 202 LINE",
"211 364 LINE",
"195 373 LINE",
"166 400 LINE",
"145 433 LINE",
"133 469 LINE",
"133 487 LINE",
"133 525 LINE",
"175 574 LINE",
"236 603 LINE",
"307 615 LINE",
"337 615 LINE",
"351 615 LINE",
"395 610 LINE",
"445 600 LINE",
"493 583 LINE",
"532 559 LINE",
"557 526 LINE",
"557 504 LINE",
"543 496 LINE",
"514 502 LINE",
"484 517 LINE",
"452 538 LINE",
"418 558 LINE",
"379 570 LINE",
"359 568 LINE",
"340 568 LINE",
"280 564 LINE",
"223 549 LINE",
"181 517 LINE",
"181 490 LINE",
"181 463 LINE",
"220 418 LINE",
"285 377 LINE",
"366 340 LINE",
"449 301 LINE",
"528 259 LINE",
"587 209 LINE",
"619 151 LINE",
"615 115 LINE",
"610 79 LINE",
"558 28 LINE",
"478 -1 LINE",
"379 -10 LINE",
"328 -5 LINE",
"284 -1 LINE",
"241 10 LINE",
"244 5 LINE",
"246 0 LINE",
"250 -10 LINE",
"253 -30 LINE",
"248 -35 LINE",
"248 -66 LINE",
"279 -93 LINE",
"325 -105 LINE",
"379 -111 LINE",
"424 -132 LINE",
"455 -176 LINE",
"455 -219 LINE",
"455 -243 LINE",
"430 -279 LINE",
"391 -302 LINE",
"345 -314 LINE",
"325 -314 LINE",
"295 -314 LINE",
"257 -297 LINE",
"229 -270 LINE",
"203 -235 LINE"
);
}
);
width = 643;
}
);
unicode = 015E;
},
